<?xml version="1.0" standalone="no"?>
<!DOCTYPE svg PUBLIC "-//W3C//DTD SVG 20010904//EN"
 "http://www.w3.org/TR/2001/REC-SVG-20010904/DTD/svg10.dtd">
<svg version="1.0" xmlns="http://www.w3.org/2000/svg"
 width="512.000000pt" height="512.000000pt" viewBox="0 0 512.000000 512.000000"
 preserveAspectRatio="xMidYMid meet">

<g transform="translate(0.000000,512.000000) scale(0.100000,-0.100000)"
fill="#000000" stroke="none">
<path d="M618 3703 c-9 -10 -87 -169 -174 -353 l-158 -335 -61 -300 -61 -300
-74 -5 c-54 -4 -76 -9 -84 -22 -15 -24 60 -556 82 -580 13 -16 35 -18 172 -18
l157 0 11 -38 c18 -59 82 -151 146 -209 115 -105 279 -157 430 -135 176 25
330 138 408 300 l40 82 1101 0 1102 0 35 -78 c45 -100 145 -204 240 -250 183
-89 379 -76 545 37 80 54 162 154 193 235 l19 51 199 3 c166 2 201 5 216 19
16 15 18 38 18 265 0 183 -4 268 -15 322 -61 296 -293 530 -583 590 -37 8
-200 26 -362 41 -162 15 -301 33 -309 39 -8 6 -141 118 -295 250 -317 269
-370 308 -475 349 -146 56 -155 57 -977 57 l-754 0 0 -50 0 -50 749 0 c830 0
845 -1 976 -63 38 -19 93 -51 120 -72 42 -32 530 -444 602 -508 20 -17 62 -24
320 -48 371 -35 435 -47 542 -100 175 -87 321 -276 346 -451 l7 -48 -64 0
c-51 0 -72 -5 -98 -22 -50 -34 -72 -71 -77 -125 -8 -100 71 -173 189 -173 l58
0 0 -60 0 -60 -154 0 -153 0 -6 78 c-11 144 -71 268 -178 366 -59 55 -158 111
-216 122 -32 6 -33 6 -39 -37 -4 -24 -7 -46 -6 -49 0 -2 23 -12 51 -21 193
-66 318 -277 283 -479 -32 -188 -170 -327 -362 -362 -179 -34 -372 67 -457
239 -32 65 -37 86 -41 163 -6 115 19 203 83 289 50 68 142 135 212 154 45 12
48 18 37 77 -7 30 -9 32 -40 27 -59 -10 -162 -68 -224 -126 -106 -100 -170
-239 -170 -372 l0 -69 -1085 0 -1085 0 0 43 c-1 177 -102 360 -254 459 -161
104 -387 109 -553 11 -139 -81 -242 -234 -263 -388 -6 -47 -8 -25 -9 103 -1
112 -5 173 -15 195 -14 36 -69 87 -92 87 -8 0 -14 10 -14 24 0 53 6 56 100 56
124 0 120 -7 120 223 0 213 -1 217 -77 217 l-45 0 8 32 c3 18 74 176 157 350
l150 318 233 0 234 0 0 50 0 50 -258 0 c-234 0 -260 -2 -274 -17z m-228 -1003
l0 -120 -44 0 -44 0 13 63 c7 34 18 88 25 120 9 46 15 57 31 57 18 0 19 -8 19
-120z m616 -331 c232 -42 396 -271 355 -497 -33 -187 -176 -330 -364 -362
-231 -41 -463 132 -497 368 -32 225 117 438 340 488 71 16 94 16 166 3z m-732
-81 c13 -18 16 -56 16 -210 l0 -188 -59 0 c-70 0 -60 -22 -91 210 -11 85 -23
167 -26 183 l-6 27 76 0 c66 0 77 -3 90 -22z m4746 -118 l0 -60 -55 0 c-61 0
-95 22 -95 62 0 40 28 58 92 58 l58 0 0 -60z"/>
<path d="M855 2217 c-137 -46 -210 -144 -209 -282 0 -87 32 -154 100 -214 76
-67 170 -86 274 -55 75 22 162 109 184 184 31 104 12 198 -55 274 -75 85 -199
124 -294 93z m127 -97 c76 -21 138 -102 138 -180 0 -19 -9 -53 -19 -75 -45
-98 -151 -139 -246 -96 -154 70 -146 290 12 346 47 17 67 18 115 5z"/>
<path d="M913 3534 c-12 -5 -233 -513 -233 -537 0 -7 8 -21 18 -30 17 -15 66
-17 499 -17 463 0 481 1 497 19 17 19 17 31 -8 273 -14 139 -26 256 -26 260 0
4 -7 14 -16 22 -13 14 -60 16 -367 15 -194 0 -357 -3 -364 -5z m670 -271 c10
-98 17 -186 17 -195 0 -17 -26 -18 -396 -18 -325 0 -395 2 -391 13 3 8 40 95
83 195 l77 182 296 0 297 0 17 -177z"/>
<path d="M1780 3520 c-17 -31 35 -528 57 -552 15 -17 69 -18 858 -18 823 0
842 0 860 20 11 12 15 27 11 42 -6 24 -326 329 -405 386 -62 45 -141 85 -226
113 -69 23 -74 24 -607 27 l-537 3 -11 -21z m1081 -94 c141 -30 233 -89 424
-271 l110 -104 -740 2 -740 2 -17 155 c-9 85 -17 172 -17 193 l-1 37 458 0
c352 0 472 -4 523 -14z"/>
<path d="M4389 2777 c-94 -66 -87 -212 14 -264 41 -21 150 -28 204 -14 120 33
157 175 68 261 -36 35 -36 35 -143 38 -100 3 -109 1 -143 -21z m227 -102 c15
-23 15 -27 0 -50 -20 -30 -51 -39 -118 -33 -53 6 -78 25 -78 59 0 36 28 49
105 49 68 0 76 -2 91 -25z"/>
<path d="M2030 2710 l0 -50 195 0 195 0 0 50 0 50 -195 0 -195 0 0 -50z"/>
<path d="M4095 2217 c-137 -46 -210 -144 -209 -282 0 -87 32 -154 100 -214 76
-67 170 -86 274 -55 75 22 162 109 184 184 31 104 12 198 -55 274 -75 85 -199
124 -294 93z m127 -97 c76 -21 138 -102 138 -180 0 -19 -9 -53 -19 -75 -45
-98 -151 -139 -246 -96 -154 70 -146 290 12 346 47 17 67 18 115 5z"/>
</g>
</svg>
