<?xml version="1.0" standalone="no"?>
<!DOCTYPE svg PUBLIC "-//W3C//DTD SVG 20010904//EN"
 "http://www.w3.org/TR/2001/REC-SVG-20010904/DTD/svg10.dtd">
<svg version="1.0" xmlns="http://www.w3.org/2000/svg"
 width="512.000000pt" height="512.000000pt" viewBox="0 0 512.000000 512.000000"
 preserveAspectRatio="xMidYMid meet">

<g transform="translate(0.000000,512.000000) scale(0.100000,-0.100000)"
fill="#000000" stroke="none">
<path d="M2370 5114 c-19 -2 -78 -9 -130 -15 -791 -90 -1522 -586 -1924 -1305
-146 -262 -252 -587 -297 -914 -20 -143 -18 -527 4 -670 90 -586 331 -1065
738 -1467 63 -62 155 -145 204 -185 642 -513 1493 -684 2290 -461 929 260
1646 1043 1819 1987 156 845 -103 1682 -705 2285 -399 398 -879 639 -1449 726
-100 15 -472 28 -550 19z m405 -154 c566 -52 1080 -294 1485 -700 278 -277
462 -574 585 -945 166 -498 166 -1013 0 -1510 -124 -372 -307 -668 -585 -945
-279 -280 -587 -470 -956 -590 -885 -287 -1847 -43 -2488 631 -793 834 -887
2100 -226 3045 289 413 724 736 1211 898 321 107 648 146 974 116z"/>
<path d="M2425 4814 c-995 -66 -1823 -760 -2059 -1725 -61 -250 -78 -586 -42
-833 59 -411 226 -797 480 -1112 71 -89 99 -104 144 -80 38 21 3109 3096 3116
3122 12 39 -12 72 -106 145 -333 259 -703 414 -1118 468 -89 12 -330 20 -415
15z m433 -169 c338 -48 684 -189 949 -387 l72 -54 -332 -332 -332 -332 -875 7
-875 6 -29 -25 c-37 -32 -40 -82 -7 -110 22 -17 52 -18 520 -18 273 0 635 -3
804 -7 l308 -6 -58 -59 -57 -58 -770 0 -770 0 -23 -22 c-13 -12 -23 -31 -23
-42 0 -102 -89 -196 -184 -196 -22 0 -45 -9 -63 -24 l-28 -24 0 -402 0 -402
28 -24 c18 -15 41 -24 63 -24 95 0 184 -94 184 -194 0 -11 10 -30 22 -43 18
-19 32 -23 82 -23 l60 0 -59 -60 -59 -60 -223 0 -223 0 0 829 0 829 101 4 c92
3 103 5 120 27 25 30 24 76 -1 101 -18 18 -33 20 -174 20 l-155 0 -20 -26
c-21 -27 -21 -31 -21 -954 0 -923 0 -927 21 -954 l20 -26 202 0 202 0 -169
-169 -169 -170 -47 62 c-352 466 -492 1089 -375 1674 130 646 563 1199 1165
1487 366 175 788 238 1198 181z m-623 -2085 l-560 -560 -85 0 -85 0 -29 61
c-43 94 -121 159 -228 193 -17 5 -18 28 -18 306 0 278 1 301 18 306 121 38
214 127 246 237 5 16 45 17 653 17 l648 0 -560 -560z"/>
<path d="M1686 2608 c-22 -31 -20 -74 3 -97 27 -27 73 -34 197 -29 102 3 107
5 130 31 29 34 30 56 3 91 l-20 26 -149 0 c-142 0 -150 -1 -164 -22z"/>
<path d="M4175 4059 c-32 -18 -3095 -3081 -3111 -3111 -24 -45 -9 -73 80 -144
319 -256 700 -421 1112 -480 159 -23 447 -23 609 0 1009 143 1788 922 1931
1931 23 162 23 450 0 609 -55 385 -204 748 -426 1041 -120 159 -147 180 -195
154z m175 -389 c153 -243 260 -547 301 -850 19 -137 16 -410 -6 -555 -77 -526
-336 -988 -746 -1331 -289 -241 -655 -402 -1044 -459 -145 -22 -418 -25 -555
-6 -361 48 -697 182 -982 391 l-77 56 332 332 332 332 891 0 c862 0 891 1 908
19 25 27 24 78 -3 104 l-22 22 -811 3 -812 2 59 60 59 60 775 0 775 0 23 22
c14 13 23 33 23 53 0 45 44 126 84 153 18 12 57 27 86 31 31 5 60 17 73 30 22
21 22 25 22 421 0 396 0 400 -22 421 -13 13 -42 25 -73 30 -29 4 -68 19 -86
31 -39 26 -84 108 -84 152 0 17 -9 40 -22 53 -18 19 -31 23 -87 23 l-65 0 59
60 59 60 223 0 223 0 0 -829 0 -829 -94 -4 c-75 -2 -98 -7 -115 -22 -27 -25
-28 -79 -1 -106 18 -18 33 -20 169 -20 l150 0 20 26 c21 27 21 31 21 954 0
923 0 927 -21 954 l-20 26 -202 0 -202 0 169 169 169 170 47 -62 c26 -34 71
-100 100 -147z m-701 -605 c30 -73 96 -139 176 -177 l65 -30 0 -298 0 -298
-65 -30 c-80 -38 -146 -104 -176 -177 l-23 -55 -650 0 -651 0 560 560 560 560
91 0 90 0 23 -55z"/>
<path d="M3101 2604 c-27 -35 -26 -57 3 -91 23 -26 28 -28 130 -31 124 -5 170
2 197 29 23 23 25 66 3 97 -14 21 -22 22 -164 22 l-149 0 -20 -26z"/>
</g>
</svg>
