<svg xmlns="http://www.w3.org/2000/svg" xmlns:android="http://schemas.android.com/apk/res/android" width="24dp" height="24dp" viewportWidth="24" viewportHeight="24">
	<path d="M12,0A12,12 0,1 1,0 12,12 12,0 0,1 12,0ZM10.23,12.73h0.69a3.47,3.47 0,0 0,3.49 -2.53,0.23 0.23,0 0,1 0.27,-0.19h1.39a0.76,0.76 0,0 0,0.78 -0.73,0.75 0.75,0 0,0 -0.75,-0.79c-0.47,0 -1,0 -1.42,0a0.32,0.32 0,0 1,-0.24 -0.11c-0.15,-0.34 -0.28,-0.68 -0.43,-1h2a0.77,0.77 0,0 0,0.82 -0.67A0.75,0.75 0,0 0,16 5.81H8.07a0.79,0.79 0,0 0,-0.83 0.56,0.76 0.76,0 0,0 0.75,1h3a1.88,1.88 0,0 1,1.75 1.16H8a0.77,0.77 0,1 0,0 1.54h4.75A2,2 0,0 1,11 11.21H8.3a0.73,0.73 0,0 0,-0.72 0.47,0.75 0.75,0 0,0 0.16,0.85l0.17,0.18 4.09,4c0.41,0.41 0.82,0.82 1.24,1.22a0.77,0.77 0,0 0,1.29 -0.33,0.84 0.84,0 0,0 -0.28,-0.85L10.45,13Z" fill="#ffba00"/>
</svg>
