<svg width="52" height="21" viewBox="0 0 52 21" fill="none" xmlns="http://www.w3.org/2000/svg">
<g clip-path="url(#clip0_166_709)">
<path d="M0 18.8061C0 19.1861 2.73988 19.5506 7.61689 19.8194C12.4939 20.0881 19.1086 20.2391 26.0057 20.2391C32.9028 20.2391 39.5175 20.0881 44.3945 19.8194C49.2715 19.5506 52.0114 19.1861 52.0114 18.8061C52.0114 18.426 49.2715 18.0615 44.3945 17.7928C39.5175 17.524 32.9028 17.373 26.0057 17.373C19.1086 17.373 12.4939 17.524 7.61689 17.7928C2.73988 18.0615 0 18.426 0 18.8061Z" fill="#191919"/>
<path d="M50.4571 5.09469C50.5553 5.09469 50.6171 5.16494 50.6876 5.21818C50.6164 5.30691 50.5147 5.29212 50.4222 5.29212C49.5686 5.29212 48.7107 5.31874 47.8571 5.28325C47.3904 5.26328 46.9217 5.27955 46.4571 5.21892C46.4002 5.21152 46.3227 5.18934 46.2985 5.25367C46.2679 5.33501 46.354 5.36459 46.4052 5.40156C46.5632 5.51152 46.7271 5.612 46.8961 5.70251C47.1408 5.83339 47.1607 5.90438 47.0234 6.14617C46.7566 6.61793 46.4458 7.06086 46.1634 7.52226C45.8034 8.11381 45.4228 8.68909 45.0472 9.26955C44.8801 9.52614 44.8338 9.52909 44.5941 9.35755C42.6443 7.96962 40.6297 7.94596 38.601 9.12241C37.1398 9.9698 36.2421 11.2897 35.858 12.9845C35.7616 13.4373 35.7196 13.9007 35.7328 14.3643C35.7378 14.6963 35.6979 14.7399 35.3835 14.734C34.0682 14.7103 32.7515 14.8028 31.4383 14.7843C30.3201 14.7687 29.2011 14.7806 28.0829 14.7843C27.9146 14.7771 27.7461 14.7855 27.5792 14.8094C27.5404 14.8214 27.4995 14.8236 27.4597 14.8161C27.4199 14.8085 27.3824 14.7913 27.3502 14.7658C27.2613 14.5928 27.3011 14.4057 27.3231 14.2312C27.3649 13.8517 27.3863 13.47 27.3872 13.088C27.3985 12.3293 27.4412 11.5729 27.4491 10.8142C27.4647 9.42779 27.4754 8.03839 27.7073 6.66526C27.7605 6.32824 27.8378 5.99581 27.9385 5.67071C27.9939 5.44888 28.1519 5.38751 28.351 5.38233C28.7921 5.37124 29.2317 5.31579 29.6742 5.34093C29.7538 5.34738 29.834 5.3381 29.9103 5.31357C29.9633 5.29968 30.0179 5.29346 30.0725 5.29508C30.6864 5.26107 31.2989 5.19748 31.9142 5.19748C32.0565 5.19748 32.2045 5.22262 32.3453 5.17012C32.6789 5.13684 33.0147 5.12945 33.3483 5.1117C34.4751 5.05402 35.6012 4.98748 36.728 4.93276C37.1057 4.91501 37.4834 4.87878 37.8661 4.88174C38.4352 4.85733 39.0093 4.91575 39.5798 4.83959C39.6812 4.82667 39.784 4.84466 39.8757 4.89135C39.986 4.94902 39.981 5.0592 39.9959 5.16494C40.0941 5.86519 39.9874 6.5573 39.9298 7.25163C39.9098 7.49047 39.8458 7.72783 39.8778 7.96667C39.9198 7.97702 39.9369 7.95779 39.9397 7.93709C39.9952 7.50821 40.0571 7.08082 40.0898 6.64973C40.1365 6.09807 40.1299 5.54293 40.0699 4.99265C40.05 4.82332 40.1325 4.74642 40.2833 4.75233C40.6781 4.7686 41.0658 4.69762 41.4642 4.70057C42.0389 4.70057 42.5959 4.58596 43.1465 4.42772C43.3727 4.35925 43.5743 4.22293 43.7263 4.03582C43.9162 3.81399 43.9069 3.58107 43.6999 3.37033C43.5136 3.18325 43.2731 3.07455 43.0597 2.9385C42.2573 2.45047 41.4044 2.0704 40.5451 1.70586C40.2122 1.56462 39.8558 1.59124 39.5093 1.54836C39.133 1.50177 38.7525 1.49216 38.3769 1.43079C38.0454 1.36424 37.7096 1.42635 37.3746 1.38346C37.0189 1.33688 36.6518 1.28659 36.2862 1.31617C35.6837 1.35314 35.0826 1.28733 34.4815 1.26663C34.1344 1.25554 33.7879 1.21709 33.4401 1.22966C32.0978 1.16311 30.7519 1.20748 29.4095 1.12836C29.2443 1.0961 29.0759 1.08517 28.908 1.09582C28.4044 1.09582 27.9001 1.09064 27.3964 1.08769C27.3087 1.0811 27.2206 1.09061 27.1361 1.11579C26.4309 1.15079 25.7271 1.206 25.0248 1.28142C25.0018 1.29033 24.9779 1.29653 24.9536 1.2999C24.8632 1.30415 24.7731 1.31453 24.684 1.33096C24.664 1.33737 24.6435 1.34231 24.6228 1.34575C24.5622 1.35064 24.5022 1.36154 24.4436 1.37829C24.415 1.38693 24.3857 1.39263 24.3561 1.39529C24.2985 1.39642 24.2414 1.40537 24.1861 1.42191C24.1679 1.42783 24.1494 1.43228 24.1306 1.43522C24.0742 1.43987 24.0184 1.45053 23.9641 1.46702C23.9462 1.47317 23.9279 1.47787 23.9094 1.48107C23.8534 1.48205 23.7987 1.49838 23.7507 1.52839C23.6971 1.57486 23.6338 1.60754 23.5658 1.62378C23.5154 1.63159 23.4671 1.64968 23.4235 1.67702C21.2074 2.75945 19.0761 4.02033 17.0491 5.44814C16.7143 5.68156 16.3938 5.93642 16.0894 6.21124C15.6356 6.62311 15.3866 7.15329 15.2899 7.76406C15.1227 8.82589 15.117 9.8929 15.1796 10.9636C15.1924 11.1943 15.27 11.4435 15.1156 11.6631C14.9961 11.5892 15.0331 11.4642 15.0302 11.3585C15.026 11.2246 14.9698 11.1655 14.8431 11.1721C14.6219 11.1832 14.3929 11.1278 14.1844 11.2512C14.0727 11.2623 14.0422 11.164 13.9888 11.0952C13.1231 9.91952 11.997 9.17269 10.5864 8.95751C8.914 8.70314 7.4287 9.17934 6.13972 10.3055C5.10612 11.2113 4.48155 12.3759 4.20626 13.7417C4.1586 13.9798 4.14722 14.2238 4.11521 14.4648C4.07893 14.7406 4.04407 14.7436 3.77802 14.7747C2.82766 14.8885 1.87942 14.7281 0.932608 14.7665C0.83794 14.7653 0.74358 14.778 0.652334 14.8042C0.646643 14.3975 0.611075 13.9909 0.749078 13.5938C0.840553 13.3617 0.902952 13.1184 0.934742 12.8699C0.971021 12.4558 0.953948 12.0513 0.715644 11.6868C0.477341 11.3222 0.44035 10.8778 0.395535 10.4467C0.329885 9.85071 0.296872 9.2513 0.296657 8.65138C0.297224 8.54515 0.286005 8.43921 0.263223 8.33564C0.233346 8.19515 0.279584 8.13526 0.422566 8.13969C0.458232 8.14104 0.49377 8.13456 0.526864 8.12067C0.559957 8.10679 0.589864 8.0858 0.614632 8.05909C0.798902 7.8966 1.00715 7.76602 1.23138 7.67237C1.97688 7.34702 2.75367 7.10374 3.53332 6.87674C4.93001 6.45775 6.34803 6.1198 7.78082 5.86445C8.39969 5.75649 9.01573 5.62857 9.63745 5.5354C10.1788 5.4548 10.723 5.39269 11.2736 5.35424C12.002 5.30322 12.729 5.22705 13.456 5.15681C13.7825 5.12575 14.1076 5.08286 14.4334 5.04589C14.6874 5.06142 14.9136 5.17455 15.1448 5.27216C15.3326 5.35128 15.4784 5.32244 15.6498 5.19822C16.7076 4.44917 17.7988 3.75631 18.9071 3.0923C19.8568 2.52293 20.8327 2.00311 21.8023 1.47293C21.9126 1.4123 22.0271 1.3635 22.1409 1.311C22.1815 1.29251 22.2206 1.26441 22.2185 1.21191C22.2163 1.15941 22.1708 1.13797 22.131 1.12096C21.9467 1.02557 21.7312 1.04036 21.5491 0.93906C21.6259 0.85994 21.7333 0.852546 21.8272 0.816313C22.577 0.528672 23.3324 0.246208 24.1363 0.12568C24.7134 0.0304213 25.2977 -0.00992184 25.8819 0.00515139C26.5399 0.0317711 27.1987 0.0236373 27.8567 0.0347289C29.0475 0.0554331 30.239 0.0805739 31.4305 0.0997993C32.213 0.113109 32.9955 0.119025 33.778 0.130116C34.7283 0.144165 35.6787 0.15156 36.6291 0.178919C37.5062 0.20332 38.384 0.20332 39.2611 0.218109C41.0746 0.249165 42.8878 0.279236 44.7008 0.30832C44.8027 0.306773 44.9038 0.32848 44.9967 0.371912C45.1575 0.445856 45.3382 0.451032 45.511 0.476173C45.7472 0.511665 45.9556 0.62406 46.1691 0.719447C46.3049 0.779341 46.3462 0.987863 46.258 1.11505C46.216 1.19517 46.1528 1.26112 46.0759 1.30508C45.5118 1.39455 44.9377 1.32505 44.375 1.40638C44.3608 1.40638 44.3458 1.40638 44.3309 1.40638C44.1822 1.42709 43.9823 1.40195 43.939 1.58237C43.8956 1.76279 44.1011 1.79089 44.21 1.85744C45.59 2.69522 46.9551 3.55814 48.3565 4.35748C48.6864 4.53658 49.0355 4.67482 49.3965 4.76934C49.7291 4.85718 50.0557 4.96835 50.3739 5.10209C50.3873 5.10791 50.4019 5.11028 50.4164 5.10899C50.4308 5.1077 50.4448 5.1028 50.4571 5.09469Z" fill="#797979"/>
<path d="M27.3829 14.7562C28.9158 14.6763 30.4509 14.7332 31.9853 14.7103C32.3581 14.7044 32.7315 14.7236 33.1036 14.7044C33.8989 14.6637 34.6949 14.6785 35.4909 14.6697C35.6751 14.6697 35.6822 14.6645 35.6737 14.4552C35.6473 13.8252 35.7193 13.1949 35.8871 12.5889C36.0999 11.8292 36.4561 11.1211 36.9349 10.5059C37.261 10.0758 37.6442 9.69615 38.0731 9.37825C38.7766 8.8558 39.5802 8.49716 40.4291 8.32677C40.9315 8.22522 41.4453 8.19858 41.9549 8.24765C42.9579 8.3333 43.9156 8.71848 44.7129 9.3568C44.8438 9.4618 44.8487 9.46032 44.9384 9.31909C45.626 8.23458 46.3125 7.15008 46.9977 6.06557C47.1094 5.8881 47.1051 5.86592 46.9266 5.78015C46.7121 5.6661 46.5034 5.54072 46.3013 5.40451C46.2759 5.38933 46.2521 5.37149 46.2302 5.35127C46.1925 5.31504 46.1541 5.27733 46.1711 5.21448C46.1882 5.15163 46.238 5.14053 46.2914 5.1361C46.3348 5.13017 46.3788 5.13017 46.4222 5.1361C46.7068 5.19673 46.9913 5.1605 47.2759 5.17825C48.3785 5.24627 49.4811 5.20265 50.5844 5.21818C50.6207 5.21818 50.6555 5.21448 50.6932 5.21226C50.7786 5.22853 50.7964 5.32761 50.8654 5.36015C50.8305 5.47846 50.7295 5.46219 50.6484 5.46219C49.5814 5.46663 48.5143 5.47328 47.4516 5.46219C47.2382 5.46219 47.0333 5.40377 46.785 5.43631C47.2168 5.65814 47.6216 5.85705 48.0584 5.97906C48.5014 6.10781 48.9574 6.18226 49.417 6.20089C49.5342 6.2085 49.6515 6.18722 49.7592 6.13877C49.8131 6.11807 49.8594 6.08017 49.8913 6.0305C49.9232 5.98083 49.9393 5.92193 49.937 5.86222C49.937 5.5842 49.9925 5.52134 50.2572 5.52874C50.5004 5.53465 50.7551 5.4548 50.9863 5.59455L51.029 5.64631C51.1001 5.7942 51.0012 5.81638 50.9024 5.82673C50.7494 5.84226 50.5951 5.83191 50.4421 5.83265C50.3985 5.82731 50.3546 5.83973 50.3196 5.86729C50.2846 5.89486 50.2612 5.93544 50.2543 5.98053C50.149 6.36134 49.9619 6.50258 49.5721 6.5181C48.8919 6.53386 48.2152 6.41102 47.5803 6.15652C47.4181 6.09441 47.3264 6.12546 47.2332 6.26965C46.5524 7.32261 45.9001 8.39553 45.2122 9.44406C45.134 9.56458 45.134 9.65553 45.2357 9.76349C46.1605 10.7381 46.6228 11.9226 46.7039 13.2773C46.7125 13.4252 46.7331 13.5065 46.9045 13.4777C47.5045 13.3791 48.0987 13.2541 48.6872 13.1028C49.1745 12.9778 49.5344 12.6347 49.9292 12.3523C50.2607 12.1149 50.5737 11.8531 50.8988 11.6069C50.9842 11.5418 51.0311 11.4457 51.1022 11.3703C51.1259 11.3408 51.1576 11.3194 51.193 11.3087C51.2285 11.2981 51.2663 11.2986 51.3014 11.3104C51.3882 11.34 51.3683 11.4191 51.3655 11.4842C51.3576 11.7104 51.3896 11.9382 51.3484 12.1637C51.3516 12.1778 51.3516 12.1925 51.3484 12.2066C51.2851 12.4476 51.3598 12.6976 51.3064 12.9394C51.3096 12.9532 51.3096 12.9677 51.3064 12.9815C51.2438 13.1612 51.3192 13.3512 51.2651 13.5324C51.2796 13.6702 51.2635 13.8095 51.2182 13.9398C51.1735 14.1078 51.0726 14.2536 50.9337 14.351C50.7351 14.5132 50.5202 14.6525 50.2927 14.7665C50.0344 14.8905 49.7676 14.9946 49.4946 15.0778C48.9404 15.2671 48.3856 15.4542 47.8158 15.5888C47.5665 15.6475 47.3117 15.6772 47.0561 15.6775C46.7132 15.6775 46.3703 15.6886 46.0282 15.6967C45.824 15.7012 45.8212 15.7019 45.7514 15.9053C45.4841 16.6967 45.0249 17.4032 44.4184 17.9564C44.2766 18.0872 44.1264 18.2078 43.9688 18.3173C43.4886 18.7757 42.9138 19.0035 42.2736 19.0693C42.2374 19.0693 42.2025 19.0641 42.1683 19.09C42.1545 19.0929 42.1405 19.0946 42.1264 19.0952C42.014 19.1514 41.8867 19.0752 41.7757 19.1395C41.4829 19.1658 41.1885 19.1658 40.8957 19.1395C40.7286 19.0737 40.5514 19.11 40.3793 19.09C39.8173 19.0249 39.33 18.7817 38.8584 18.4851C38.8328 18.4696 38.8051 18.4607 38.778 18.4467C37.9637 17.9222 37.3272 17.1468 36.957 16.2284C36.8616 15.991 36.7343 15.9141 36.496 15.9186C35.8231 15.9326 35.1487 15.8919 34.4779 15.9311C33.5126 15.9873 32.5466 15.9245 31.5834 15.9785C30.7134 16.0273 29.8427 15.9703 28.9749 16.0221C28.0679 16.0761 27.1609 16.0154 26.2568 16.0694C25.3526 16.1234 24.4428 16.0598 23.538 16.113C22.5876 16.1692 21.6365 16.1056 20.6883 16.1604C19.7593 16.2151 18.8302 16.153 17.9041 16.2032C16.8733 16.2594 15.8411 16.2276 14.8118 16.2439C14.6361 16.2439 14.4639 16.289 14.2882 16.2942C14.1424 16.2979 14.0976 16.414 14.0535 16.5293C13.7964 17.212 13.3936 17.8251 12.8755 18.3225C12.7131 18.4872 12.5342 18.6334 12.342 18.7587C12.0327 18.9716 11.705 19.1541 11.3631 19.3037C11.0261 19.4478 10.6655 19.5231 10.3011 19.5255C10.2584 19.5255 10.2129 19.513 10.1766 19.5485C9.81118 19.5865 9.443 19.5865 9.07757 19.5485C8.72687 19.5085 8.37048 19.5019 8.03757 19.3525C7.80652 19.2618 7.58127 19.1558 7.3632 19.0353C7.29267 18.9952 7.23372 18.9362 7.19248 18.8645C6.32051 18.3072 5.64432 17.4728 5.264 16.485C5.20069 16.3216 5.16583 16.3171 5.02925 16.431C4.99747 16.4618 4.9621 16.4884 4.92397 16.5101C4.80944 16.5663 4.71697 16.5323 4.69207 16.4022C4.67286 16.3045 4.63801 16.2764 4.5498 16.2787C4.01652 16.2864 3.48354 16.2481 2.95636 16.1641C2.59429 16.1116 2.23149 16.0798 1.87013 16.0317C1.49738 15.9822 1.16944 15.8202 0.954613 15.4749C0.942236 15.4478 0.923632 15.4242 0.900437 15.4063C0.877242 15.3883 0.850166 15.3766 0.82159 15.3721C0.792299 15.3696 0.764469 15.3578 0.741924 15.3382C0.719378 15.3186 0.703224 15.2922 0.69568 15.2627C0.639483 15.1296 0.714887 14.9824 0.652288 14.8508C0.648212 14.8368 0.648212 14.8219 0.652288 14.8079C0.675051 14.734 0.692124 14.6652 0.799538 14.6911C0.893539 14.7073 0.988854 14.7137 1.08408 14.7103C1.7243 14.7259 2.36807 14.7362 3.00972 14.7562C3.3092 14.7658 3.60583 14.7014 3.90531 14.7177C3.99494 14.7222 4.0298 14.683 4.04331 14.5876C4.08671 14.2733 4.09951 13.9546 4.16709 13.6433C4.37963 12.6158 4.84008 11.6613 5.50515 10.8697C6.00626 10.2747 6.61513 9.78799 7.29705 9.4374C7.89337 9.13232 8.53683 8.93908 9.19779 8.86656C10.2185 8.74355 11.2515 8.93512 12.1684 9.41744C12.9367 9.81649 13.5969 10.4087 14.0891 11.1403C14.114 11.1766 14.1424 11.2143 14.1702 11.2461C14.3501 11.3592 14.412 11.5625 14.5059 11.7378C14.6761 12.0741 14.8134 12.4274 14.9157 12.7922C14.9277 12.8514 14.9434 12.9091 14.959 12.9675C14.9734 13.0319 14.9796 13.098 14.9775 13.1642C15.0288 13.6433 15.1056 14.1188 15.1099 14.6024C15.1076 14.6271 15.1106 14.6521 15.1186 14.6756C15.1266 14.699 15.1395 14.7203 15.1563 14.738C15.1732 14.7557 15.1935 14.7694 15.216 14.778C15.2384 14.7866 15.2624 14.79 15.2863 14.788C15.3453 14.788 15.4036 14.788 15.462 14.788C16.3455 14.788 17.2297 14.7991 18.1132 14.788C19.0337 14.7732 19.9563 14.9225 20.8697 14.8227C22.1537 14.6815 23.4363 14.7636 24.7181 14.7569C25.3733 14.7569 26.0306 14.7843 26.6864 14.7931C26.9198 14.7887 27.1481 14.6941 27.3829 14.7562Z" fill="#363636"/>
<path d="M51.342 12.1622C51.3135 11.9655 51.3519 11.7681 51.337 11.5707C51.3313 11.4908 51.3939 11.3703 51.2659 11.3422C51.162 11.3193 51.1087 11.3991 51.0809 11.4945C51.067 11.5379 51.0394 11.5752 51.0027 11.6003C50.6555 11.865 50.3086 12.1297 49.962 12.3944C49.8033 12.5157 49.6404 12.631 49.4853 12.7575C49.2278 12.959 48.9331 13.1032 48.6196 13.1812C48.0128 13.3446 47.394 13.4511 46.7765 13.5605C46.6648 13.5805 46.6478 13.5605 46.6421 13.4208C46.6306 13.0572 46.5882 12.6955 46.5154 12.3397C46.3507 11.5347 45.9991 10.7838 45.4911 10.1524C45.3787 10.012 45.2627 9.87664 45.1397 9.74724C45.0166 9.61784 45.0259 9.62449 45.1155 9.484C45.4475 8.959 45.782 8.43424 46.1192 7.90974C46.4616 7.37143 46.8028 6.83287 47.1429 6.29407C47.167 6.25562 47.1912 6.22012 47.214 6.18093C47.3356 6.00051 47.3399 6.00199 47.5327 6.07667C48.1664 6.33217 48.8405 6.46233 49.5202 6.46044C49.6445 6.45751 49.7675 6.4325 49.8837 6.3865C49.9751 6.358 50.0551 6.29924 50.1115 6.21916C50.1679 6.13908 50.1975 6.04205 50.196 5.94284C50.2031 5.77055 50.2081 5.76907 50.3738 5.76981C50.5396 5.77055 50.7245 5.76981 50.8995 5.7772C50.9963 5.78164 51.0333 5.74023 51.024 5.6441C51.0717 5.66851 51.0745 5.71805 51.0774 5.7602C51.0909 5.96428 51.1094 6.16836 51.1136 6.37245C51.1343 7.28196 51.1471 8.19146 51.1713 9.10023C51.1812 9.48622 51.2132 9.87146 51.2353 10.2574C51.2325 10.2879 51.2358 10.3185 51.245 10.3475C51.2542 10.3765 51.2691 10.4033 51.2886 10.426C51.3939 10.5229 51.396 10.6479 51.3932 10.7802C51.3854 11.167 51.384 11.5529 51.3775 11.9397C51.3888 12.0159 51.3763 12.0939 51.342 12.1622Z" fill="#808080"/>
<path d="M21.5434 0.937598C21.7675 0.922809 21.9702 1.00489 22.1836 1.07439C22.2498 1.09658 22.3117 1.12911 22.3166 1.20675C22.3216 1.28439 22.2583 1.33098 22.1943 1.35094C21.8486 1.4796 21.5398 1.68443 21.2147 1.85598C19.9343 2.53478 18.6821 3.26658 17.4581 4.05137C16.9167 4.39668 16.3911 4.7627 15.8504 5.11098C15.7395 5.18492 15.637 5.26552 15.5296 5.3476C15.5026 5.3734 15.4693 5.39109 15.4333 5.39877C15.3974 5.40645 15.3601 5.40385 15.3254 5.39122C15.0281 5.27144 14.7194 5.18344 14.4291 5.04221C14.4946 4.98971 14.5828 5.05626 14.6468 4.99563C14.8766 4.86475 15.1063 4.73313 15.3262 4.58302C16.7169 3.63432 18.1175 2.71594 19.5914 1.92253C20.2331 1.57277 20.8847 1.24816 21.5434 0.937598Z" fill="#363636"/>
<path d="M50.4571 5.09471C50.4454 5.10941 50.4295 5.11985 50.4117 5.12451C50.3939 5.12916 50.3752 5.12779 50.3582 5.12059C49.8339 4.96013 49.3054 4.81373 48.7875 4.63256C48.407 4.49947 48.0648 4.26802 47.7155 4.0632C46.9594 3.61954 46.2139 3.15443 45.4648 2.69746C44.974 2.39823 44.4834 2.09778 43.993 1.79609C43.9219 1.75098 43.8109 1.72214 43.8386 1.60531C43.8506 1.54913 43.8785 1.49797 43.9187 1.45842C43.9588 1.41888 44.0095 1.39277 44.0641 1.38348C44.2795 1.3434 44.4972 1.31869 44.7157 1.30954C45.0999 1.2733 45.489 1.30954 45.8745 1.25852C45.9414 1.2489 46.0225 1.22302 46.0759 1.30214C45.972 1.44781 45.8112 1.51214 45.669 1.62675C45.7095 1.69011 45.7654 1.74114 45.8312 1.77464C47.1984 2.75711 48.5656 3.74031 49.9328 4.72425C50.0609 4.81668 50.1718 4.93647 50.3056 5.02003C50.3496 5.05712 50.4016 5.08273 50.4571 5.09471Z" fill="#363636"/>
<path d="M50.9828 5.59455C50.7203 5.59455 50.4571 5.58642 50.1946 5.58716C49.9968 5.58716 49.9598 5.63448 49.9904 5.83043C50.0246 6.04339 49.9762 6.1336 49.7877 6.2142C49.57 6.30737 49.3395 6.29332 49.1183 6.26226C48.6987 6.21689 48.2843 6.12998 47.8806 6.00272C47.472 5.86449 47.078 5.68338 46.7047 5.46219C46.6755 5.44519 46.6335 5.43631 46.6385 5.37272C46.8455 5.37272 47.0547 5.35867 47.261 5.37864C47.3691 5.38899 47.4744 5.40452 47.5861 5.40526C48.5933 5.40526 49.6006 5.40674 50.6079 5.40969C50.6925 5.40969 50.7843 5.43853 50.8597 5.36902C50.9628 5.40748 50.9415 5.51913 50.9828 5.59455Z" fill="#8D2B2B"/>
<path d="M50.2928 14.7665C50.435 14.6586 50.5773 14.5447 50.7281 14.4434C50.916 14.3058 51.079 14.1348 51.2097 13.9384C51.2744 14.0411 51.2325 14.1306 51.1642 14.2023C50.9279 14.4686 50.6268 14.6636 50.2928 14.7665Z" fill="#7A8080"/>
<path d="M51.2986 12.9401C51.2936 12.6946 51.2616 12.4477 51.3406 12.2073C51.3626 12.4524 51.3485 12.6995 51.2986 12.9401Z" fill="#808080"/>
<path d="M51.2545 13.5317C51.2424 13.3461 51.2218 13.162 51.2958 12.9808C51.3142 13.1655 51.3002 13.3522 51.2545 13.5317Z" fill="#808080"/>
<path d="M0.651627 14.8508C0.722762 14.9817 0.692886 15.1237 0.69502 15.2627C0.625307 15.1318 0.640245 14.9906 0.651627 14.8508Z" fill="#797979"/>
<path d="M41.7736 19.1396C41.8838 19.0693 42.004 19.0841 42.1243 19.0952C42.0153 19.1499 41.892 19.1655 41.7736 19.1396Z" fill="#8F8F8F"/>
<path d="M14.6539 4.99492C14.592 5.06887 14.5116 5.05334 14.4362 5.04151C14.5003 4.99732 14.5783 4.98062 14.6539 4.99492Z" fill="#797979"/>
<path d="M14.9178 13.1102L14.9128 12.9394C14.8773 12.8987 14.9128 12.8359 14.8709 12.7974C14.7997 12.6081 14.7243 12.4203 14.6575 12.2288C14.5387 11.8761 14.3359 11.5707 14.1666 11.2461C14.1873 11.13 14.2755 11.1137 14.3644 11.1115C14.56 11.1071 14.7571 11.1115 14.9527 11.1115C15.0608 11.1115 15.0829 11.1662 15.09 11.2653C15.0985 11.3969 15.0423 11.5374 15.1319 11.6594C15.1945 11.7215 15.1903 11.8029 15.1945 11.8813C15.1945 12.0469 15.1739 12.2133 15.2159 12.3774C15.2257 12.4146 15.2317 12.4528 15.2337 12.4913C15.2465 12.6562 15.2066 12.8255 15.2749 12.9852C15.3681 13.3779 15.3567 13.7838 15.4172 14.1802C15.4357 14.3022 15.4392 14.4279 15.5353 14.5262C15.5125 14.2186 15.4641 13.9162 15.4435 13.6108C15.3845 12.7871 15.282 11.9648 15.2906 11.1374C15.2948 10.6937 15.2273 10.2597 15.2408 9.81823C15.2635 9.06031 15.2721 8.3009 15.4371 7.55629C15.5545 7.02686 15.8298 6.59502 16.2068 6.23122C16.3554 6.08154 16.552 5.99435 16.7588 5.98647C17.6836 5.94506 18.6083 5.90439 19.5331 5.8445C20.0147 5.83045 20.4963 5.80013 20.9764 5.76168C21.2033 5.74319 21.4296 5.75133 21.6558 5.75576C21.7434 5.7619 21.8314 5.75265 21.9161 5.7284C22.0078 5.71056 22.1011 5.70337 22.1943 5.70696C22.3991 5.70696 22.6054 5.73506 22.8082 5.68182C22.8984 5.66434 22.9903 5.65789 23.082 5.66259C23.3047 5.65742 23.5288 5.69291 23.7493 5.6308C24.7366 5.56819 25.7245 5.51668 26.7128 5.47626C27.0009 5.47626 27.2897 5.48365 27.5778 5.46221C27.7051 5.45333 27.8132 5.46221 27.8225 5.63376C27.7208 6.19203 27.5664 6.74291 27.5131 7.30858C27.4611 7.85946 27.427 8.41182 27.3957 8.96418C27.343 9.90474 27.3886 10.846 27.3466 11.7851C27.3039 12.739 27.3245 13.6966 27.2043 14.6453C27.1574 14.7932 27.0258 14.7688 26.9269 14.771C26.3199 14.7828 25.7133 14.7828 25.1073 14.771C24.3703 14.7562 23.6319 14.7436 22.8949 14.7791C21.8514 14.7377 20.8121 14.8826 19.7693 14.8531C18.2662 14.8072 16.7624 14.8397 15.2586 14.8346C15.1028 14.8346 15.0615 14.785 15.0651 14.6283C15.0708 14.1181 15.0214 13.6089 14.9178 13.1102Z" fill="#808080"/>
<path d="M38.3939 1.39089C38.8506 1.43377 39.3066 1.48849 39.7647 1.51585C40.0727 1.53508 40.3758 1.55652 40.6624 1.6874C41.0565 1.86708 41.4449 2.05194 41.844 2.22867C42.41 2.49215 42.9589 2.79374 43.4872 3.13152C43.6092 3.20108 43.7198 3.29016 43.8152 3.3955C43.8912 3.48412 43.9333 3.59874 43.9333 3.71752C43.9333 3.83631 43.8912 3.95093 43.8152 4.03955C43.6166 4.28589 43.3465 4.45868 43.0455 4.53201C42.4991 4.67029 41.95 4.77603 41.3845 4.77159C41.0053 4.77159 40.6283 4.82927 40.2463 4.82039C40.1083 4.82039 40.109 4.84036 40.1197 4.98455C40.151 5.41342 40.2178 5.83934 40.1595 6.27413C40.1239 6.54254 40.1439 6.81835 40.1069 7.08751C40.0596 7.37886 40.0268 7.67256 40.0087 7.96744C40.0053 8.00482 39.9928 8.0407 39.9724 8.0717C39.9626 8.09241 39.9462 8.10892 39.9259 8.11837C39.9056 8.12782 39.8828 8.12962 39.8614 8.12346C39.8437 8.1177 39.828 8.10651 39.8164 8.09133C39.8049 8.07616 39.798 8.05772 39.7967 8.03842C39.791 7.97028 39.791 7.90174 39.7967 7.8336C39.8316 7.49568 39.8821 7.15849 39.9048 6.81909C39.9376 6.32884 40.0179 5.83934 39.9383 5.34687C39.9169 5.21451 39.971 5.0718 39.8842 4.9498C39.7675 4.8448 39.6203 4.78638 39.4994 4.68656C39.2326 4.28652 39.0256 3.84951 38.7937 3.42951C38.4843 2.86458 38.1812 2.29226 37.9102 1.70071C37.8657 1.63041 37.8393 1.54947 37.8334 1.46557C37.8426 1.39163 37.8867 1.36722 37.9522 1.37092C38.0994 1.38127 38.2481 1.34874 38.3939 1.39089Z" fill="#363636"/>
<path d="M19.5231 5.90885C18.8615 5.95617 18.1986 5.98279 17.5363 6.01385C17.2823 6.02568 17.027 6.04491 16.7723 6.05082C16.5741 6.05563 16.3854 6.13957 16.2452 6.28522C15.7996 6.70875 15.513 7.28282 15.4364 7.90533C15.3261 8.70836 15.2885 9.52036 15.324 10.3307C15.3403 10.7396 15.3297 11.1492 15.3595 11.5574C15.3973 12.0706 15.4207 12.5845 15.4727 13.0962C15.5082 13.4422 15.5267 13.7905 15.5658 14.1366C15.5794 14.2504 15.6135 14.3584 15.637 14.4686C15.6555 14.5588 15.6661 14.6438 15.5559 14.6645C15.4456 14.6852 15.4172 14.598 15.4044 14.5122C15.3709 14.28 15.3396 14.0478 15.3147 13.8149C15.292 13.5931 15.2799 13.3772 15.2592 13.159C15.2536 13.0991 15.2365 13.04 15.2251 12.9808C15.1618 12.8159 15.2393 12.6385 15.181 12.4736V12.3878C15.1198 12.2229 15.1952 12.0454 15.1383 11.8798V11.658C15.1205 10.8305 15.0672 10.0031 15.0992 9.17568C15.1106 8.58437 15.1807 7.99586 15.3083 7.41952C15.4506 6.82797 15.7792 6.3747 16.2253 6.01459C17.3286 5.11248 18.5357 4.37082 19.7401 3.62325C20.8519 2.93336 22.0086 2.33293 23.1667 1.73399C23.2506 1.69036 23.3402 1.66005 23.4277 1.62086C23.464 1.58093 23.5245 1.62086 23.56 1.57649C23.6347 1.57649 23.6753 1.50994 23.7372 1.48554C23.7863 1.43526 23.8617 1.49072 23.9115 1.43896C23.9252 1.43747 23.939 1.43747 23.9527 1.43896C24.0054 1.39533 24.0779 1.44413 24.1305 1.39829C24.1444 1.39537 24.1584 1.39388 24.1725 1.39385C24.2252 1.34874 24.2984 1.39903 24.3504 1.3517L24.4329 1.34579C24.4876 1.30512 24.5609 1.35392 24.6136 1.30512C24.6273 1.30326 24.6411 1.30326 24.6548 1.30512C24.7373 1.25336 24.8383 1.31917 24.9209 1.26223C24.9343 1.26076 24.9479 1.26076 24.9614 1.26223C25.0098 1.23783 25.0681 1.21934 25.0959 1.27702C25.1236 1.3347 25.0774 1.37832 25.0411 1.41455C24.8735 1.57381 24.6965 1.72199 24.5111 1.85822C23.1453 2.93927 21.7902 4.03438 20.4749 5.18568C20.2572 5.37572 20.0481 5.57463 19.8297 5.76762C19.74 5.83975 19.6348 5.88821 19.5231 5.90885Z" fill="#363636"/>
<path d="M37.864 4.94833C37.1796 4.98382 36.496 5.02227 35.811 5.05333C35.2419 5.07773 34.6764 5.11101 34.1087 5.1428C33.5197 5.17608 32.9314 5.22784 32.3403 5.22784C32.25 5.25298 32.1233 5.29143 32.0814 5.21083C32.033 5.11692 32.1525 5.04372 32.2165 4.97717C32.9471 4.21481 33.6705 3.44432 34.4153 2.69675C34.8706 2.23977 35.35 1.80942 35.8195 1.36576C35.9725 1.22231 36.1532 1.29995 36.3218 1.27851C36.3942 1.28406 36.467 1.28406 36.5394 1.27851C36.7735 1.23932 36.93 1.33766 37.0246 1.55653C37.361 2.62946 37.6463 3.71791 37.9166 4.81006C37.9176 4.83564 37.9134 4.86115 37.9043 4.88496C37.8953 4.90877 37.8815 4.93035 37.864 4.94833Z" fill="#363636"/>
<path d="M29.3981 1.0766C30.5043 1.09065 31.6097 1.12614 32.7166 1.13206C32.9542 1.13206 33.1946 1.15498 33.4344 1.16607C33.6421 1.21783 33.8534 1.17347 34.0625 1.18973C34.123 1.19491 34.2048 1.15276 34.2382 1.23632C34.2716 1.31987 34.2048 1.3842 34.1486 1.42561C33.9209 1.60678 33.7388 1.836 33.529 2.03491C32.4989 3.01097 31.5486 4.07058 30.5548 5.08582C30.4125 5.23371 30.2703 5.35794 30.0569 5.35942L29.926 5.36533C29.7353 5.40526 29.5426 5.3779 29.3505 5.38234C29.2189 5.38234 29.1677 5.28621 29.13 5.17604C29.0994 4.9352 29.0965 4.69144 29.1214 4.44991C29.1648 3.95153 29.1691 3.45167 29.1926 2.95255C29.2082 2.65012 29.2452 2.34917 29.2573 2.04674C29.3199 1.81678 29.2779 1.58163 29.2914 1.35019C29.2986 1.24667 29.2801 1.1328 29.3981 1.0766Z" fill="#363636"/>
<path d="M19.5231 5.90885C19.6596 5.8395 19.7835 5.7462 19.8895 5.63304C20.226 5.32099 20.5688 5.01783 20.9145 4.71688C21.2482 4.42554 21.5889 4.14307 21.9296 3.86135C22.3844 3.48522 22.8407 3.11131 23.2983 2.73962C23.6888 2.42462 24.0843 2.11702 24.4777 1.80645C24.6335 1.68297 24.7914 1.5617 24.9437 1.43673C25.0003 1.40183 25.0437 1.34781 25.0667 1.28367C25.0354 1.25187 24.9956 1.26371 24.9614 1.25705C25.0909 1.17128 25.246 1.21195 25.3826 1.18311C25.604 1.1486 25.8274 1.12859 26.0512 1.12321C26.4042 1.08823 26.7587 1.07243 27.1133 1.07589C27.1639 1.05331 27.22 1.04738 27.274 1.05888C27.3452 1.19272 27.2235 1.22821 27.1595 1.28071C26.4619 1.84614 25.7619 2.4086 25.0596 2.96811C23.9727 3.82733 22.8957 4.70061 21.8386 5.60494C21.7815 5.66279 21.7127 5.70674 21.6373 5.7336C21.7397 5.72547 21.8507 5.68406 21.9396 5.77649C21.8621 5.84008 21.7703 5.8179 21.6856 5.81494C21.1955 5.79645 20.709 5.8667 20.2195 5.87557C19.9891 5.87927 19.7565 5.9155 19.5231 5.90885Z" fill="#474747"/>
<path d="M30.0554 5.35942C30.2653 5.31505 30.4033 5.16199 30.5455 5.01336C31.2284 4.3035 31.9135 3.60104 32.5878 2.88378C33.0267 2.4172 33.5126 2.0009 33.9394 1.52544C34.0226 1.43301 34.1599 1.39973 34.204 1.26516C34.182 1.19121 34.1222 1.21266 34.076 1.21192C33.9159 1.20822 33.7552 1.21192 33.5944 1.21192C33.5368 1.21192 33.4756 1.22375 33.4322 1.16755C34.0063 1.14093 34.5789 1.2097 35.1516 1.22745C35.5286 1.23928 35.9063 1.24445 36.2833 1.26072C36.2983 1.26811 36.3032 1.27699 36.2997 1.2866C36.2961 1.29621 36.2912 1.30139 36.2862 1.30139C36.215 1.30139 36.1403 1.30656 36.0678 1.30139C36.0314 1.29973 35.9951 1.3065 35.9615 1.32121C35.9279 1.33592 35.8979 1.35819 35.8736 1.38642C35.5079 1.76502 35.1131 2.11255 34.7319 2.47414C33.9465 3.22023 33.2202 4.03287 32.4591 4.80632C32.3353 4.93054 32.2151 5.05995 32.0643 5.21671L32.3403 5.23149C32.2692 5.29435 32.1866 5.27364 32.1091 5.27068C31.5969 5.24924 31.089 5.32984 30.5776 5.32836C30.4047 5.32392 30.2325 5.37347 30.0554 5.35942Z" fill="#474747"/>
<path d="M2.13404 9.606C2.04583 9.60156 1.94269 9.606 1.84168 9.59047C1.64534 9.56237 1.59555 9.49804 1.58203 9.29469C1.56852 9.09135 1.61475 8.88727 1.63183 8.68392C1.63894 8.6011 1.65672 8.51903 1.66882 8.43695C1.69229 8.27723 1.75631 8.20846 1.90783 8.19589C2.59784 8.13526 3.27648 7.98885 3.96151 7.89272C4.35062 7.838 4.73973 7.77811 5.13098 7.73448C5.33158 7.7123 5.40414 7.75888 5.43757 7.87646C5.46388 7.95311 5.46049 8.03741 5.42809 8.11151C5.3957 8.18561 5.33686 8.24371 5.264 8.27353C4.8922 8.46579 4.5166 8.65138 4.13722 8.83033C3.61864 9.0736 3.09366 9.30209 2.5765 9.54758C2.43139 9.61265 2.28912 9.59343 2.13404 9.606Z" fill="#C7C7C7"/>
<path d="M27.1631 14.615C27.1894 14.0855 27.2235 13.5568 27.2406 13.0267C27.2776 11.9123 27.2911 10.7973 27.2989 9.68145C27.3032 9.10691 27.3438 8.53162 27.3843 7.95782C27.4354 7.17185 27.5658 6.39363 27.7734 5.63599C27.8083 5.56205 27.7912 5.43412 27.9256 5.46592C28.0601 5.49772 28.0174 5.59384 27.9968 5.68184C27.8408 6.27274 27.7269 6.87479 27.656 7.4831C27.6311 7.68497 27.6212 7.89053 27.6098 8.09314C27.5835 8.58412 27.5657 9.07659 27.5444 9.57201C27.5116 10.3225 27.5372 11.0731 27.501 11.8221C27.4796 12.2613 27.4939 12.702 27.4597 13.1391C27.4206 13.6515 27.4213 14.1661 27.3587 14.6771C27.3587 14.703 27.3758 14.7325 27.3857 14.7599C27.1994 14.8234 27.0041 14.8534 26.8081 14.8486C26.2966 14.8656 25.783 14.8826 25.2737 14.8486C24.0111 14.7643 22.7484 14.8353 21.4858 14.8087C21.3836 14.8028 21.2813 14.8156 21.1834 14.8464C21.0438 14.8902 20.898 14.9087 20.7524 14.9011C20.482 14.896 20.211 14.9122 19.9407 14.8974C18.3793 14.8139 16.8164 14.8723 15.2543 14.8545C15.0523 14.8545 15.0516 14.8508 15.0494 14.6327C15.0494 14.5033 15.0494 14.3747 15.0494 14.2453C15.0591 14.1848 15.0472 14.1227 15.016 14.0707C14.9879 14.0354 14.9707 13.992 14.9668 13.9464C14.9629 13.9007 14.9723 13.8549 14.9939 13.8149C15.0128 13.7647 15.0128 13.709 14.9939 13.6589C14.9403 13.4818 14.9163 13.2965 14.9228 13.111C15.0167 13.2966 15.0238 13.5043 15.0444 13.7025C15.0828 14.003 15.0994 14.306 15.0942 14.6091C15.0864 14.8057 15.0942 14.8094 15.2899 14.8094C16.0055 14.8094 16.7209 14.8094 17.436 14.8094C18.4725 14.8094 19.5089 14.8213 20.5446 14.7939C21.3321 14.7732 22.1196 14.7747 22.907 14.7606C22.9824 14.7185 23.0643 14.7399 23.1432 14.7399C24.4237 14.7399 25.7041 14.7399 26.9881 14.7355C27.055 14.734 27.1937 14.7998 27.1631 14.615Z" fill="#383838"/>
<path d="M36.999 7.96447C36.8574 7.96623 36.7187 7.92307 36.6014 7.84076C36.4841 7.75845 36.3937 7.6409 36.3424 7.50381C36.2229 7.20138 36.2798 6.91743 36.4967 6.66159C36.7706 6.33771 37.2145 6.23937 37.5246 6.41166C37.6584 6.47478 37.7681 6.58252 37.8362 6.71778C37.8545 6.76663 37.8869 6.80841 37.9289 6.83739C37.9709 6.86638 38.0206 6.88116 38.071 6.87972C38.2147 6.89751 38.3572 6.92442 38.4978 6.96032C38.5402 6.97165 38.582 6.98548 38.623 7.00173C38.7183 7.03278 38.8037 7.08898 38.8179 7.19398C38.8342 7.31599 38.7283 7.35666 38.6443 7.39881C38.4366 7.50381 38.209 7.52377 37.9856 7.54226C37.9247 7.54249 37.8644 7.55573 37.8086 7.58117C37.7528 7.60661 37.7027 7.6437 37.6612 7.69014C37.4976 7.88166 37.2814 7.96226 36.999 7.96447Z" fill="#373737"/>
<path d="M27.9939 5.68185C27.9939 5.66041 27.9939 5.63822 27.9939 5.61604C27.9939 5.5628 27.9889 5.51104 27.9228 5.50291C27.9106 5.50025 27.898 5.50029 27.8859 5.50304C27.8737 5.50579 27.8623 5.51119 27.8522 5.51887C27.8422 5.52655 27.8339 5.53635 27.8278 5.54762C27.8217 5.55888 27.8179 5.57137 27.8168 5.58425C27.8118 5.60421 27.7919 5.619 27.7784 5.63601C27.7727 5.56872 27.7784 5.48812 27.6752 5.51252C27.3594 5.57907 27.0407 5.53544 26.7234 5.5421C26.7412 5.48104 26.7739 5.42581 26.8182 5.38175C26.8626 5.3377 26.9172 5.30633 26.9767 5.29069C27.2335 5.31657 27.4839 5.24558 27.7393 5.24411C27.9121 5.24411 27.9434 5.09622 27.9669 4.96016C28.038 4.53573 28.0871 4.10685 28.1433 3.67872C28.2393 2.95925 28.3112 2.23608 28.3873 1.51365C28.4072 1.32509 28.3517 1.26668 28.1803 1.27481C28.0645 1.28886 27.9475 1.28886 27.8317 1.27481C27.7902 1.22721 27.7389 1.18993 27.6817 1.16574C27.6244 1.14154 27.5626 1.13106 27.501 1.13506C27.4651 1.14292 27.4279 1.14193 27.3925 1.13217C27.357 1.12241 27.3242 1.10415 27.2968 1.07886L27.1183 1.07294C27.1773 1.00861 27.2541 1.0308 27.3238 1.0308C27.9406 1.0308 28.5566 1.0308 29.1734 1.0308C29.253 1.02214 29.3333 1.03946 29.4031 1.08034C29.3641 1.15379 29.348 1.23801 29.3569 1.32139C29.3569 1.4959 29.3569 1.67041 29.3569 1.84492C29.3569 1.91146 29.3718 1.98319 29.3163 2.03865C29.2025 1.89076 29.2601 1.71699 29.2523 1.55506C29.2445 1.40717 29.248 1.28442 29.0517 1.27925C28.7786 1.27259 28.7252 1.29256 28.696 1.52326C28.6071 2.21611 28.5659 2.91488 28.4606 3.60551C28.3944 4.04104 28.3396 4.47879 28.2699 4.91358C28.2258 5.18865 28.2479 5.20492 28.5075 5.18051C28.7315 5.14576 28.9593 5.14576 29.1833 5.18051C29.2466 5.33284 29.3562 5.38386 29.5148 5.36685C29.6532 5.35946 29.7918 5.35946 29.9302 5.36685C29.9144 5.38234 29.8955 5.39401 29.8748 5.40104C29.8542 5.40807 29.8323 5.41028 29.8107 5.40752C29.7239 5.40752 29.6364 5.41418 29.5497 5.40752C29.1292 5.38016 28.7138 5.46594 28.2941 5.45558C28.1369 5.45189 28.0274 5.51918 27.9939 5.68185Z" fill="#5B5B5B"/>
<path d="M36.2883 1.29993C36.2883 1.28662 36.2883 1.27257 36.2883 1.25926C36.7067 1.25455 37.1249 1.28099 37.5396 1.33838C37.7473 1.36204 37.9593 1.34282 38.1699 1.34873C38.2467 1.34873 38.3306 1.32285 38.3968 1.39088C38.2623 1.39088 38.1272 1.39458 37.9927 1.39088C37.8981 1.39088 37.8661 1.43747 37.8725 1.52694C37.6186 1.63564 37.6221 1.63416 37.7502 1.93067C38.0881 2.71152 38.4117 3.49902 38.7418 4.28356C38.9353 4.74201 38.9659 4.76271 39.4489 4.68285C39.4779 4.6788 39.5071 4.67731 39.5364 4.67842C39.6093 4.69765 39.6779 4.73173 39.7381 4.77869C39.7983 4.82566 39.8489 4.88457 39.8871 4.95201C39.7359 4.89491 39.571 4.88998 39.4169 4.93796C39.3746 4.94901 39.3309 4.95301 39.2874 4.94979H37.8647C37.8647 4.90469 37.869 4.85884 37.8718 4.81299C38.0283 4.71095 38.204 4.71613 38.379 4.71095C38.5746 4.70504 38.5881 4.68803 38.5099 4.50169C38.1229 3.57838 37.7409 2.65236 37.3639 1.72363C37.2807 1.51881 37.142 1.54025 36.9855 1.58092C36.8688 1.37166 36.708 1.25335 36.4612 1.30215C36.4036 1.307 36.3458 1.30626 36.2883 1.29993Z" fill="#5B5B5B"/>
<path d="M24.9209 1.25705C24.8419 1.33765 24.7445 1.29181 24.6548 1.29994C24.7352 1.22969 24.8313 1.26445 24.9209 1.25705Z" fill="#474747"/>
<path d="M23.9115 1.43897C23.8652 1.50478 23.7976 1.47964 23.7372 1.48555C23.7827 1.42048 23.8496 1.44045 23.9115 1.43897Z" fill="#474747"/>
<path d="M24.1305 1.39606C24.0822 1.45965 24.0146 1.43599 23.9527 1.43673C24.0025 1.37905 24.0686 1.3968 24.1305 1.39606Z" fill="#474747"/>
<path d="M24.3504 1.34948C24.302 1.41381 24.2344 1.38941 24.1725 1.39237C24.2216 1.33099 24.2885 1.3517 24.3504 1.34948Z" fill="#474747"/>
<path d="M24.6129 1.30288C24.5638 1.36869 24.4955 1.34355 24.4322 1.34355C24.4841 1.28587 24.551 1.3051 24.6129 1.30288Z" fill="#474747"/>
<path d="M23.56 1.57645C23.528 1.62895 23.4768 1.62156 23.4277 1.62082C23.4443 1.60227 23.4652 1.58846 23.4883 1.58069C23.5115 1.57292 23.5362 1.57146 23.56 1.57645Z" fill="#474747"/>
<path d="M44.2462 14.7636C44.2516 15.189 44.1745 15.6112 44.0195 16.005C43.8644 16.3987 43.6347 16.756 43.344 17.0555C43.0533 17.355 42.7076 17.5906 42.3274 17.7481C41.9472 17.9057 41.5404 17.9821 41.1312 17.9728C40.2906 17.9759 39.4831 17.6322 38.886 17.0171C38.2889 16.402 37.951 15.5657 37.9465 14.6919C37.9467 14.2673 38.0279 13.847 38.1853 13.4553C38.3427 13.0635 38.5732 12.708 38.8635 12.4094C39.1538 12.1107 39.4981 11.8748 39.8766 11.7153C40.2551 11.5557 40.6602 11.4757 41.0686 11.4798C42.8776 11.4842 44.2669 13.04 44.2462 14.7636Z" fill="#C3C3C3"/>
<path d="M12.5568 15.1969C12.5599 15.6205 12.4811 16.0404 12.3253 16.4318C12.1695 16.8232 11.9397 17.1781 11.6496 17.4756C11.3595 17.7731 11.015 18.0071 10.6364 18.1637C10.2578 18.3204 9.85277 18.3965 9.44535 18.3876C9.02719 18.3908 8.61256 18.3078 8.22547 18.1433C7.83838 17.9788 7.48652 17.7362 7.19026 17.4294C6.89401 17.1226 6.65923 16.7578 6.49954 16.3561C6.33984 15.9543 6.25839 15.5236 6.25991 15.0889C6.2612 14.6661 6.34296 14.2477 6.50047 13.8579C6.65798 13.4681 6.88814 13.1145 7.17768 12.8175C7.46722 12.5205 7.81043 12.286 8.18753 12.1275C8.56463 11.9689 8.96818 11.8895 9.37493 11.8938C11.228 11.9049 12.5867 13.4873 12.5568 15.1969Z" fill="#C3C3C3"/>
<path d="M36.7656 13.057C36.8392 12.6834 36.966 12.3232 37.1419 11.9885C37.3698 11.5306 37.6664 11.1132 38.0205 10.7522C38.3777 10.3941 38.7855 10.0949 39.2298 9.86484C39.626 9.65623 40.051 9.5128 40.4896 9.43967C40.9496 9.36054 41.4182 9.35082 41.881 9.41083C42.2931 9.46128 42.697 9.56768 43.0825 9.72731C43.167 9.77008 43.2462 9.8232 43.3186 9.88555C43.6615 10.1414 44.0364 10.347 44.3764 10.6095C44.6623 10.8318 44.9134 11.099 45.1205 11.4014C45.4689 11.8991 45.7229 12.4612 45.8688 13.0577C45.933 13.298 45.9744 13.5441 45.9926 13.7927C46.0026 13.9805 46.0452 14.1676 46.0296 14.3577C45.9954 14.7784 45.9585 15.1991 45.8361 15.6066C45.8361 15.6169 45.814 15.6221 45.792 15.6369C45.7543 15.594 45.7685 15.54 45.7685 15.4927C45.7755 14.7556 45.6254 14.026 45.329 13.3564C45.0326 12.6867 44.5972 12.0936 44.0542 11.6195C43.5459 11.1736 42.9587 10.8353 42.3256 10.6235C42.0009 10.5115 41.6639 10.4429 41.3226 10.4194C41.1639 10.4113 41.006 10.3721 40.8452 10.3802C40.2704 10.3982 39.7026 10.517 39.1657 10.7315C38.7063 10.9257 38.2817 11.199 37.9095 11.5397C37.5038 11.9181 37.1666 12.3688 36.9136 12.8707C36.902 12.9104 36.883 12.9473 36.8576 12.9793C36.8322 13.0113 36.8009 13.0377 36.7656 13.057Z" fill="#1B1B1B"/>
<path d="M14.1012 16.0369C14.0585 16.0007 14.0834 15.9452 14.082 15.8964C14.0782 15.313 13.982 14.7342 13.7974 14.1832C13.5907 13.5922 13.2817 13.0456 12.8855 12.5704C12.4477 12.0509 11.9159 11.6258 11.3205 11.3193C10.7235 11.0079 10.0696 10.8321 9.40226 10.8038C8.73489 10.7755 8.06938 10.8953 7.45001 11.1552C6.98583 11.3552 6.55896 11.6383 6.18878 11.9915C5.78912 12.3679 5.45823 12.8163 5.21209 13.3151C5.18648 13.3639 5.18221 13.4371 5.09685 13.4489C5.09045 13.2581 5.17225 13.0932 5.2313 12.9313C5.37435 12.5248 5.57738 12.1438 5.8331 11.8022C5.99458 11.5885 6.13543 11.3585 6.32607 11.1692C6.95017 10.5353 7.73132 10.094 8.58249 9.89443C9.03779 9.78474 9.5069 9.75055 9.97247 9.79312C10.3932 9.82787 10.8081 9.9173 11.2074 10.0593C11.4106 10.1439 11.602 10.2563 11.7765 10.3935C11.9614 10.5281 12.157 10.6442 12.3456 10.7699C12.7354 11.0324 13.1003 11.3289 13.3806 11.7312C13.7998 12.326 14.0929 13.0065 14.2406 13.7277C14.2846 13.9115 14.3066 14.1002 14.306 14.2896C14.2975 14.5322 14.2975 14.7752 14.306 15.0187C14.3174 15.3574 14.2228 15.6761 14.1588 16.0014C14.1584 16.0083 14.1563 16.0149 14.1529 16.0208C14.1494 16.0266 14.1447 16.0315 14.139 16.035C14.1333 16.0385 14.1269 16.0405 14.1203 16.0408C14.1137 16.0412 14.1072 16.0398 14.1012 16.0369Z" fill="#1B1B1B"/>
<path d="M14.8708 12.7974C14.9232 12.8322 14.9134 12.8869 14.912 12.9394C14.895 12.9209 14.8824 12.8984 14.8752 12.8737C14.8681 12.849 14.8666 12.8229 14.8708 12.7974Z" fill="#797979"/>
<path d="M27.2918 1.07813C27.4063 1.07813 27.5216 1.07813 27.6354 1.07369C27.7634 1.06704 27.8232 1.12545 27.8182 1.25707C27.8822 1.36059 27.8353 1.46485 27.8147 1.56542C27.5757 2.74851 27.3018 3.92052 27.04 5.09623C27.0222 5.17756 27.0101 5.26186 26.9354 5.31362C26.8743 5.40087 26.8259 5.50144 26.722 5.54211C25.9822 5.56503 25.2438 5.62418 24.504 5.65006C24.2508 5.65894 23.9975 5.67816 23.7436 5.68482C23.5252 5.74175 23.299 5.66337 23.0813 5.72623H22.8217C22.6182 5.7839 22.4062 5.70478 22.2035 5.76837L21.9453 5.77281H21.6252L21.6145 5.73214C21.7205 5.6338 21.8208 5.5288 21.9325 5.43637C22.673 4.84482 23.395 4.22221 24.1377 3.62992L25.8307 2.28045C26.2973 1.91073 26.7604 1.53288 27.2242 1.15799C27.2494 1.13388 27.272 1.10712 27.2918 1.07813Z" fill="#363636"/>
<path d="M25.2694 6.67788C25.4007 6.66485 25.5327 6.6943 25.6473 6.7622C25.7619 6.83009 25.8535 6.93313 25.9096 7.05721C25.9315 7.1092 25.9678 7.15315 26.014 7.18335C26.0602 7.21355 26.1141 7.2286 26.1686 7.22654C26.3295 7.23261 26.4885 7.26428 26.6402 7.32045C26.6895 7.33575 26.7372 7.35631 26.7825 7.38182C26.8165 7.3963 26.8455 7.42114 26.8657 7.45308C26.8859 7.48502 26.8963 7.52256 26.8956 7.56077C26.8922 7.59887 26.878 7.63508 26.8548 7.66482C26.8317 7.69456 26.8006 7.7165 26.7654 7.72788C26.5645 7.81983 26.3482 7.87007 26.1287 7.87577C26.0569 7.87126 25.985 7.88376 25.9184 7.91232C25.8519 7.94089 25.7925 7.98477 25.7446 8.04066C25.5077 8.30834 25.194 8.34531 24.8761 8.27432C24.5047 8.19151 24.2828 7.75672 24.3781 7.36851C24.4734 6.98031 24.8519 6.63573 25.2694 6.67788Z" fill="#373737"/>
<path d="M27.1631 14.615C27.1915 14.6379 27.2278 14.6586 27.2278 14.7C27.2278 14.754 27.1837 14.7488 27.1489 14.7525C27.1275 14.7525 27.1055 14.7525 27.0834 14.7525L22.9056 14.7592C22.9768 14.6808 23.0707 14.7156 23.1546 14.7148C24.4 14.7148 25.6455 14.7148 26.8914 14.7148H27.0664C27.1247 14.7148 27.1531 14.6741 27.1631 14.615Z" fill="#797979"/>
<path d="M23.0778 5.72622C23.1354 5.65819 23.2129 5.68333 23.2826 5.68259C23.4349 5.68259 23.5871 5.68259 23.74 5.68259C23.6042 5.75654 23.4555 5.70921 23.3132 5.724C23.2371 5.73288 23.1574 5.72622 23.0778 5.72622Z" fill="#474747"/>
<path d="M22.2 5.77206C22.2569 5.7033 22.3344 5.72918 22.4041 5.7277C22.5421 5.7277 22.6801 5.7277 22.8181 5.7277C22.6168 5.81199 22.4077 5.7558 22.2 5.77206Z" fill="#474747"/>
<path d="M15.1801 12.4736C15.2499 12.637 15.2088 12.8115 15.2234 12.9808C15.1313 12.8189 15.1969 12.6444 15.1801 12.4736Z" fill="#797979"/>
<path d="M15.1367 11.8798C15.2065 12.0439 15.164 12.2184 15.1786 12.3878C15.0872 12.2258 15.1514 12.0528 15.1367 11.8798Z" fill="#797979"/>
<path d="M39.5335 4.67839C39.3471 4.84107 39.1302 4.75234 38.926 4.75234C38.8905 4.75234 38.8698 4.70649 38.8549 4.67248C38.7027 4.32199 38.5483 3.97223 38.3989 3.62026C38.2168 3.19139 38.0432 2.76104 37.8597 2.33142C37.7473 2.06227 37.6335 1.79385 37.514 1.51139C37.6484 1.47368 37.758 1.5528 37.8697 1.52322C37.9532 1.65602 38.0246 1.79663 38.0831 1.94322C38.448 2.68709 38.8407 3.4147 39.2433 4.13713C39.3457 4.31829 39.4382 4.49945 39.5335 4.67839Z" fill="#797979"/>
<path d="M36.9847 1.57941C37.1 1.43152 37.3013 1.4404 37.376 1.60973C37.4855 1.8567 37.5837 2.10811 37.6868 2.35804C37.9448 2.98114 38.2035 3.60473 38.4629 4.22881C38.517 4.36043 38.576 4.49057 38.6287 4.62293C38.6707 4.73015 38.6529 4.77082 38.5426 4.76564C38.3164 4.75751 38.0952 4.79966 37.8711 4.81149C37.6797 4.10459 37.4884 3.40138 37.2977 2.69152C37.196 2.31959 37.0893 1.94987 36.9847 1.57941Z" fill="#797979"/>
<path d="M29.1776 5.17973C29.1053 5.21662 29.0246 5.23246 28.9443 5.22558C28.7622 5.21873 28.5798 5.23111 28.4001 5.26255C28.1988 5.30987 28.1341 5.24332 28.1732 5.04072C28.2543 4.61111 28.3155 4.1778 28.3702 3.74523C28.425 3.31266 28.4933 2.89487 28.5239 2.46526C28.5509 2.08149 28.61 1.70142 28.6519 1.31913C28.6514 1.30397 28.6542 1.28887 28.66 1.27494C28.6657 1.261 28.6744 1.24857 28.6854 1.23853C28.6963 1.22849 28.7093 1.2211 28.7233 1.21688C28.7373 1.21266 28.7521 1.21172 28.7665 1.21413C28.9052 1.21413 29.0439 1.21413 29.1833 1.21413C29.2794 1.21413 29.3092 1.26368 29.3092 1.35537C29.3092 1.58311 29.3092 1.81086 29.3092 2.03935C29.2936 2.77878 29.226 3.51822 29.2047 4.25766C29.1971 4.5628 29.1881 4.87016 29.1776 5.17973Z" fill="#797979"/>
<path d="M38.6472 7.21911C38.1998 7.49936 36.7842 7.48383 36.4825 7.20728C36.824 6.92038 38.3178 6.9226 38.6472 7.21911Z" fill="#787878"/>
<path d="M26.9354 5.31362C27.035 4.77827 27.1709 4.25031 27.2911 3.7194C27.4611 2.95112 27.6183 2.18063 27.7819 1.41161C27.7926 1.35985 27.8075 1.30883 27.8203 1.25707C28.0089 1.16464 28.208 1.21862 28.4022 1.21788C28.4833 1.21788 28.4876 1.30144 28.4734 1.3569C28.4378 1.48334 28.4485 1.61274 28.43 1.73918C28.3588 2.20873 28.3403 2.68344 28.2671 3.15299C28.1903 3.65137 28.1454 4.15492 28.0814 4.65552C28.0601 4.81968 28.0238 4.98161 27.9953 5.14503C27.979 5.23746 27.9242 5.31214 27.8396 5.30844C27.5685 5.29809 27.3046 5.37721 27.0343 5.36094C27.0154 5.36141 26.9967 5.35739 26.9796 5.34919C26.9625 5.34099 26.9473 5.32882 26.9354 5.31362Z" fill="#797979"/>
<path d="M40.5351 15.912C40.5453 15.9256 40.5587 15.9364 40.574 15.9431C40.5893 15.9498 40.6061 15.9524 40.6226 15.9504C40.6838 16.241 40.6582 16.5338 40.6347 16.8252C40.6269 16.922 40.6098 17.0189 40.6084 17.1209C40.6041 17.3598 40.5024 17.4507 40.2748 17.4071C40.0594 17.3604 39.8549 17.2702 39.673 17.1416C39.4414 16.9956 39.2337 16.8121 39.0576 16.5982C38.9374 16.4436 38.9495 16.3453 39.106 16.2373C39.3842 16.0413 39.6768 15.8683 39.981 15.7197C40.225 15.6021 40.3815 15.75 40.5351 15.912Z" fill="#363636"/>
<path d="M41.5096 15.8979C41.5249 15.8719 41.5357 15.8434 41.5416 15.8136C41.5488 15.5378 41.7266 15.4069 41.9798 15.4742C42.2117 15.5356 42.3988 15.6842 42.6087 15.7885C42.7794 15.8735 42.9437 15.9726 43.1066 16.068C43.32 16.1914 43.3549 16.3112 43.2425 16.5331C43.2308 16.5611 43.216 16.5877 43.1984 16.6122C42.8427 17.0255 42.4721 17.4256 41.9521 17.6223C41.8503 17.6649 41.7409 17.684 41.6313 17.6785C41.4577 17.6644 41.378 17.5616 41.4029 17.3827C41.4125 17.3385 41.4139 17.2928 41.4072 17.2481C41.3595 17.0536 41.3802 16.8555 41.3731 16.6566C41.3744 16.4833 41.3628 16.3103 41.3382 16.1389C41.3055 15.9696 41.3382 15.9371 41.5061 15.9001C41.4278 16.3201 41.4662 16.7379 41.5189 17.1572C41.5194 17.1804 41.5254 17.2031 41.5362 17.2234C41.5471 17.2437 41.5625 17.2609 41.5812 17.2736C41.5999 17.2864 41.6212 17.2942 41.6435 17.2964C41.6657 17.2987 41.6881 17.2953 41.7088 17.2866C42.1837 17.1744 42.6054 16.8922 42.9003 16.4894C42.9572 16.4155 42.9174 16.3637 42.8541 16.3238C42.5852 16.156 42.3234 15.9755 42.0396 15.8336C41.9937 15.8097 41.9427 15.7988 41.8915 15.802C41.8403 15.8051 41.7908 15.8221 41.7479 15.8513C41.6761 15.8905 41.6057 15.9674 41.5096 15.8979Z" fill="#959696"/>
<path d="M40.5351 15.9119C40.4439 15.8841 40.3588 15.8378 40.2847 15.7759C40.2452 15.7416 40.196 15.7217 40.1446 15.7193C40.0932 15.7168 40.0424 15.7321 40.0002 15.7626C39.695 15.9245 39.4033 16.1101 39.1117 16.2972C38.9908 16.3711 38.9808 16.417 39.0747 16.5272C39.4041 16.9139 39.7861 17.2193 40.279 17.3472C40.496 17.4041 40.5707 17.342 40.5856 17.1054C40.6098 16.7209 40.6511 16.3364 40.6198 15.9504C40.7058 15.9844 40.6752 16.0635 40.6781 16.1264C40.6952 16.57 40.6276 17.0181 40.6269 17.4655C40.6269 17.6075 40.5593 17.6666 40.4249 17.6799C40.3078 17.6888 40.1905 17.6683 40.0827 17.62C39.5735 17.4075 39.1333 17.0484 38.8136 16.5848C38.6714 16.3867 38.7297 16.1752 38.9452 16.0539C39.2397 15.8883 39.547 15.7485 39.8337 15.5666C39.9038 15.5264 39.9783 15.4951 40.0557 15.4735C40.1425 15.4423 40.2375 15.4461 40.3218 15.484C40.4062 15.5219 40.4739 15.5912 40.5116 15.6783C40.5472 15.75 40.4931 15.8358 40.5351 15.9119Z" fill="#969696"/>
<path d="M43.3478 15.3063C43.2645 15.4971 43.2617 15.5045 43.0803 15.4276C42.8605 15.3344 42.6464 15.2264 42.4301 15.1251C42.1826 14.8649 42.263 14.4064 42.5788 14.2822C42.7211 14.226 42.869 14.1794 43.0134 14.1276C43.256 14.0404 43.3819 14.101 43.3805 14.3613C43.3776 14.6748 43.4047 14.9928 43.3478 15.3063Z" fill="#373737"/>
<path d="M39.6658 15.0786L39.0505 15.3965C38.9289 15.4276 38.793 15.5784 38.7034 15.35C38.6507 15.2413 38.687 15.1281 38.6792 15.015C38.6671 14.8264 38.6834 14.6386 38.6536 14.4486C38.6116 14.1779 38.7702 14.0456 39.0178 14.1225C39.1999 14.1787 39.3735 14.2548 39.552 14.3258C39.7014 14.3857 39.7775 14.4974 39.7491 14.663C39.7256 14.802 39.7647 14.9558 39.6658 15.0786Z" fill="#363737"/>
<path d="M41.7771 13.6108C41.5637 13.4843 41.4542 13.3098 41.5032 13.0451C41.5119 12.9636 41.5145 12.8815 41.5111 12.7996C41.5509 12.7294 41.526 12.6517 41.531 12.5778C41.5445 12.373 41.6199 12.2983 41.812 12.3427C42.1605 12.424 42.4216 12.6532 42.6507 12.9246C42.68 12.9549 42.6973 12.9955 42.6994 13.0384C42.7016 13.0813 42.6882 13.1235 42.662 13.1568C42.4422 13.4045 42.1982 13.6152 41.8532 13.6404C41.8391 13.6434 41.8245 13.6423 41.8111 13.637C41.7976 13.6318 41.7858 13.6227 41.7771 13.6108Z" fill="#373737"/>
<path d="M41.7771 13.6108C41.9116 13.6618 42.0097 13.5642 42.1221 13.5213C42.2911 13.4502 42.4445 13.3444 42.5731 13.21C42.6713 13.1154 42.677 13.0104 42.5831 12.9143C42.3887 12.6982 42.1506 12.5297 41.886 12.421C41.6462 12.3323 41.5843 12.3752 41.5545 12.6288C41.5474 12.688 41.5545 12.7516 41.5111 12.7996C41.4876 12.5209 41.5452 12.2399 41.4769 11.9611C41.457 11.8813 41.5338 11.8243 41.6235 11.8465C41.7004 11.8693 41.7756 11.8982 41.8483 11.933C42.3128 12.126 42.7417 12.3767 43.0832 12.7678C43.1657 12.8625 43.1657 12.8625 43.1486 13.0037C43.0668 13.0111 43.0234 12.9298 42.9558 12.9091C42.8719 12.8795 42.7972 12.8943 42.7887 12.9889C42.7773 13.1198 42.6898 13.1849 42.6172 13.2684C42.4901 13.4033 42.3437 13.517 42.1833 13.6056C42.0553 13.6796 41.9123 13.7254 41.7771 13.6108Z" fill="#959595"/>
<path d="M40.3338 13.5857C40.1915 13.7195 40.0301 13.6981 39.8856 13.6278C39.6722 13.525 39.5115 13.3446 39.3287 13.196C39.2781 13.1546 39.2789 13.0925 39.2682 13.0318C39.2433 12.8913 39.1807 12.861 39.0548 12.9194C39.0285 12.9313 39.0071 12.9542 38.9836 12.9668C38.9709 12.9743 38.9562 12.9773 38.9417 12.9753C38.9271 12.9733 38.9136 12.9664 38.9033 12.9557C38.8927 12.945 38.886 12.9308 38.8843 12.9156C38.8826 12.9004 38.8861 12.885 38.894 12.8721C38.9376 12.7848 38.9946 12.7054 39.0626 12.637C39.4435 12.2954 39.8847 12.0343 40.3615 11.868C40.5216 11.8147 40.5436 11.8399 40.5508 12.0218C40.5572 12.1889 40.4796 12.3479 40.5145 12.5165L40.4889 12.5349C40.331 12.4196 40.1759 12.4484 40.0236 12.5468C39.8714 12.6451 39.7035 12.7272 39.5748 12.864C39.446 13.0008 39.4325 13.1021 39.5748 13.2278C39.7797 13.4097 40.0016 13.5665 40.2947 13.5457C40.3034 13.5494 40.3114 13.5548 40.3181 13.5616C40.3248 13.5685 40.3301 13.5767 40.3338 13.5857Z" fill="#959595"/>
<path d="M43.3478 15.3063C43.3478 15.0638 43.3428 14.8212 43.3478 14.5787C43.342 14.4652 43.3267 14.3524 43.3023 14.2415C43.2895 14.1528 43.2439 14.1047 43.1493 14.141C42.9226 14.2277 42.6955 14.3128 42.4679 14.3961C42.4284 14.4049 42.3934 14.4286 42.3697 14.4626C42.3459 14.4966 42.335 14.5384 42.3391 14.5802C42.3469 14.7658 42.2907 14.9617 42.428 15.1244C42.3483 15.1244 42.3128 15.0741 42.2978 14.998C42.262 14.8123 42.2455 14.6231 42.2488 14.4338C42.2467 14.3922 42.2574 14.3509 42.2794 14.3161C42.3014 14.2813 42.3335 14.2546 42.3711 14.2401C42.4963 14.1787 42.6115 14.1003 42.7396 14.0426C42.9378 13.9463 43.1305 13.8379 43.3165 13.718C43.3673 13.6888 43.4204 13.6641 43.4751 13.6441C43.5342 13.6197 43.5818 13.6367 43.5996 13.6958C43.6786 13.9458 43.8045 14.1839 43.791 14.4597C43.7824 14.6238 43.7725 14.632 43.6316 14.5706C43.6062 14.5565 43.5795 14.5451 43.552 14.5366C43.4481 14.5144 43.3997 14.5499 43.3962 14.6593C43.3912 14.8116 43.3962 14.9632 43.3962 15.1155C43.3926 15.1821 43.414 15.256 43.3478 15.3063Z" fill="#959595"/>
<path d="M39.6658 15.0786C39.7027 14.9244 39.7164 14.7653 39.7064 14.6068C39.7109 14.5613 39.7 14.5156 39.6756 14.4775C39.6512 14.4395 39.6148 14.4115 39.5726 14.3983C39.3464 14.3165 39.1205 14.2327 38.8947 14.1469C38.8158 14.1173 38.7688 14.1402 38.746 14.2208C38.7166 14.3142 38.7008 14.4117 38.6991 14.5099C38.7026 14.7894 38.7026 15.069 38.7041 15.3492C38.6258 15.2856 38.6593 15.1947 38.655 15.1155C38.6486 14.9795 38.655 14.8427 38.6507 14.7059C38.6507 14.544 38.6002 14.5003 38.4537 14.538C38.3979 14.5573 38.3441 14.5821 38.2929 14.612C38.2538 14.5269 38.2428 14.4307 38.2616 14.3384C38.2826 14.1276 38.3379 13.9221 38.4252 13.7306C38.4672 13.633 38.5248 13.6108 38.6152 13.6625C38.7297 13.7276 38.8506 13.7823 38.9623 13.8526C39.1878 13.9938 39.4268 14.1062 39.6616 14.2282C39.7056 14.2461 39.743 14.2779 39.7686 14.3192C39.7941 14.3605 39.8065 14.4092 39.8038 14.4582C39.8074 14.6349 39.7583 14.8035 39.7476 14.9758C39.7462 14.9997 39.7376 15.0226 39.7228 15.041C39.7081 15.0595 39.6882 15.0727 39.6658 15.0786Z" fill="#959494"/>
<path d="M41.0046 14.5218C41.0266 14.5224 41.0484 14.5247 41.0701 14.5285C41.2401 14.5662 41.3703 14.7547 41.3375 14.9137C41.3077 15.0572 41.1149 15.1422 40.9399 15.0897C40.9189 15.0832 40.8982 15.0755 40.878 15.0668C40.7208 14.9965 40.6404 14.8575 40.6703 14.7096C40.6952 14.5906 40.814 14.5189 41.0046 14.5218Z" fill="#393939"/>
<path d="M40.5095 12.5164C40.5541 12.7453 40.5779 12.978 40.5806 13.2115C40.5836 13.2533 40.5785 13.2954 40.5655 13.3352C40.5525 13.3749 40.532 13.4116 40.5052 13.4429L40.4775 13.4163C40.4718 13.1205 40.38 12.8248 40.4867 12.5327L40.5095 12.5164Z" fill="#959595"/>
<path d="M38.7033 15.35C38.7546 15.4187 38.8086 15.4742 38.9032 15.4298C38.9483 15.4045 38.9994 15.393 39.0505 15.3966C39.0217 15.4305 38.9856 15.457 38.9453 15.4739C38.9049 15.4909 38.8613 15.4978 38.8179 15.4942C38.7197 15.4986 38.6905 15.4417 38.7033 15.35Z" fill="#959494"/>
<path d="M40.506 13.4429C40.464 13.5073 40.4042 13.5568 40.3345 13.5849L40.3174 13.5642C40.3274 13.457 40.3779 13.4015 40.4875 13.4237C40.4939 13.4296 40.4995 13.4363 40.506 13.4429Z" fill="#959595"/>
<path d="M9.82664 16.312C9.84062 16.2856 9.8507 16.2572 9.85652 16.2277C9.86292 15.9526 10.0457 15.8084 10.2926 15.8905C10.3758 15.9183 10.4567 15.9531 10.5344 15.9947C10.8318 16.1545 11.1279 16.3167 11.4229 16.4813C11.6363 16.6018 11.6719 16.7231 11.5602 16.9449C11.5524 16.9662 11.5418 16.9864 11.5289 17.0048C11.117 17.4928 10.6845 17.9498 10.0415 18.097C10.0004 18.1097 9.95708 18.1121 9.91499 18.1039C9.8729 18.0957 9.83329 18.0772 9.79943 18.05C9.76558 18.0228 9.73845 17.9875 9.72029 17.9472C9.70214 17.9069 9.69349 17.8627 9.69504 17.8182C9.6884 17.6141 9.6884 17.4095 9.69504 17.2045C9.69931 16.9693 9.6673 16.7371 9.65521 16.5035C9.64667 16.3482 9.65521 16.3475 9.82807 16.312C9.73275 16.729 9.79606 17.1468 9.82807 17.5638C9.83803 17.6918 9.9177 17.7376 10.0479 17.7028C10.4945 17.5779 10.8924 17.3111 11.186 16.9397C11.2657 16.8436 11.2444 16.7837 11.1498 16.7231C10.8951 16.5604 10.634 16.4088 10.3758 16.2521C10.3291 16.2218 10.2749 16.2062 10.2199 16.2072C10.1648 16.2083 10.1113 16.2259 10.0657 16.258C9.9931 16.3009 9.92268 16.3763 9.82664 16.312Z" fill="#969696"/>
<path d="M8.94171 16.3623C9.01285 16.3948 8.99293 16.4621 8.99506 16.5198C9.01142 16.976 8.93673 17.4285 8.94384 17.884C8.94384 18.0445 8.82078 18.1243 8.6593 18.1059C8.3842 18.0599 8.1241 17.9446 7.90171 17.7702C7.60812 17.5699 7.3527 17.315 7.14839 17.0181C6.98691 16.7727 7.02248 16.6211 7.2686 16.4776C7.55315 16.3149 7.82915 16.1508 8.11369 15.9977C8.2248 15.9396 8.34234 15.8959 8.46368 15.8676C8.50569 15.8569 8.54957 15.8569 8.59156 15.8677C8.63356 15.8784 8.67241 15.8996 8.7048 15.9294C8.73718 15.9592 8.76213 15.9968 8.7775 16.0388C8.79286 16.0808 8.7982 16.1261 8.79304 16.1708C8.77952 16.3083 8.92464 16.275 8.94242 16.3637C8.83074 16.4377 8.74182 16.3637 8.66357 16.3031C8.5213 16.19 8.3897 16.2048 8.23676 16.2876C7.99703 16.4185 7.7694 16.5686 7.53536 16.7091C7.39309 16.7934 7.40021 16.8777 7.50762 16.9937C7.80639 17.3169 8.14357 17.5727 8.56611 17.6933C8.77027 17.7517 8.83216 17.7132 8.84425 17.4877C8.8599 17.1853 8.91041 16.885 8.89191 16.5797C8.88512 16.5418 8.88604 16.5029 8.89462 16.4655C8.90319 16.428 8.91924 16.3929 8.94171 16.3623Z" fill="#969696"/>
<path d="M8.01338 15.3906C7.99755 15.4316 7.97397 15.4689 7.94403 15.5003C7.9141 15.5317 7.87842 15.5565 7.8391 15.5733C7.64916 15.6598 7.46279 15.7552 7.27499 15.8461C7.0559 15.9023 7.00824 15.8705 6.99472 15.6576C6.97694 15.3869 6.99472 15.1163 6.96484 14.8442C6.93497 14.5721 7.0936 14.4516 7.34613 14.5373C7.51899 14.5957 7.689 14.666 7.85973 14.7325C8.01551 14.7939 8.10088 14.9019 8.0525 15.0853C8.02618 15.1866 8.08309 15.2975 8.01338 15.3906Z" fill="#373636"/>
<path d="M11.2736 15.8055C11.2394 15.7981 11.2024 15.8055 11.1768 15.767C11.1079 15.7262 11.0366 15.6899 10.9634 15.6583C10.6561 15.4979 10.5515 15.2805 10.6148 14.9337C10.6222 14.8927 10.6404 14.8547 10.6672 14.8238C10.6941 14.7929 10.7286 14.7703 10.7671 14.7584C10.9712 14.6764 11.1747 14.5943 11.3803 14.5181C11.5389 14.4597 11.6534 14.5181 11.6733 14.6815C11.7234 15.0462 11.7108 15.4172 11.6364 15.7774C11.6079 15.9046 11.5019 15.8905 11.4052 15.8513C11.3696 15.8107 11.3106 15.8513 11.2736 15.8055Z" fill="#363636"/>
<path d="M9.95897 13.9384L9.91131 13.894C9.87756 13.8722 9.84984 13.8417 9.83089 13.8054C9.81193 13.7691 9.80238 13.7283 9.80318 13.687C9.78825 13.4282 9.83377 13.1745 9.85511 12.9194C9.86863 12.7612 9.98529 12.7161 10.1119 12.7516C10.4533 12.8485 10.7548 13.0589 10.9705 13.3505C10.9914 13.3775 11.0047 13.4099 11.009 13.4442C11.0132 13.4785 11.0083 13.5134 10.9947 13.545C10.9022 13.7838 10.3588 14.0744 10.0927 14.0271C10.0458 13.996 9.99881 13.9709 9.95897 13.9384Z" fill="#373737"/>
<path d="M8.80797 13.8422C8.74294 13.8769 8.68535 13.925 8.63866 13.9835C8.51275 14.0833 8.38044 14.067 8.246 14.0049C8.07332 13.9219 7.91476 13.8102 7.7765 13.6744C7.6385 13.5435 7.62427 13.3941 7.75232 13.2551C7.94929 13.0384 8.19315 12.8736 8.46367 12.7745C8.67708 12.7005 8.75888 12.7464 8.79943 12.9741C8.84994 13.261 8.89191 13.5524 8.80797 13.8422Z" fill="#373737"/>
<path d="M8.80798 13.8422C8.84147 13.5489 8.83212 13.252 8.78023 12.9616C8.75036 12.8078 8.69132 12.7634 8.54976 12.8078C8.25025 12.9071 7.98064 13.0854 7.76727 13.3254C7.74818 13.3433 7.73301 13.3653 7.72276 13.3898C7.7125 13.4143 7.70741 13.4409 7.70781 13.4676C7.70822 13.4944 7.71411 13.5207 7.7251 13.5449C7.73609 13.5691 7.75192 13.5905 7.77153 13.6078C7.8718 13.7285 7.99542 13.8257 8.13433 13.8933C8.17674 13.9046 8.21726 13.9226 8.25454 13.9465C8.37619 14.0596 8.50423 14.0456 8.63868 13.9835C8.57031 14.0443 8.48476 14.0804 8.39493 14.0863C8.30511 14.0921 8.21588 14.0675 8.14073 14.016C7.99063 13.9095 7.84836 13.7897 7.70609 13.6714C7.67089 13.645 7.64147 13.611 7.61977 13.5719C7.59807 13.5328 7.58458 13.4893 7.58018 13.4444C7.56595 13.3024 7.4877 13.2684 7.36677 13.3313C7.30489 13.3631 7.23304 13.4585 7.17969 13.4052C7.10002 13.3217 7.22166 13.2677 7.25723 13.2019C7.37318 12.9867 7.58445 12.8795 7.76442 12.7427C8.04133 12.5445 8.34509 12.3902 8.66571 12.285C8.83145 12.2251 8.85493 12.251 8.86062 12.4329C8.86062 12.5638 8.78948 12.6858 8.81794 12.8152C8.86631 13.054 8.84781 13.2988 8.88907 13.5383C8.90237 13.5919 8.90188 13.6482 8.88764 13.7016C8.87341 13.7549 8.84594 13.8034 8.80798 13.8422Z" fill="#959595"/>
<path d="M10.0898 14.0271C10.225 14.073 10.3231 13.9769 10.437 13.9332C10.6065 13.8621 10.7602 13.7556 10.8887 13.6204C10.9797 13.5325 10.9904 13.4511 10.915 13.3616C10.7048 13.1063 10.4315 12.9153 10.1247 12.8093C9.96178 12.7538 9.89349 12.8093 9.87215 12.9882C9.8432 13.191 9.82705 13.3955 9.82377 13.6005C9.82103 13.7059 9.85068 13.8095 9.90842 13.8963C9.8067 13.8844 9.77611 13.8142 9.77967 13.7195C9.77607 13.522 9.78462 13.3244 9.80528 13.128C9.84406 12.8957 9.84261 12.658 9.80101 12.4263C9.77469 12.2858 9.84511 12.2148 9.97245 12.2665C10.3516 12.4226 10.7265 12.5882 11.0494 12.8581C11.1722 12.9532 11.2865 13.0596 11.3909 13.176C11.4457 13.2411 11.5111 13.3099 11.4734 13.4134C11.3816 13.4252 11.3397 13.3454 11.2721 13.321C11.2045 13.2966 11.1298 13.2981 11.1078 13.3772C11.0295 13.6685 10.7905 13.7927 10.5871 13.9635C10.4708 14.0553 10.3252 14.0971 10.1802 14.0804C10.1619 14.0808 10.1438 14.0761 10.1279 14.0668C10.112 14.0574 10.0988 14.0437 10.0898 14.0271Z" fill="#959595"/>
<path d="M11.4051 15.8535C11.6029 15.8498 11.61 15.8535 11.6349 15.6709C11.6863 15.3411 11.6796 15.0043 11.615 14.677C11.5844 14.5292 11.556 14.521 11.4165 14.5728C11.2174 14.6467 11.021 14.7303 10.8197 14.7946C10.6945 14.836 10.6383 14.9092 10.654 15.0431C10.655 15.0507 10.655 15.0584 10.654 15.066C10.6397 15.4579 10.6404 15.4564 10.9798 15.6368C11.0509 15.6731 11.1363 15.6834 11.1775 15.7655C10.999 15.7396 10.8567 15.628 10.7016 15.5437C10.6789 15.5311 10.6593 15.5131 10.6446 15.4911C10.6299 15.4691 10.6204 15.4438 10.617 15.4172C10.5892 15.2309 10.5593 15.0475 10.5337 14.8582C10.5299 14.8239 10.5363 14.7892 10.5521 14.7587C10.5679 14.7283 10.5922 14.7037 10.6219 14.6881C10.7111 14.6221 10.8064 14.5656 10.9065 14.5195C11.1676 14.4175 11.3959 14.2526 11.6413 14.121C11.812 14.0293 11.9052 14.047 11.9614 14.2349C12.024 14.4426 12.125 14.6416 12.1087 14.8708C12.0973 15.032 12.0902 15.0409 11.9472 14.978C11.7651 14.8974 11.7167 14.9314 11.7117 15.1385C11.7068 15.3455 11.7317 15.5474 11.674 15.7485C11.6242 15.9223 11.5894 15.937 11.4051 15.8535Z" fill="#949494"/>
<path d="M8.01338 15.3907C8.01338 15.2694 8.01338 15.1481 8.01979 15.0269C8.02579 14.9773 8.01391 14.9272 7.98645 14.8862C7.95899 14.8453 7.9179 14.8163 7.87111 14.805C7.65771 14.7311 7.4443 14.6453 7.23089 14.5699C7.10214 14.5248 7.09289 14.5359 7.04736 14.6749C7.01859 14.7768 7.00656 14.8831 7.0118 14.9891C7.0118 15.194 7.0118 15.3995 7.01606 15.6036C7.02389 15.8432 7.04523 15.8587 7.27429 15.8454C7.10214 15.9992 6.99757 15.9386 6.98192 15.7367C6.96627 15.5348 6.91078 15.3367 6.9556 15.1304C6.98619 14.9766 6.89727 14.9085 6.74219 14.9514C6.68955 14.9655 6.65256 15.0572 6.59067 15.0002C6.52879 14.9433 6.54444 14.8523 6.55724 14.7695C6.58856 14.584 6.63618 14.4018 6.69951 14.2253C6.75927 14.0515 6.83325 14.0316 6.98405 14.1151C7.31128 14.2956 7.63494 14.4848 7.96999 14.6512C8.08808 14.7096 8.12578 14.7828 8.10586 14.896C8.08238 15.0623 8.11368 15.2413 8.01338 15.3907Z" fill="#959595"/>
<path d="M9.31873 14.9366C9.34727 14.9389 9.37558 14.9436 9.40338 14.9506C9.57695 15.0031 9.69646 15.2006 9.64809 15.3507C9.60469 15.4838 9.39698 15.5592 9.23408 15.4986C9.2135 15.4908 9.19332 15.4819 9.17361 15.4719C9.01854 15.3916 8.95594 15.2762 8.98582 15.1259C9.00716 15.0039 9.12453 14.9322 9.31873 14.9366Z" fill="#393939"/>
<path d="M9.95898 13.9384C9.98703 13.9378 10.0146 13.9458 10.0383 13.9615C10.062 13.9771 10.0807 13.9997 10.092 14.0264C10.0634 14.0307 10.0342 14.0242 10.0098 14.008C9.9854 13.9919 9.96737 13.9672 9.95898 13.9384Z" fill="#959595"/>
<path d="M11.2736 15.8054C11.2974 15.799 11.3226 15.8001 11.3459 15.8086C11.3692 15.817 11.3895 15.8323 11.4044 15.8528C11.3532 15.8602 11.3041 15.8609 11.2736 15.8054Z" fill="#949494"/>
<path d="M25.5981 7.73819C25.3218 7.75492 25.0446 7.73203 24.7744 7.67016C24.6904 7.6502 24.5496 7.65241 24.5524 7.53558C24.5524 7.4402 24.6897 7.43798 24.7701 7.42171C25.1838 7.32679 25.6098 7.3043 26.0306 7.35516C26.2184 7.38252 26.4083 7.38622 26.5897 7.45203C26.6381 7.46977 26.6993 7.47643 26.705 7.53928C26.7107 7.60213 26.6431 7.6184 26.5983 7.63319C26.3828 7.70665 26.1571 7.74238 25.9303 7.73893C25.8286 7.73671 25.7261 7.73819 25.5981 7.73819Z" fill="#777878"/>
<path d="M41.5097 15.8979C41.6199 15.8912 41.6925 15.8077 41.78 15.7552C41.8093 15.7326 41.844 15.7187 41.8803 15.715C41.9166 15.7112 41.9532 15.7177 41.9863 15.7337C42.3299 15.9045 42.6457 16.1264 42.9751 16.3253C43.0391 16.363 43.0462 16.4155 42.9971 16.4732C42.6585 16.8998 42.2502 17.2193 41.7238 17.3494C41.5346 17.396 41.4862 17.3494 41.4542 17.1394C41.4008 16.7926 41.4492 16.4399 41.3887 16.0946C41.3695 15.9844 41.4599 15.957 41.509 15.8972L41.5097 15.8979Z" fill="#363636"/>
<path d="M40.4874 13.4237C40.4186 13.452 40.3595 13.5009 40.3174 13.5642C40.2645 13.5965 40.2037 13.6125 40.1424 13.6101C40.081 13.6078 40.0215 13.5872 39.971 13.5509C39.7996 13.4503 39.6153 13.3771 39.4787 13.2189C39.372 13.0947 39.3656 13.0059 39.4787 12.8854C39.6767 12.6713 39.9204 12.5087 40.1901 12.4107C40.3587 12.3493 40.3864 12.3671 40.4874 12.5327C40.4995 12.719 40.5088 12.9024 40.5259 13.0917C40.5313 13.2039 40.5183 13.3161 40.4874 13.4237Z" fill="#373636"/>
<path d="M9.82666 16.312C9.92768 16.3053 9.99739 16.2328 10.0763 16.1803C10.1106 16.1521 10.1521 16.135 10.1957 16.1313C10.2392 16.1276 10.2829 16.1375 10.3211 16.1596C10.6433 16.3378 10.9535 16.536 11.2664 16.7305C11.3475 16.7808 11.3589 16.8303 11.2942 16.9094C10.9485 17.3265 10.5451 17.6489 10.0138 17.7723C9.86081 17.8093 9.79465 17.7723 9.76833 17.6156C9.75135 17.4958 9.74113 17.375 9.73775 17.254C9.72636 17.0322 9.74486 16.8103 9.70431 16.5966C9.6899 16.5423 9.69374 16.4845 9.71521 16.4327C9.73668 16.381 9.77449 16.3384 9.8224 16.312H9.82666Z" fill="#363636"/>
<path d="M8.94172 16.3623C8.96448 16.7712 8.92038 17.1756 8.89691 17.5853C8.88695 17.7628 8.79874 17.8138 8.63442 17.7731C8.12438 17.6481 7.72815 17.3398 7.38812 16.942C7.29422 16.8318 7.29849 16.7941 7.42298 16.7135C7.72033 16.5227 8.01767 16.3312 8.33067 16.1685C8.37059 16.1428 8.41717 16.1306 8.46404 16.1335C8.5109 16.1365 8.55575 16.1544 8.59245 16.1848C8.69844 16.2587 8.80087 16.3549 8.94101 16.3615L8.94172 16.3623Z" fill="#363636"/>
</g>
<defs>
<clipPath id="clip0_166_709">
<rect width="52" height="21" fill="white"/>
</clipPath>
</defs>
</svg>
