<svg width="52" height="21" viewBox="0 0 52 21" fill="none" xmlns="http://www.w3.org/2000/svg">
<g clip-path="url(#clip0_166_798)">
<path d="M0.723114 19.6819C0.723114 19.856 1.36336 20.0283 2.60731 20.1892C3.85125 20.35 5.67453 20.4962 7.97304 20.6193C10.2716 20.7424 13.0003 20.84 16.0034 20.9066C19.0066 20.9732 22.2253 21.0075 25.4759 21.0075C28.7265 21.0075 31.9453 20.9732 34.9484 20.9066C37.9516 20.84 40.6803 20.7424 42.9788 20.6193C45.2773 20.4962 47.1006 20.35 48.3445 20.1892C49.5885 20.0283 50.2287 19.856 50.2287 19.6819C50.2287 19.3303 47.6209 18.9931 42.9788 18.7445C38.3368 18.4959 32.0408 18.3562 25.4759 18.3562C18.9111 18.3562 12.6151 18.4959 7.97305 18.7445C3.33099 18.9931 0.723114 19.3303 0.723114 19.6819Z" fill="#191919"/>
<path d="M50.8335 9.8596C50.8685 9.91252 50.8831 9.97646 50.8748 10.0395C50.9351 11.175 50.992 12.3105 50.9514 13.4481C50.9292 13.9808 50.8766 14.5119 50.7936 15.0385C50.7692 15.2026 50.7103 15.2334 50.5607 15.1486C50.5092 15.1192 50.4686 15.137 50.4253 15.1376C49.998 15.1479 49.5884 15.2656 49.176 15.36C48.4576 15.5241 47.7284 15.6267 47.0094 15.7704C46.6275 15.8449 46.2477 15.927 45.8665 16.005C45.8123 16.016 45.7574 16.0221 45.7033 16.0303C45.578 15.7895 45.5577 15.5187 45.5117 15.2594C45.3568 14.4284 45.0478 13.6344 44.601 12.9193C44.383 12.5588 44.0783 12.3037 43.7208 12.0985C43.148 11.7612 42.5196 11.6032 41.8723 11.5512C41.1577 11.4821 40.437 11.5185 39.7328 11.6593C38.4876 11.9261 37.56 12.6587 36.8409 13.6909C36.5701 14.074 36.3582 14.4817 36.3115 14.9591C36.3121 14.9859 36.3072 15.0124 36.2971 15.0372C36.287 15.0619 36.2719 15.0842 36.2528 15.1028C36.2337 15.1213 36.211 15.1356 36.1861 15.1448C36.1612 15.154 36.1348 15.1578 36.1083 15.1561C36.0663 15.1561 36.0244 15.1602 35.9831 15.1602C34.5294 15.1801 33.0716 15.1855 31.622 15.2149C30.5014 15.2382 29.3808 15.1992 28.263 15.2539C27.1979 15.3052 26.1329 15.2409 25.0705 15.2943C24.0197 15.347 22.9716 15.284 21.92 15.3374C20.897 15.3894 19.8739 15.3271 18.8529 15.3784C17.733 15.4352 16.6131 15.3839 15.4938 15.4202C15.112 15.4325 14.7301 15.4605 14.3475 15.455C14.0984 15.4516 14.0578 15.4085 13.9751 15.1725C13.6779 14.323 13.2784 13.5343 12.6487 12.8796C12.4253 12.6484 12.229 12.3926 11.9791 12.186C11.4151 11.7181 10.7529 11.502 10.0447 11.4137C9.27676 11.3173 8.49816 11.3543 7.7426 11.5232C7.02557 11.6798 6.40603 12.0342 5.8251 12.4658C5.62603 12.6129 5.50484 12.8359 5.38499 13.05C5.11416 13.537 4.90629 14.0466 4.84333 14.6109C4.79119 15.0631 4.62463 15.4968 4.64833 15.9633C4.65781 16.1493 4.67879 16.3108 4.85145 16.4147C4.78848 16.4661 4.72077 16.4483 4.65307 16.4305C4.12291 16.2937 3.58531 16.1801 3.05718 16.0289C2.42275 15.8477 1.77614 15.7061 1.16473 15.4461C1.01103 15.3777 0.864107 15.3018 0.715149 15.2245C0.544644 15.1287 0.406808 14.983 0.319732 14.8066C0.187009 14.5435 0.0849881 14.2657 0.0157217 13.9789C0.00398859 13.9422 0.00093932 13.9032 0.00681856 13.865C0.0126978 13.8269 0.0273419 13.7907 0.0495759 13.7593C0.124055 13.6492 0.19244 13.5343 0.270305 13.4275C0.292777 13.4011 0.30848 13.3695 0.316036 13.3355C0.323592 13.3015 0.322769 13.2662 0.313638 13.2326C0.261127 13.0045 0.288898 12.7651 0.39218 12.5554C0.443585 12.4325 0.466735 12.2994 0.459888 12.1662C0.453795 11.7804 0.455826 11.3939 0.455149 11.0074C0.455149 10.8275 0.546555 10.6709 0.585826 10.5005C0.625097 10.3302 0.760513 10.3008 0.901347 10.2707C1.64614 10.1127 2.38754 9.97315 3.13166 9.83156C3.82782 9.69479 4.49547 9.43794 5.10536 9.07227C5.61656 8.77266 6.12098 8.46621 6.63827 8.17413C6.78739 8.09616 6.92429 7.99635 7.04452 7.87794C7.08718 7.83348 7.14947 7.78559 7.12577 7.71856C7.09734 7.63989 7.01879 7.67546 6.96124 7.68025C6.29635 7.73361 5.63281 7.79312 4.96994 7.86768C4.12088 7.9639 3.2734 8.07266 2.42749 8.19397C2.12416 8.23706 1.82692 8.31025 1.52629 8.36703C1.45114 8.38071 1.31437 8.45253 1.33671 8.26237C1.3577 8.22475 1.38411 8.18234 1.42947 8.18781C1.55744 8.20423 1.65562 8.13172 1.76395 8.08726C2.19022 7.91418 2.62556 7.76484 3.06801 7.63989C4.73973 7.14944 6.43244 6.70344 8.14682 6.37374C8.87062 6.23693 9.59984 6.12406 10.3297 6.02146C10.6466 5.97699 10.9608 5.91543 11.2776 5.8655C11.3512 5.84823 11.4204 5.81561 11.4808 5.76973C11.929 5.48654 12.3698 5.19103 12.8309 4.92768C14.5705 3.93454 16.3811 3.07391 18.2475 2.35296C19.0275 2.0513 19.813 1.76468 20.6018 1.48696C21.6582 1.10664 22.7457 0.821204 23.8518 0.633966C24.3318 0.555301 24.818 0.519047 25.3014 0.459536C25.8817 0.391132 26.4606 0.315204 27.0429 0.265269C27.2853 0.244748 27.5277 0.222174 27.7707 0.205757C28.288 0.170187 28.806 0.137354 29.324 0.103836C30.2482 0.0436402 31.1731 0.0354318 32.1 0.0162787C32.5875 0.00670212 33.0743 -0.00834674 33.5611 -0.000138274C34.633 0.0176467 35.7034 0.0456923 36.7719 0.13667C37.0698 0.162663 37.3697 0.162663 37.6683 0.184552C38.2919 0.234487 38.9169 0.273477 39.5418 0.3111C39.8749 0.330709 40.2085 0.345529 40.5425 0.355562C41.3077 0.376767 42.07 0.439015 42.8311 0.519047C43.4533 0.587451 44.0783 0.626442 44.7032 0.668852C45.5157 0.723575 46.3282 0.770774 47.1407 0.815236C47.4048 0.830285 47.6695 0.825497 47.9336 0.835073C48.069 0.839862 48.2105 0.854911 48.3486 0.869959C48.3839 0.869469 48.4186 0.879708 48.448 0.899346C48.4775 0.918985 48.5004 0.947116 48.5139 0.98009C48.5409 1.05739 48.4949 1.1169 48.4461 1.16546C48.369 1.2468 48.2845 1.32055 48.1936 1.38572C47.9424 1.56358 47.7115 1.76673 47.4779 1.96716C47.3926 2.04035 47.3852 2.09713 47.4508 2.19289C48.1956 3.27162 48.7447 4.45432 49.283 5.64387C49.2024 5.72116 49.1002 5.69722 49.0054 5.70201C48.6222 5.72048 48.4753 5.9168 48.587 6.28755C48.7028 6.67471 48.9079 7.01947 49.1151 7.36081C49.1882 7.4812 49.2674 7.5968 49.3311 7.72198C49.4049 7.86494 49.3798 7.90941 49.2261 7.93266C49.1916 7.93757 49.1567 7.9394 49.1219 7.93814C48.1272 7.91556 47.1333 7.95182 46.1393 7.98465C44.1988 8.04827 42.2657 8.19465 40.3706 8.66253C40.263 8.69165 40.1535 8.71269 40.0429 8.72546C39.9014 8.73846 39.8296 8.668 39.8397 8.52778C39.8919 7.73566 39.8655 6.94081 39.9135 6.14869C39.9244 5.97357 40.0185 5.91612 40.1722 5.9209C40.722 5.93664 41.2697 5.84429 41.8188 5.87918C41.9192 5.88514 42.0197 5.87064 42.1144 5.83657C42.2091 5.80249 42.296 5.74952 42.37 5.68081C43.1358 5.03986 43.8819 4.37361 44.6673 3.75729C45.1384 3.38536 45.5799 2.97664 45.9877 2.53491C46.2524 2.24967 46.1833 1.91928 45.8414 1.73458C45.7123 1.66355 45.5685 1.62396 45.4216 1.61898C45.102 1.61077 44.7858 1.55673 44.4642 1.56426C43.8799 1.57862 43.299 1.50885 42.7167 1.46371C42.3443 1.42905 41.9719 1.39507 41.5995 1.36178C41.3855 1.34331 41.1743 1.28722 40.9576 1.31185C40.0855 1.24436 39.2121 1.19875 38.3373 1.17504C38.0123 1.16752 37.6859 1.1381 37.3596 1.1381C37.1361 1.1381 37.1307 1.1381 37.2275 1.35289C37.3404 1.60188 37.4564 1.8495 37.5756 2.09576C38.0495 3.08077 38.4835 4.08563 38.9297 5.08501C39.0157 5.29911 39.1153 5.50774 39.1918 5.72527C39.2094 5.79668 39.2514 5.85954 39.3103 5.90282C39.3692 5.9461 39.4414 5.96703 39.5141 5.96195C39.7971 5.96742 39.8167 5.99752 39.8201 6.28344C39.8201 6.4654 39.816 6.64735 39.8248 6.83068C39.7639 7.40253 39.7849 7.97644 39.7835 8.54898C39.7835 8.74051 39.7023 8.83833 39.5215 8.89442C39.1087 9.01447 38.7034 9.15905 38.3075 9.32742C37.1896 9.80625 36.1984 10.467 35.4319 11.4363C34.9857 11.9905 34.6769 12.6443 34.5314 13.3434C34.4793 13.5958 34.4359 13.643 34.1834 13.6362C33.2991 13.6136 32.4169 13.7005 31.5333 13.6806C30.4053 13.6546 29.2799 13.7415 28.1526 13.7244C28.0761 13.7244 27.9989 13.7244 27.9224 13.7244C27.764 13.7244 27.682 13.6451 27.6516 13.4898C27.5866 13.13 27.5365 12.7679 27.5012 12.4035C27.4051 11.3898 27.3306 10.3733 27.2981 9.35546C27.2697 8.42928 27.204 7.5024 27.2345 6.57142C27.2101 6.75612 27.162 6.9367 27.1668 7.12481C27.1769 8.17208 27.2081 9.21797 27.2839 10.2618C27.3618 11.3269 27.4078 12.3946 27.5818 13.4508C27.6177 13.669 27.5737 13.7244 27.355 13.7244C26.8743 13.7135 26.3969 13.7785 25.9162 13.7744C24.4618 13.762 23.0047 13.8058 21.5537 13.8277C20.5869 13.8421 19.6186 13.8127 18.6538 13.8626C17.6382 13.9153 16.6225 13.8818 15.6069 13.8982C15.46 13.8982 15.3171 13.9358 15.1702 13.9406C14.9271 13.9481 14.8709 13.9098 14.8533 13.6622C14.8276 13.3202 14.7856 12.9781 14.7585 12.6361C14.6983 11.7954 14.6157 10.9561 14.638 10.112C14.6357 10.0629 14.6275 10.0142 14.6136 9.967C14.5676 9.62498 14.5838 9.28296 14.5656 8.93683C14.5317 8.30615 14.4857 7.67478 14.5107 7.04136C14.5209 6.78142 14.569 6.72465 14.8262 6.69318C14.8608 6.68839 14.8957 6.68633 14.9305 6.68703C15.6333 6.71302 16.3348 6.65351 17.0362 6.63504C18.0647 6.60905 19.0925 6.57074 20.1217 6.54954C20.9897 6.53175 21.8584 6.49481 22.7265 6.46882C23.6649 6.44009 24.602 6.38947 25.5404 6.39015C25.6975 6.39015 25.7869 6.32996 25.8112 6.16716C26.0692 4.57061 26.445 2.99732 26.7145 1.40351C26.7185 1.3823 26.7219 1.36178 26.7246 1.34058C26.7497 1.13947 26.7152 1.09638 26.5141 1.11827C26.0922 1.16341 25.6711 1.21472 25.2493 1.25507C23.3609 1.43361 21.5395 1.93501 19.7385 2.49182C17.6955 3.122 15.7289 3.98174 13.8756 5.05491C13.2893 5.39693 12.7009 5.72732 12.1782 6.16374C12.0444 6.26548 11.9298 6.39058 11.8396 6.53312C11.8044 6.594 11.7658 6.6624 11.8031 6.73149C11.8403 6.80058 11.9216 6.78827 11.9913 6.78553C12.686 6.7568 13.3807 6.7397 14.0754 6.72191C14.4444 6.71234 14.4478 6.72944 14.4301 7.09472C14.4031 7.65015 14.4613 8.20423 14.4843 8.75761C14.504 9.21318 14.4958 9.67081 14.552 10.1257C14.5662 10.8097 14.6197 11.4849 14.6637 12.1634C14.6969 12.6895 14.7599 13.2121 14.7992 13.7367C14.8113 13.8886 14.852 13.9611 15.0199 13.9638C15.6394 13.9741 16.2562 13.9755 16.8758 13.944C17.6118 13.9064 18.3511 13.9577 19.0878 13.9289C20.1935 13.8859 21.3005 13.9289 22.4055 13.8818C23.3243 13.8428 24.2424 13.8879 25.1585 13.8448C26.2297 13.7949 27.3022 13.8448 28.3713 13.7976C29.1364 13.7641 29.9022 13.8051 30.6653 13.7593C31.6741 13.6984 32.6823 13.7429 33.6905 13.7224C33.9335 13.7169 34.1739 13.6697 34.4183 13.6765C34.5009 13.6765 34.568 13.6526 34.5693 13.5459C34.5741 13.1184 34.744 12.7374 34.9255 12.3659C35.4962 11.1996 36.415 10.3884 37.5329 9.77957C37.8138 9.62445 38.1027 9.48448 38.3982 9.36025C39.6694 8.87505 40.9924 8.54171 42.3402 8.36703C43.3193 8.23432 44.3037 8.15634 45.2896 8.10367C46.6173 8.03527 47.9458 8.02774 49.2742 8.02843C49.3508 8.02422 49.4271 8.04108 49.4949 8.07722C49.5628 8.11336 49.6196 8.16742 49.6595 8.23364C50.0258 8.79045 50.3833 9.35204 50.7171 9.92937C50.7544 9.99342 50.7824 10.0625 50.8004 10.1346C50.8017 10.0593 50.7333 9.94921 50.8335 9.8596Z" fill="#848484"/>
<path d="M4.84723 16.4094C4.62786 16.38 4.60416 16.354 4.59536 16.1358C4.57424 15.7497 4.61192 15.3626 4.70708 14.988C4.76666 14.7657 4.78494 14.5331 4.8303 14.3039C4.96215 13.6774 5.23199 13.089 5.61978 12.5822C5.7608 12.4074 5.93568 12.2636 6.13369 12.1595C6.4878 11.9543 6.83853 11.7299 7.22989 11.5986C7.65912 11.4567 8.10342 11.3664 8.55359 11.3297C8.87866 11.2972 9.2056 11.2878 9.53197 11.3017C10.117 11.3338 10.6938 11.4214 11.2369 11.6567C11.7257 11.8666 12.1571 12.1928 12.4942 12.6075C12.6926 12.8517 12.9113 13.0775 13.1036 13.3251C13.3624 13.6647 13.576 14.0373 13.7387 14.4332C13.8585 14.7068 14.0095 14.9729 14.0705 15.2712C14.0727 15.2887 14.0784 15.3056 14.0872 15.3209C14.096 15.3362 14.1078 15.3495 14.1218 15.3601C14.1358 15.3707 14.1518 15.3783 14.1688 15.3826C14.1858 15.3868 14.2035 15.3875 14.2208 15.3847C14.5749 15.3717 14.9297 15.4087 15.2831 15.3594C15.3454 15.3527 15.4081 15.3504 15.4707 15.3526C16.3272 15.3485 17.1837 15.3615 18.0395 15.3368C19.2007 15.3026 20.3633 15.3286 21.5238 15.291C22.4006 15.2616 23.2774 15.2842 24.1529 15.2561C25.3838 15.2164 26.6161 15.2431 27.8464 15.2069C28.925 15.1754 30.0036 15.2069 31.0808 15.1672C32.2007 15.1241 33.3213 15.1624 34.4405 15.1227C34.9896 15.1036 35.5387 15.1056 36.0879 15.0947C36.1752 15.0947 36.2531 15.0981 36.2551 14.9695C36.2619 14.5762 36.4271 14.2349 36.6194 13.9065C37.0587 13.1697 37.6692 12.5522 38.3981 12.1075C38.8647 11.8252 39.3816 11.6379 39.9195 11.5562C40.5377 11.4519 41.1664 11.4259 41.7909 11.4789C42.64 11.5473 43.4444 11.7723 44.1397 12.3052C44.4194 12.5193 44.6137 12.8004 44.7769 13.1028C45.0579 13.6206 45.3185 14.1507 45.4506 14.7308C45.5345 15.0926 45.6076 15.4572 45.6814 15.8211C45.6914 15.8907 45.6966 15.9609 45.697 16.0311C45.6104 16.0565 45.525 16.0879 45.4377 16.1064C45.326 16.1296 45.282 16.1857 45.2732 16.3061C45.2686 16.5022 45.2287 16.6957 45.1554 16.8773C45.0775 16.7993 45.1107 16.707 45.1262 16.6194C45.2156 16.1132 45.2705 15.6057 45.177 15.0933C45.0384 14.3118 44.6805 13.5869 44.1458 13.005C43.8655 12.6958 43.4769 12.5261 43.1492 12.2812C42.4179 11.7292 41.5837 11.6382 40.7117 11.7135C39.7847 11.7928 38.9953 12.1827 38.3317 12.8196C37.8904 13.2418 37.55 13.7599 37.3364 14.3347C37.3036 14.4324 37.2658 14.5283 37.2233 14.622C37.7278 13.6555 38.4725 12.955 39.518 12.6472C41.126 12.1745 42.5696 12.5405 43.7917 13.6801C44.5204 14.3513 44.9819 15.268 45.0897 16.2582C45.1147 16.4635 45.0579 16.6769 45.1574 16.8739C45.158 16.9083 45.1548 16.9427 45.1479 16.9765C44.9149 17.7977 44.4405 18.5281 43.7877 19.071C43.7403 19.11 43.6901 19.1469 43.6414 19.1846C43.357 19.5266 42.9765 19.6839 42.5581 19.7783C41.9724 19.9793 41.351 20.052 40.7354 19.9917C40.4056 19.9488 40.0803 19.8767 39.7631 19.7763C39.388 19.7202 39.0799 19.5197 38.7826 19.3015C38.7112 19.2465 38.6361 19.1965 38.5579 19.1517C37.7537 18.5169 37.2081 17.6062 37.0243 16.5921C36.9525 16.2193 36.9566 16.2179 36.5733 16.2179C35.7385 16.2179 34.903 16.2008 34.0681 16.2179C30.3665 16.3061 26.6635 16.2097 22.964 16.2678C21.5516 16.2904 20.1398 16.289 18.7274 16.2965C17.0573 16.3048 15.3872 16.3048 13.717 16.2965C13.5058 16.2965 13.3494 16.3321 13.2918 16.5592C13.2838 16.5692 13.2724 16.5757 13.2598 16.5775C13.2473 16.5793 13.2345 16.5762 13.2241 16.5688C13.1978 16.5312 13.181 16.4876 13.1753 16.442C13.1695 16.3963 13.1749 16.3499 13.1909 16.3068C13.3379 15.8369 13.2586 15.3704 13.155 14.9134C12.9844 14.1521 12.6459 13.4769 12.0771 12.9297C11.9415 12.7983 11.7897 12.6849 11.6255 12.5925C11.203 12.3544 10.8503 12.0042 10.3682 11.8571C8.83051 11.3879 7.09583 11.8865 6.06598 13.1158C5.74369 13.5009 5.52025 13.9448 5.31103 14.397C5.28472 14.4395 5.26444 14.4856 5.25077 14.5338C5.24603 14.5522 5.23994 14.5707 5.23385 14.5892C5.21083 14.6979 5.16614 14.8012 5.14786 14.9264C5.1965 14.8453 5.2298 14.7558 5.24603 14.6624C5.44652 14.1712 5.7716 13.742 6.18853 13.4181C6.24332 13.3979 6.2906 13.3611 6.32395 13.3128C6.73514 12.9649 7.22262 12.7212 7.74583 12.6021C7.79427 12.5961 7.84224 12.5868 7.88937 12.574C7.9173 12.566 7.94583 12.5603 7.97468 12.5569C8.02271 12.5519 8.07012 12.5421 8.11619 12.5275C8.14537 12.5192 8.17532 12.5139 8.20557 12.5118C8.28928 12.5134 8.37278 12.5026 8.45338 12.4796C8.50806 12.4674 8.56395 12.4617 8.61994 12.4625C8.73504 12.4625 8.85083 12.4625 8.96593 12.4625C9.03404 12.4599 9.10222 12.4654 9.16905 12.4789C9.23944 12.5007 9.3128 12.5111 9.3864 12.5097C9.4268 12.511 9.46695 12.5165 9.50624 12.5261C9.55201 12.5407 9.59859 12.5526 9.64572 12.5617C9.66423 12.5653 9.68253 12.5699 9.70057 12.5754C9.74489 12.5884 9.79017 12.5978 9.83598 12.6034C9.94002 12.6286 10.0426 12.6594 10.1434 12.6958C10.1901 12.7129 10.2368 12.7279 10.2835 12.743C10.7041 12.9038 11.0983 13.1277 11.4529 13.4072C11.4963 13.4476 11.5432 13.484 11.593 13.5159C12.2613 14.0848 12.7441 14.8441 12.9783 15.6946C12.9905 15.75 12.9912 15.8075 13.0081 15.8622C13.014 15.8799 13.019 15.898 13.023 15.9162C13.032 15.9716 13.0451 16.0263 13.0623 16.0797C13.0709 16.1082 13.0761 16.1376 13.0779 16.1673C13.0796 16.2405 13.091 16.3132 13.1117 16.3834C13.1249 16.451 13.1302 16.5198 13.1273 16.5886C13.1002 16.8137 13.0508 16.867 12.8314 16.8793C12.6311 16.8896 12.4304 16.8896 12.2301 16.8793C12.004 16.8677 11.8029 16.8965 11.6817 17.1201C11.568 17.0764 11.6066 16.9833 11.6275 16.9115C12.0338 15.4901 11.0703 13.8265 9.46833 13.5358C7.6964 13.2143 6.30228 14.5242 6.27588 16.0975C6.26354 16.315 6.27947 16.5333 6.32327 16.7466C6.3372 16.7794 6.34335 16.8151 6.34124 16.8507C6.33912 16.8863 6.3288 16.921 6.31109 16.9519C6.10119 16.9895 5.90077 16.9053 5.69359 16.9026C5.63129 16.9026 5.56968 16.8841 5.50739 16.8807C5.38551 16.8739 5.29478 16.893 5.33609 17.0538C5.34586 17.0805 5.3474 17.1095 5.34051 17.1371C5.33362 17.1647 5.31862 17.1896 5.29749 17.2084C5.1939 17.0209 5.16208 16.8123 5.12145 16.6078C5.07202 16.3752 5.07405 16.3752 4.84723 16.4094Z" fill="#3C3C3C"/>
<path d="M42.7307 1.41937C43.1126 1.42758 43.4924 1.46178 43.873 1.49461C44.0464 1.50738 44.2205 1.51126 44.3943 1.50624C44.797 1.50789 45.1991 1.53325 45.5989 1.58217C45.7514 1.60333 45.8949 1.66786 46.0126 1.76823C46.0694 1.81324 46.1163 1.86977 46.1503 1.93419C46.1843 1.99861 46.2045 2.0695 46.2097 2.14229C46.215 2.21509 46.2051 2.28818 46.1807 2.35688C46.1563 2.42558 46.1179 2.48836 46.0681 2.54119C45.6087 3.03888 45.1086 3.49653 44.5731 3.90927C44.1783 4.21846 43.7951 4.54338 43.4166 4.87377C43.0232 5.21579 42.6156 5.54618 42.2148 5.88204C42.1653 5.92138 42.1028 5.94022 42.0401 5.93471C41.9568 5.93471 41.8729 5.93471 41.7896 5.93471C41.2407 5.94976 40.692 5.96504 40.1436 5.98054C39.973 5.98533 39.9696 5.98738 39.9676 6.16044C39.9588 6.85543 39.9032 7.54973 39.9229 8.2454C39.9199 8.32937 39.9111 8.41303 39.8965 8.49575C39.8768 8.67155 39.912 8.70097 40.0752 8.66745C40.4002 8.59494 40.7245 8.51833 41.0502 8.44787C41.6203 8.32406 42.1965 8.24266 42.7747 8.16673C43.2704 8.09833 43.768 8.06002 44.2643 8.01624C44.5352 7.9923 44.806 7.97725 45.0768 7.96426C45.6862 7.93621 46.2996 7.93553 46.9104 7.90611C47.6755 7.86849 48.4392 7.8938 49.2037 7.88012H49.3458C49.2805 7.73625 49.2021 7.59885 49.1116 7.4697C48.8997 7.14 48.7184 6.79126 48.5699 6.4279C48.5215 6.3038 48.4934 6.17258 48.4866 6.03937C48.4811 5.96917 48.4978 5.89901 48.5343 5.83902C48.5708 5.77902 48.6253 5.73229 48.6897 5.70556C48.88 5.60637 49.0818 5.63373 49.2829 5.64263L49.3661 5.72403C49.4176 5.84647 49.3201 5.84579 49.2517 5.85605C49.1488 5.87246 49.0432 5.85605 48.9403 5.88136C48.7412 5.93129 48.6958 5.99901 48.7493 6.1967C48.8265 6.45985 48.9383 6.71132 49.0818 6.94435C49.5815 7.78846 50.134 8.59904 50.6337 9.44383C50.7198 9.57086 50.7852 9.71105 50.8273 9.85904H50.8347V10.1689C50.7767 10.1392 50.7315 10.0891 50.7074 10.028C50.3689 9.42468 49.9884 8.84325 49.6133 8.26044C49.5818 8.20336 49.5347 8.1566 49.4777 8.12569C49.4207 8.09477 49.3562 8.08101 49.2917 8.08601C48.4792 8.09422 47.6626 8.08601 46.8488 8.09764C46.1825 8.10996 45.5163 8.14005 44.8507 8.17973C44.089 8.22556 43.3286 8.29259 42.5716 8.39246C41.1715 8.56635 39.7957 8.9019 38.4712 9.39253C38.4579 9.39642 38.4443 9.39895 38.4306 9.40005C38.3358 9.41031 38.2952 9.3679 38.3013 9.27145C38.7007 9.07377 39.13 8.95885 39.5491 8.8152C39.7082 8.76048 39.7116 8.76527 39.7136 8.6052C39.7136 8.3952 39.7184 8.1852 39.7136 7.9752C39.7136 7.59009 39.7313 7.20634 39.7583 6.82259C39.8078 6.58113 39.7685 6.33624 39.7807 6.09341C39.7807 6.04826 39.7739 6.00585 39.7197 6.00106C39.5539 5.98533 39.6114 5.89093 39.6575 5.8109C39.7712 5.60979 39.9188 5.43126 40.0454 5.23768C40.8322 4.03035 41.5817 2.79976 42.3522 1.58217C42.4491 1.431 42.5567 1.36054 42.7307 1.41937Z" fill="#363636"/>
<path d="M11.482 19.3145C11.3682 19.3241 11.31 19.426 11.2193 19.476C10.8683 19.6784 10.4878 19.8234 10.0919 19.9055C10.0513 19.9131 10.0073 19.9103 9.97683 19.9459C9.56331 20.0121 9.14332 20.0268 8.72625 19.9897C8.63417 19.9377 8.52313 20.002 8.43375 19.9507C8.42075 19.9471 8.40728 19.9455 8.39381 19.9459C8.05013 19.9196 7.71538 19.8228 7.41 19.6613C7.24886 19.582 7.08974 19.502 6.97058 19.3604C6.24738 18.894 5.68436 18.2134 5.35844 17.4115C5.32318 17.3513 5.30231 17.2836 5.2975 17.2138C5.30349 17.1368 5.29214 17.0594 5.26433 16.9874C5.22506 16.8506 5.23995 16.8342 5.38756 16.8274C5.42897 16.8229 5.47073 16.8229 5.51214 16.8274C5.77688 16.8725 6.05381 16.8575 6.30771 16.9512C6.40995 16.9628 6.4086 17.0558 6.435 17.1222C6.83651 18.1216 7.55693 18.7372 8.61318 18.9007C9.79672 19.082 10.8746 18.5409 11.417 17.4793C11.4806 17.3554 11.4915 17.1906 11.6431 17.1208C11.6672 17.107 11.685 17.0841 11.6926 17.0572C11.7731 16.852 11.8002 16.8301 12.0264 16.8281C12.2897 16.8281 12.5538 16.8281 12.8179 16.8281C13.0454 16.8281 13.0616 16.8075 13.0704 16.575C13.214 16.6146 13.1293 16.7118 13.1307 16.7747C13.195 16.7166 13.0955 16.5729 13.2275 16.5284L13.2438 16.5893C13.306 16.6659 13.279 16.7494 13.2587 16.8301C13.0061 17.822 12.4875 18.636 11.6655 19.2448C11.612 19.2796 11.5632 19.3412 11.482 19.3145Z" fill="#363636"/>
<path d="M1.3298 8.25704C1.34063 8.33092 1.3799 8.34118 1.44829 8.32545C1.71167 8.26594 1.97574 8.20369 2.24183 8.15923C2.60407 8.09971 2.96834 8.05388 3.33193 8.006C3.73096 7.95265 4.12954 7.9018 4.52766 7.85346C4.81678 7.81789 5.10589 7.78506 5.39501 7.75427C5.94615 7.6934 6.50068 7.67151 7.0498 7.59353C7.11751 7.58463 7.1798 7.58326 7.21094 7.65372C7.22199 7.68355 7.22369 7.71608 7.21582 7.74691C7.20795 7.77775 7.19088 7.80539 7.16693 7.8261C7.02053 7.98626 6.84867 8.12059 6.65844 8.22353C6.03891 8.58401 5.42141 8.94929 4.79511 9.29815C4.51508 9.45323 4.2251 9.58921 3.92709 9.70515C3.74225 9.77698 3.53709 9.79545 3.34074 9.83717C2.95412 9.91857 2.56751 10.002 2.18022 10.0786C1.74553 10.1655 1.30949 10.2462 0.873445 10.3276C0.754956 10.3495 0.643237 10.3762 0.580945 10.4952C0.565372 10.4179 0.62631 10.368 0.648654 10.3044C0.847039 9.71199 1.11246 9.14151 1.26818 8.53476C1.29121 8.44242 1.25532 8.33639 1.3298 8.25704Z" fill="#C7C7C7"/>
<path d="M50.8259 9.86039C50.528 9.3802 50.2306 8.9 49.9335 8.41981C49.6322 7.93346 49.3242 7.44984 49.0296 6.96007C48.8729 6.71221 48.7556 6.44098 48.6823 6.15632C48.6376 5.96616 48.6647 5.9217 48.8387 5.85466C48.9649 5.81586 49.0972 5.80125 49.2287 5.81157C49.291 5.81157 49.3594 5.81977 49.3641 5.72675C49.574 5.72675 49.7704 5.81088 49.9789 5.83209C50.0954 5.8444 50.1455 5.9388 50.182 6.04688C50.3114 6.44885 50.409 6.86057 50.4739 7.27815C50.6093 8.06 50.7284 8.84528 50.8178 9.63466C50.8326 9.70897 50.8353 9.7852 50.8259 9.86039Z" fill="#8E2B2B"/>
<path d="M8.43375 19.9486C8.53282 19.9284 8.63576 19.9421 8.72625 19.9876C8.62536 19.9999 8.52448 20.0109 8.43375 19.9486Z" fill="#AAAAAA"/>
<path d="M14.4896 10.1142C14.4483 9.41373 14.4273 8.71191 14.3968 8.01145C14.384 7.731 14.3738 7.45054 14.3704 7.17008C14.3685 7.11393 14.3703 7.05771 14.3758 7.00181C14.405 6.7795 14.4063 6.7795 14.1978 6.78018C13.5159 6.78018 12.8362 6.84106 12.1543 6.83148C12.0724 6.83148 11.9898 6.85953 11.9072 6.86295C11.7305 6.87047 11.6682 6.77881 11.7264 6.61259C11.7941 6.40738 11.9512 6.27057 12.1049 6.14471C12.5283 5.79087 12.9845 5.4791 13.4672 5.21373C14.1917 4.81015 14.9087 4.39288 15.6603 4.03992C16.5179 3.63634 17.3884 3.26536 18.2718 2.92699C19.4443 2.48724 20.6428 2.12172 21.8603 1.83253C22.7845 1.60543 23.7135 1.405 24.6472 1.22442C24.7299 1.21196 24.8135 1.20738 24.897 1.21074C25.2661 1.21074 25.6276 1.13891 25.9932 1.10471C26.2214 1.0835 26.4489 1.05956 26.6771 1.04657C26.8084 1.03973 26.8294 1.06025 26.8125 1.19021C26.7902 1.38448 26.757 1.57875 26.7191 1.77096C26.4787 3.00223 26.2336 4.2335 25.9939 5.46477C25.9411 5.73223 25.9045 6.0038 25.8585 6.27262C25.8334 6.41422 25.8125 6.43064 25.6709 6.44295C25.657 6.44397 25.6429 6.44397 25.629 6.44295C24.8361 6.43064 24.0439 6.48331 23.2517 6.50246C22.7656 6.51477 22.2781 6.51067 21.7933 6.54487C21.4175 6.57155 21.0424 6.55582 20.668 6.57976C20.022 6.62148 19.3747 6.59617 18.7295 6.62764C18.3334 6.64679 17.9359 6.62764 17.5426 6.66663C17.0977 6.70767 16.6522 6.67621 16.2094 6.71314C15.7788 6.7494 15.3481 6.7323 14.9175 6.75008H14.8958C14.5796 6.75898 14.5824 6.7624 14.5715 7.08321C14.5499 7.71595 14.6088 8.34663 14.6325 8.978C14.6453 9.30087 14.6507 9.62305 14.6616 9.94591C14.7022 10.1463 14.6697 10.3488 14.6785 10.5506C14.6785 10.6067 14.6616 10.6471 14.5979 10.6477C14.5343 10.6484 14.518 10.6087 14.5133 10.5533C14.4991 10.4042 14.539 10.2606 14.4896 10.1142Z" fill="#363636"/>
<path d="M34.8766 0.997998H34.9578C35.0005 1.05819 35.119 0.970636 35.1257 1.07119C35.1318 1.16148 35.0472 1.21484 34.9822 1.26614C34.3789 1.74497 33.7824 2.2238 33.1832 2.70262C31.7552 3.84497 30.2975 4.94901 28.8905 6.11871C28.6955 6.28083 28.4998 6.37249 28.2486 6.33624C28.1464 6.32187 28.0407 6.35881 27.9412 6.31435C27.9412 5.49897 27.9236 4.68292 27.9534 3.86823C27.9703 3.39761 27.9805 2.92767 27.9805 2.45774C27.9805 2.00764 28.0258 1.55959 28.0245 1.11018C28.0245 0.937118 28.0461 0.92891 28.2215 0.916597C29.0475 0.862007 29.8758 0.85082 30.703 0.883079C31.4052 0.907704 32.1073 0.90018 32.8094 0.919333C32.9408 0.919333 33.0721 0.94259 33.2028 0.954903C33.4493 1.00415 33.6984 0.966532 33.9476 0.976792C34.2557 0.991841 34.5671 0.957639 34.8766 0.997998Z" fill="#363636"/>
<path d="M36.2991 1.67314C36.3268 1.71302 36.3523 1.75435 36.3756 1.79695C36.792 2.63832 37.2132 3.47764 37.6215 4.32311C37.8733 4.8464 38.1056 5.37926 38.3466 5.90803C38.3574 5.93265 38.3635 5.95933 38.3778 6.00174C38.2361 6.0345 38.0917 6.05396 37.9465 6.05988C37.6756 6.05988 37.4048 6.05304 37.134 6.07083C36.6207 6.10503 36.1055 6.08451 35.5936 6.11803C35.1427 6.14812 34.6904 6.12487 34.2394 6.1577C33.7404 6.19464 33.2394 6.16796 32.7417 6.20353C32.3666 6.23021 31.9922 6.22337 31.6178 6.235C31.2508 6.27467 30.8831 6.24389 30.5155 6.2521C30.4254 6.2521 30.4268 6.20422 30.464 6.14402C30.501 6.09315 30.5469 6.04957 30.5994 6.01542C31.5365 5.27438 32.4736 4.53379 33.4107 3.79366C34.2916 3.1021 35.1582 2.39412 36.0378 1.71008C36.1163 1.64578 36.1942 1.54181 36.2991 1.67314Z" fill="#363636"/>
<path d="M36.2991 1.67314C36.2733 1.65611 36.2426 1.64845 36.212 1.65143C36.1813 1.65442 36.1526 1.66787 36.1305 1.68956C35.4216 2.25731 34.7161 2.8319 33.9984 3.39076C33.3145 3.92363 32.6442 4.4736 31.9637 5.01262C31.4898 5.38747 31.0118 5.75617 30.5365 6.1276C30.5184 6.13925 30.5033 6.15506 30.4925 6.17373C30.4817 6.1924 30.4754 6.2134 30.4742 6.235H31.6198C31.5683 6.28562 31.5033 6.27057 31.4417 6.27194C31.2616 6.27194 31.0808 6.27741 30.9 6.27194C30.1986 6.26304 29.4992 6.32461 28.8011 6.32392C28.5743 6.32392 28.3454 6.36018 28.1166 6.35539C28.0577 6.35539 27.9893 6.37865 27.9446 6.31298C28.014 6.30853 28.0837 6.30853 28.1531 6.31298C28.2822 6.33431 28.4144 6.32401 28.5388 6.28294C28.6631 6.24187 28.7758 6.17124 28.8674 6.07698C29.0862 5.8728 29.316 5.68119 29.556 5.50308C29.8905 5.24382 30.2189 4.97568 30.5514 4.71301C30.9874 4.36871 31.4241 4.02532 31.8615 3.68285C32.4939 3.18418 33.1304 2.68962 33.7573 2.18343C34.1575 1.86057 34.5549 1.53428 34.9619 1.22031C35.0191 1.18165 35.0657 1.12893 35.0973 1.06708C35.0648 1.01373 34.9842 1.05682 34.9619 0.99389C35.2239 0.99389 35.4873 1.00415 35.7493 0.99389C35.8151 0.98863 35.881 1.00358 35.9383 1.03678C35.9955 1.06998 36.0415 1.11988 36.0703 1.17995C36.1627 1.3362 36.2393 1.50142 36.2991 1.67314Z" fill="#474747"/>
<path d="M38.8761 5.10018C38.6901 4.68565 38.5039 4.27135 38.3175 3.85728C38.1218 3.4236 37.9282 2.98855 37.7298 2.55761C37.5219 2.10477 37.3073 1.65536 37.1041 1.20389C37.0845 1.16217 37.0473 1.12113 37.0818 1.05341C37.4461 1.11565 37.8212 1.05341 38.1915 1.11565C38.2259 1.12033 38.2605 1.12194 38.2951 1.12044C38.8368 1.10608 39.3785 1.15396 39.9201 1.18201C40.2587 1.19979 40.5972 1.18201 40.9358 1.25041C40.9852 1.29077 41.0427 1.27025 41.0962 1.27093C41.3203 1.2764 41.3488 1.32018 41.2317 1.51103C40.9504 1.9552 40.6713 2.39982 40.3941 2.8449C39.9716 3.5221 39.5335 4.18904 39.1307 4.87855C39.0677 4.97637 39.0298 5.11113 38.8761 5.10018Z" fill="#363636"/>
<path d="M14.4896 10.1142C14.5763 10.2175 14.5146 10.3406 14.5336 10.4528C14.5431 10.5089 14.5058 10.6013 14.5925 10.6047C14.6792 10.6081 14.6555 10.5164 14.6568 10.4603C14.6609 10.2873 14.6568 10.1142 14.6609 9.94184C14.709 9.99451 14.6968 10.0609 14.6954 10.1224C14.6846 10.6218 14.7137 11.1198 14.7496 11.6164C14.7922 12.1964 14.8173 12.7792 14.9006 13.3545C14.925 13.5262 14.9006 13.7047 14.9683 13.8764C15.8905 13.8019 16.814 13.8504 17.7362 13.8224C18.8696 13.7875 20.0038 13.8087 21.1365 13.7731C22.1169 13.7417 23.1001 13.7731 24.0771 13.7314C24.8632 13.6965 25.6486 13.7259 26.4333 13.6917C26.7604 13.6774 27.0861 13.6698 27.4124 13.6644C27.5478 13.6644 27.5559 13.6582 27.5323 13.5276C27.4287 12.9475 27.3799 12.3606 27.3291 11.7744C27.3095 11.5514 27.2993 11.327 27.2817 11.1033C27.2364 10.5233 27.1991 9.94047 27.1585 9.36246C27.1585 9.34125 27.1585 9.32005 27.1585 9.29884C27.17 8.60317 27.1037 7.90956 27.1131 7.21389C27.1165 6.98132 27.1626 6.75353 27.1551 6.52096C27.1551 6.44503 27.1815 6.39715 27.2662 6.41014C27.3508 6.42314 27.3569 6.47855 27.3515 6.54695C27.304 7.15581 27.3062 7.76759 27.3582 8.37607C27.3606 8.41799 27.3606 8.46001 27.3582 8.50193C27.3393 9.09294 27.3874 9.6819 27.4151 10.2702C27.4456 10.9063 27.4991 11.5425 27.56 12.1773C27.6033 12.6315 27.6575 13.0823 27.7313 13.5324C27.7476 13.6295 27.7801 13.6657 27.8755 13.6623C28.4795 13.6391 29.0855 13.6897 29.6888 13.6254C29.7443 13.6199 29.7998 13.6254 29.856 13.6254C30.6279 13.6254 31.4011 13.6343 32.173 13.611C32.8677 13.5891 33.563 13.5843 34.2577 13.5755C34.4351 13.5755 34.4304 13.5693 34.4608 13.3894C34.5537 12.8837 34.7372 12.3994 35.0025 11.9604C35.5997 10.9693 36.4359 10.2339 37.44 9.68943C37.721 9.53757 37.9993 9.37682 38.3046 9.27421C38.3318 9.33083 38.3775 9.37625 38.434 9.40281C38.3182 9.4979 38.1719 9.53004 38.0406 9.59229C37.3994 9.88442 36.8033 10.2685 36.2707 10.7326C35.4934 11.4255 34.9165 12.2539 34.6599 13.2861C34.6349 13.3894 34.6091 13.4913 34.6504 13.5946C34.6829 13.6787 34.6362 13.7314 34.5556 13.7458C34.5211 13.7503 34.4862 13.7522 34.4514 13.7512C33.5549 13.7957 32.6578 13.7725 31.7613 13.7978C30.7674 13.8258 29.7727 13.8067 28.7821 13.8429C27.885 13.8751 26.9879 13.8477 26.0914 13.8805C25 13.9195 23.9078 13.8901 22.8177 13.9277C21.8366 13.9612 20.8542 13.9277 19.8771 13.9681C18.8757 14.0105 17.8737 13.9722 16.8736 14.0126C16.3455 14.0338 15.8174 14.0255 15.2899 14.0454C15.1545 14.0502 15.0191 14.0002 14.8796 14.0413C14.797 14.0652 14.7564 13.9941 14.7537 13.9127C14.7476 13.7588 14.7272 13.6055 14.7157 13.4523C14.669 12.8367 14.5959 12.2245 14.5729 11.6054C14.5465 11.1081 14.493 10.6122 14.4896 10.1142Z" fill="#3E3E3E"/>
<path d="M38.8761 5.10022C38.9851 5.04891 39.0325 4.94083 39.0867 4.84644C39.6236 3.90794 40.2377 3.01595 40.7943 2.09181C40.9297 1.87155 41.0732 1.65881 41.2114 1.44061C41.2323 1.40709 41.2608 1.3722 41.2405 1.32158C41.1484 1.25318 41.0184 1.34689 40.9304 1.25318C41.2418 1.23881 41.5472 1.29627 41.8546 1.32774C42.0807 1.35031 42.3076 1.36263 42.5317 1.38041C42.5994 1.3852 42.6712 1.36331 42.7287 1.4194C42.5608 1.39751 42.4721 1.48096 42.3868 1.62461C42.1498 2.02751 41.8884 2.41605 41.642 2.8121C41.1078 3.66305 40.5864 4.5222 40.0278 5.3581C39.9005 5.54826 39.761 5.73022 39.6473 5.92995C39.8037 6.01546 39.8037 6.01546 39.8044 6.20357C39.8044 6.35816 39.8044 6.51276 39.8044 6.66735C39.8044 6.72276 39.8145 6.78158 39.761 6.82194C39.761 6.60442 39.761 6.38621 39.761 6.16868C39.761 6.06403 39.7313 6.00725 39.6195 6.01683C39.585 6.01683 39.5518 6.01683 39.5153 6.01683C39.2343 6.01683 39.2356 6.01683 39.1368 5.76168C39.0521 5.54074 38.9634 5.32116 38.8761 5.10022Z" fill="#474747"/>
<path d="M1.34537 13.3607H0.970263C0.95297 13.363 0.935394 13.3616 0.91865 13.3567C0.901905 13.3517 0.886356 13.3433 0.872989 13.332C0.859622 13.3207 0.848727 13.3067 0.840996 13.2909C0.833264 13.2751 0.828865 13.2579 0.828075 13.2403C0.769846 12.8333 1.13141 12.1075 1.49162 11.9105C1.6964 11.806 1.91699 11.7366 2.14433 11.7053C2.46526 11.6506 2.78485 11.5822 3.11323 11.5883C3.16203 11.5865 3.2109 11.5881 3.25948 11.5931C3.36849 11.6116 3.40099 11.6704 3.34953 11.7716C3.27099 11.9283 3.18297 12.0795 3.10037 12.2341C2.93787 12.5364 2.7713 12.836 2.61625 13.1425C2.59276 13.2004 2.55177 13.2494 2.49914 13.2824C2.4465 13.3154 2.38489 13.3309 2.32308 13.3265C1.9974 13.3306 1.67172 13.3525 1.34537 13.3675V13.3607Z" fill="#CDCDCD"/>
<path d="M36.8685 8.17839C36.5435 8.17839 36.3214 8.05458 36.1975 7.77207C36.0804 7.50461 36.1359 7.22484 36.3445 6.99842C36.5828 6.73849 36.8678 6.63999 37.2084 6.74533C37.3655 6.79321 37.5063 6.88214 37.5693 7.03946C37.6228 7.17627 37.7088 7.20705 37.8401 7.20842C37.9718 7.21378 38.1019 7.23915 38.2261 7.28367C38.3398 7.3206 38.482 7.36233 38.4834 7.49298C38.4834 7.63663 38.3364 7.67972 38.2166 7.71598C38.0655 7.76804 37.907 7.79439 37.7474 7.79396C37.6855 7.78991 37.6235 7.80083 37.5667 7.82581C37.5098 7.85079 37.4596 7.88912 37.4203 7.93761C37.3498 8.01401 37.2643 8.07484 37.1694 8.11627C37.0744 8.15771 36.972 8.17886 36.8685 8.17839Z" fill="#373737"/>
<path d="M25.1198 6.94367C25.4069 6.94367 25.6229 7.04833 25.7508 7.29937C25.7664 7.33372 25.7904 7.36343 25.8207 7.3856C25.8509 7.40777 25.8864 7.42167 25.9235 7.42592C26.086 7.45876 26.2573 7.45055 26.4117 7.52442C26.4496 7.54221 26.4909 7.5511 26.5288 7.5682C26.5622 7.57874 26.5916 7.59958 26.6127 7.62779C26.6338 7.656 26.6457 7.69017 26.6466 7.72553C26.6482 7.76091 26.6383 7.79584 26.6186 7.82508C26.5988 7.85432 26.5701 7.87627 26.5369 7.88765C26.481 7.91658 26.4222 7.9395 26.3616 7.95605C26.2003 7.99769 26.0359 8.02605 25.87 8.04087C25.812 8.04374 25.7552 8.05829 25.7029 8.08366C25.6506 8.10903 25.6038 8.14472 25.5653 8.18862C25.4733 8.28541 25.3579 8.35616 25.2304 8.39385C25.1029 8.43153 24.9679 8.43483 24.8388 8.40341C24.3574 8.29739 24.1238 7.75152 24.4542 7.29185C24.6073 7.08117 24.8713 6.92247 25.1198 6.94367Z" fill="#373737"/>
<path d="M34.8766 0.998041H33.3565C33.3017 0.998041 33.2434 1.00899 33.2028 0.95563H34.7412C34.7654 0.95248 34.7901 0.954636 34.8134 0.961954C34.8368 0.969271 34.8583 0.981578 34.8766 0.998041Z" fill="#474747"/>
<path d="M43.7396 16.2446C43.7667 17.6646 42.6136 18.9958 41.0015 18.9882C40.628 18.9905 40.2579 18.9169 39.913 18.772C39.5682 18.6271 39.2557 18.4137 38.994 18.1445C38.7323 17.8753 38.5267 17.5558 38.3895 17.2049C38.2522 16.854 38.1861 16.4788 38.1949 16.1016C38.2112 14.6063 39.4624 13.4229 40.948 13.4339C42.5378 13.4414 43.7761 14.7944 43.7396 16.2446Z" fill="#C7C7C7"/>
<path d="M11.6458 17.1181C11.4975 17.4512 11.3459 17.7809 11.0981 18.0559C10.4271 18.7994 9.59087 19.1038 8.61655 18.9533C7.49327 18.7796 6.74509 18.1195 6.35374 17.0442C6.34095 17.012 6.32649 16.9805 6.3104 16.9498C6.24943 16.6832 6.21742 16.4107 6.21494 16.1371C6.22712 14.7007 7.36598 13.5152 8.78785 13.4366C9.46024 13.3985 10.1241 13.6036 10.6603 14.0153C11.1964 14.427 11.5698 15.0182 11.7135 15.6829C11.8055 16.096 11.7948 16.5256 11.6824 16.9334C11.6634 16.9936 11.6553 17.0565 11.6458 17.1181Z" fill="#C7C7C7"/>
<path d="M13.2275 16.5243C13.1652 16.6146 13.2146 16.7439 13.1246 16.826C13.0846 16.7446 13.1503 16.642 13.0704 16.5708C13.0704 16.5024 13.0704 16.4306 13.0704 16.3602C13.023 16.2965 13.0799 16.2124 13.0298 16.1488V16.0653C12.9858 16.0161 13.0345 15.9443 12.9885 15.8964C12.9438 15.8478 12.9932 15.7753 12.9465 15.7274C12.893 15.5769 12.8423 15.4251 12.7847 15.276C12.5666 14.701 12.2221 14.1836 11.7772 13.7629C11.6965 13.6969 11.6253 13.6198 11.5659 13.5337C11.5294 13.4988 11.482 13.4803 11.4427 13.4496C11.0754 13.1858 10.683 12.9597 10.2714 12.7744C10.2395 12.7327 10.1813 12.7696 10.1481 12.732C10.029 12.732 9.92876 12.6636 9.81501 12.6465C9.78048 12.6075 9.72293 12.6424 9.6884 12.6055H9.64777C9.61392 12.5665 9.55637 12.6014 9.52183 12.5651H9.39725C9.33428 12.5145 9.251 12.5719 9.18736 12.5241H8.97881C8.85529 12.4906 8.7252 12.4906 8.60168 12.5241H8.43512C8.35725 12.5747 8.26178 12.5111 8.18392 12.5651H8.10131C8.06611 12.6014 8.00923 12.5651 7.9747 12.6055H7.89209C7.85756 12.6424 7.80001 12.6055 7.76683 12.6465C7.26241 12.7607 6.81553 12.9995 6.39777 13.2991C6.37815 13.3181 6.36087 13.3395 6.34631 13.3627C6.30772 13.3962 6.26032 13.4154 6.22173 13.4489C5.82631 13.7909 5.49387 14.176 5.30225 14.6713C5.28397 14.7007 5.25486 14.7349 5.22642 14.7082C5.20667 14.6863 5.19517 14.658 5.19393 14.6284C5.19269 14.5988 5.20179 14.5696 5.21965 14.5461C5.25824 14.5126 5.22371 14.4544 5.26027 14.4195C5.38221 14.0915 5.53933 13.7779 5.72881 13.4845C6.08769 12.9395 6.56823 12.4873 7.13173 12.1643C7.5343 11.9276 7.97546 11.7655 8.43444 11.6854C9.18462 11.5562 9.95525 11.6289 10.6688 11.8961C10.7793 11.9398 10.8827 12 10.9755 12.0746C11.243 12.286 11.5416 12.4502 11.8212 12.6424C12.159 12.8789 12.4445 13.1839 12.6594 13.5378C12.9591 14.012 13.1645 14.5405 13.2641 15.094C13.3271 15.4247 13.3451 15.7625 13.3176 16.0982C13.2986 16.2398 13.216 16.3738 13.2275 16.5243Z" fill="#1E1E1E"/>
<path d="M45.1554 16.8718C45.1174 16.8718 45.0653 16.8999 45.0667 16.828C45.0651 16.6393 45.052 16.4508 45.0274 16.2637C44.9743 15.7904 44.8366 15.3309 44.6211 14.9072C44.427 14.5018 44.1673 14.1319 43.8526 13.8128C43.1756 13.1287 42.3671 12.6937 41.4151 12.5569C40.7381 12.4604 40.0732 12.4885 39.4266 12.7245C38.92 12.9001 38.4577 13.1859 38.0724 13.5617C37.7302 13.8909 37.4483 14.2786 37.2396 14.7068C37.2281 14.7308 37.2111 14.7527 37.1956 14.7752C37.1353 14.7561 37.1732 14.7178 37.1746 14.6918C37.1775 14.657 37.1838 14.6226 37.1935 14.5892C37.3029 14.2039 37.4718 13.8384 37.6939 13.5063C37.8404 13.2704 38.0126 13.0518 38.2071 12.8544C38.6256 12.4515 39.0873 12.1109 39.6392 11.9009C40.239 11.6747 40.8804 11.5834 41.5187 11.6334C42.1728 11.68 42.7788 11.8804 43.2995 12.3065C43.4573 12.4316 43.6246 12.5439 43.7998 12.6424C44.0788 12.8038 44.2839 13.0405 44.4688 13.2943C44.8384 13.7972 45.0953 14.3754 45.2217 14.9886C45.257 15.1953 45.2781 15.4042 45.2847 15.6139C45.3084 15.9723 45.2224 16.3136 45.1682 16.6604C45.1523 16.7276 45.149 16.7973 45.1587 16.8657L45.1554 16.8718Z" fill="#1E1E1E"/>
<path d="M5.21761 14.5461C5.24808 14.5858 5.1411 14.7178 5.30022 14.6713C5.27043 14.7704 5.24131 14.8696 5.21084 14.9681C5.20001 15.0023 5.17834 15.0365 5.14314 15.0317C5.08626 15.0249 5.08829 14.9709 5.09709 14.9346C5.1202 14.8003 5.16073 14.6697 5.21761 14.5461Z" fill="#363636"/>
<path d="M8.59897 12.5179C8.65668 12.4856 8.72157 12.4687 8.78754 12.4687C8.8535 12.4687 8.91839 12.4856 8.9761 12.5179H8.59897Z" fill="#363636"/>
<path d="M8.18188 12.5624C8.25636 12.4885 8.34912 12.5316 8.43308 12.5213C8.35928 12.5959 8.26584 12.5508 8.18188 12.5624Z" fill="#363636"/>
<path d="M13.0285 16.1488C13.0976 16.209 13.0617 16.2856 13.07 16.3602C12.9995 16.3007 13.0382 16.2206 13.0285 16.1488Z" fill="#363636"/>
<path d="M9.1853 12.5214C9.2564 12.5289 9.33561 12.494 9.3952 12.5624C9.3241 12.5528 9.24489 12.5904 9.1853 12.5214Z" fill="#363636"/>
<path d="M12.9865 15.8964C13.048 15.9408 13.0238 16.0065 13.0286 16.0653C12.9664 16.0202 12.992 15.9545 12.9865 15.8964Z" fill="#363636"/>
<path d="M12.9445 15.7274C13.006 15.7719 12.9818 15.8375 12.9873 15.8964C12.9244 15.8519 12.95 15.7856 12.9445 15.7274Z" fill="#363636"/>
<path d="M6.2197 13.4489C6.22964 13.4237 6.24681 13.402 6.26899 13.3867C6.29118 13.3713 6.31739 13.363 6.34428 13.3627C6.33592 13.389 6.31914 13.4118 6.29658 13.4274C6.27403 13.443 6.24698 13.4505 6.2197 13.4489Z" fill="#363636"/>
<path d="M11.4427 13.4496C11.4696 13.4475 11.4964 13.4547 11.5188 13.47C11.5412 13.4852 11.5578 13.5077 11.5659 13.5337C11.5393 13.5344 11.5131 13.5267 11.491 13.5116C11.4689 13.4965 11.452 13.4748 11.4427 13.4496Z" fill="#363636"/>
<path d="M5.25908 14.4196C5.25908 14.4661 5.26737 14.5153 5.21761 14.5461C5.2183 14.5016 5.20931 14.4503 5.25908 14.4196Z" fill="#363636"/>
<path d="M9.68634 12.6055C9.73306 12.6055 9.78181 12.5979 9.81295 12.6465C9.76624 12.6458 9.71749 12.6547 9.68634 12.6055Z" fill="#363636"/>
<path d="M7.7648 12.6465C7.79527 12.5979 7.84402 12.6055 7.89006 12.6055C7.85959 12.6547 7.81084 12.6458 7.7648 12.6465Z" fill="#363636"/>
<path d="M9.51981 12.5637C9.56585 12.5637 9.6146 12.5562 9.64507 12.6041C9.5997 12.6034 9.55027 12.6123 9.51981 12.5637Z" fill="#363636"/>
<path d="M7.97266 12.6041C8.0038 12.5562 8.05255 12.5631 8.09927 12.5638C8.06813 12.6123 8.01937 12.6034 7.97266 12.6041Z" fill="#363636"/>
<path d="M10.1461 12.732C10.1915 12.732 10.2402 12.7231 10.2693 12.7744C10.224 12.7724 10.1752 12.7806 10.1461 12.732Z" fill="#363636"/>
<path d="M36.2869 7.50183C36.6932 7.25557 37.9329 7.25421 38.3182 7.48131C38.3249 7.54971 38.2674 7.56066 38.2254 7.57297C38.1267 7.60534 38.0251 7.62824 37.9221 7.64137C37.4481 7.68378 36.9789 7.7043 36.5117 7.60375C36.458 7.5893 36.4057 7.57008 36.3553 7.54629C36.3314 7.53325 36.3086 7.51839 36.2869 7.50183Z" fill="#787878"/>
<path d="M26.495 7.73376C26.1327 7.98822 24.8259 7.99028 24.4942 7.73376C24.7718 7.47041 26.1964 7.46767 26.495 7.73376Z" fill="#777878"/>
<path d="M41.2628 17.2453L41.3495 17.2063C41.6413 16.9519 41.6562 16.9525 42.0029 17.1509C42.1904 17.2583 42.378 17.365 42.5587 17.4834C42.726 17.5921 42.7449 17.6804 42.6204 17.8254C42.3468 18.157 41.9771 18.3937 41.5634 18.5019C41.3474 18.5566 41.2357 18.4732 41.2479 18.2495C41.2628 17.9759 41.2005 17.707 41.2032 17.4348C41.2039 17.365 41.1876 17.2905 41.2628 17.2453Z" fill="#363636"/>
<path d="M40.5979 17.6968C40.6027 17.8652 40.5923 18.0337 40.5668 18.2002C40.5531 18.2909 40.5531 18.3832 40.5668 18.4739C40.5898 18.703 40.4862 18.7981 40.2634 18.7475C40.053 18.7002 39.8533 18.6129 39.6751 18.4903C39.4012 18.3103 39.1615 18.0821 38.9675 17.8165C38.8043 17.5826 38.8964 17.456 39.0792 17.35C39.3311 17.2036 39.5985 17.0846 39.8491 16.9334C39.9102 16.9006 39.9747 16.8744 40.0414 16.8554C40.2763 16.7754 40.3616 16.8554 40.4605 17.0935C40.4693 17.114 40.4429 17.1585 40.4679 17.1708C40.671 17.2631 40.5918 17.4444 40.6033 17.5935C40.6 17.6263 40.5979 17.6619 40.5979 17.6968Z" fill="#959696"/>
<path d="M41.2628 17.2453C41.2298 17.3153 41.2187 17.3938 41.231 17.4704C41.2445 17.7365 41.256 18.0025 41.2723 18.268C41.2831 18.4492 41.3569 18.5019 41.5323 18.4581C41.9737 18.348 42.3204 18.0887 42.6156 17.7495C42.6915 17.6619 42.6833 17.6209 42.5912 17.5641C42.3204 17.402 42.0496 17.2481 41.7787 17.0853C41.7475 17.063 41.71 17.0515 41.6718 17.0527C41.6336 17.0538 41.5967 17.0674 41.5668 17.0914C41.4991 17.1386 41.4368 17.1981 41.3481 17.2036C41.4036 17.1352 41.2885 17.062 41.3725 16.9785C41.5377 16.813 41.5905 16.7856 41.8112 16.8718C41.9021 16.9071 41.9897 16.9501 42.0733 17.0004C42.2886 17.1304 42.5141 17.2385 42.7355 17.3554C42.9108 17.4485 42.963 17.614 42.8452 17.7748C42.5066 18.2358 42.0929 18.5956 41.5296 18.7523C41.3265 18.8077 41.2262 18.6674 41.2222 18.5183C41.2188 18.4061 41.2161 18.2933 41.2222 18.1811C41.2337 17.9211 41.1721 17.6646 41.1809 17.4047C41.1836 17.3425 41.1558 17.2583 41.2628 17.2453Z" fill="#969696"/>
<path d="M39.6324 16.5688L39.0907 16.8192C38.935 16.9054 38.847 16.8301 38.8328 16.6824C38.81 16.4247 38.8041 16.1658 38.8152 15.9073C38.8253 15.6707 38.9221 15.6248 39.1537 15.7021C39.2722 15.7425 39.3914 15.7808 39.5085 15.8246C39.8247 15.9436 39.8904 16.3287 39.6324 16.5688Z" fill="#373737"/>
<path d="M42.099 16.5353C42.0855 16.5189 42.0713 16.5031 42.0577 16.4874C42.0577 16.4812 42.0489 16.4751 42.0489 16.4689C42.0394 16.2924 41.9311 16.0783 42.0767 15.9504C42.2683 15.7821 42.5303 15.7158 42.7822 15.6768C42.9359 15.6522 42.9853 15.8033 42.9792 15.9169C42.9623 16.2056 42.9914 16.497 42.9318 16.7829C42.8228 16.9423 42.7111 16.8068 42.6007 16.7829C42.5682 16.7747 42.533 16.7795 42.5073 16.7453C42.3746 16.6693 42.2317 16.6119 42.099 16.5353Z" fill="#373737"/>
<path d="M40.4679 14.5919C40.4635 14.641 40.4635 14.6905 40.4679 14.7397C40.4936 14.8424 40.4827 14.9509 40.4371 15.0463C40.3916 15.1417 40.3143 15.2179 40.2187 15.2616C39.9946 15.2958 39.5119 15.042 39.4381 14.8477C39.4203 14.8015 39.4177 14.7507 39.4308 14.7029C39.4438 14.6551 39.4718 14.6128 39.5105 14.5823C39.6812 14.4177 39.8817 14.2876 40.1009 14.1993C40.3494 14.1042 40.4395 14.1746 40.4496 14.4496C40.4517 14.4975 40.4381 14.5474 40.4679 14.5919Z" fill="#3D3D3D"/>
<path d="M41.5614 15.2541L41.3515 15.092C41.3115 14.838 41.3164 14.5788 41.3657 14.3265C41.3989 14.1589 41.5011 14.1364 41.6244 14.1754C41.8786 14.2533 42.107 14.3997 42.2852 14.5988C42.3086 14.6203 42.3271 14.6466 42.3396 14.676C42.3521 14.7054 42.3581 14.7371 42.3574 14.7691C42.3567 14.8011 42.3493 14.8325 42.3355 14.8613C42.3218 14.8901 42.3021 14.9155 42.2778 14.936C42.1475 15.0731 41.9905 15.1814 41.8167 15.2541C41.7777 15.2763 41.7337 15.2879 41.689 15.2879C41.6443 15.2879 41.6004 15.2763 41.5614 15.2541Z" fill="#3D3D3D"/>
<path d="M41.5614 15.2541C41.6833 15.302 41.7713 15.2165 41.8722 15.1775C42.015 15.1216 42.1438 15.0345 42.2493 14.9223C42.3414 14.8259 42.3468 14.7417 42.2581 14.6487C42.0814 14.4587 41.8623 14.3142 41.619 14.2273C41.4659 14.1719 41.4104 14.213 41.3772 14.3819C41.3376 14.6171 41.3289 14.8566 41.3515 15.094C41.3334 15.0836 41.319 15.0677 41.3102 15.0485C41.3015 15.0294 41.2989 15.008 41.3028 14.9873C41.3102 14.7712 41.2865 14.5543 41.3346 14.3388C41.3587 14.2147 41.3536 14.0865 41.3197 13.9647C41.2716 13.7642 41.3271 13.7164 41.5167 13.7834C41.9109 13.9156 42.2752 14.1256 42.5886 14.4011C42.6617 14.4754 42.7281 14.5562 42.7869 14.6426C42.7926 14.6495 42.7969 14.6574 42.7996 14.666C42.8022 14.6746 42.8032 14.6837 42.8023 14.6926C42.8015 14.7016 42.799 14.7103 42.7948 14.7182C42.7907 14.7262 42.785 14.7333 42.7781 14.739C42.7016 14.739 42.6603 14.6706 42.596 14.6501C42.5317 14.6296 42.4498 14.6357 42.4457 14.7075C42.4308 14.9552 42.2148 15.0195 42.0733 15.1481C41.9602 15.25 41.8302 15.3362 41.6616 15.3095C41.6224 15.3033 41.5817 15.3013 41.5614 15.2541Z" fill="#A0A0A0"/>
<path d="M40.4679 14.5919C40.4171 14.5235 40.4347 14.4448 40.4219 14.3703C40.3968 14.2232 40.3461 14.1781 40.2127 14.2177C39.9484 14.3038 39.7096 14.4552 39.518 14.6583C39.5015 14.6717 39.488 14.6886 39.4783 14.7077C39.4687 14.7267 39.4631 14.7477 39.4619 14.7691C39.4608 14.7905 39.4641 14.8119 39.4717 14.8319C39.4792 14.8519 39.4908 14.8701 39.5058 14.8854C39.7028 15.0851 39.9296 15.237 40.2194 15.2616C40.1104 15.3546 39.9926 15.3197 39.8917 15.2616C39.7252 15.1725 39.5738 15.0571 39.4435 14.9196C39.3939 14.8713 39.3583 14.8103 39.3406 14.7431C39.3128 14.6227 39.2769 14.6131 39.1639 14.663C39.1449 14.6713 39.1293 14.687 39.1111 14.6959C39.0978 14.7008 39.0834 14.7013 39.0698 14.6975C39.0562 14.6937 39.0441 14.6857 39.0353 14.6746C39.0264 14.6636 39.0212 14.65 39.0203 14.6358C39.0194 14.6215 39.023 14.6074 39.0305 14.5953C39.1122 14.4988 39.1997 14.4074 39.2925 14.3217C39.5911 14.0638 39.9412 13.8962 40.3081 13.7587C40.4327 13.7122 40.4896 13.7444 40.4693 13.8771C40.432 14.1227 40.4896 14.3566 40.4679 14.5919Z" fill="#A0A0A0"/>
<path d="M39.6324 16.5688C39.7678 16.4272 39.7583 16.2521 39.7407 16.0776C39.7363 16.0425 39.7214 16.0095 39.6981 15.983C39.6748 15.9565 39.6441 15.9377 39.61 15.9292C39.4144 15.8608 39.218 15.789 39.023 15.7158C38.9424 15.6857 38.9072 15.7199 38.8876 15.7951C38.8302 16.0838 38.8197 16.38 38.8564 16.6721C38.8713 16.8253 38.891 16.8294 39.0873 16.8191C38.8971 16.9327 38.8551 16.919 38.8111 16.7138C38.7793 16.5695 38.7975 16.421 38.7955 16.274C38.7955 16.0407 38.7583 16.0188 38.543 16.1221C38.5249 16.1272 38.5062 16.1302 38.4874 16.131C38.4508 16.0446 38.4438 15.9482 38.4678 15.8574C38.4918 15.7131 38.5273 15.571 38.5741 15.4326C38.6147 15.3101 38.7149 15.2643 38.8206 15.3286C39.0914 15.4955 39.3907 15.6125 39.6615 15.7808C39.8592 15.9039 39.8558 15.9073 39.8138 16.1351C39.7949 16.2377 39.7793 16.3403 39.7631 16.4443C39.7536 16.5195 39.7204 16.5729 39.6324 16.5688Z" fill="#A0A0A0"/>
<path d="M42.9318 16.7808C42.9462 16.5287 42.948 16.2759 42.9372 16.0236C42.9156 15.6864 42.8905 15.6686 42.5858 15.7828C42.4552 15.8314 42.3265 15.8847 42.1945 15.9265C42.1535 15.9346 42.117 15.9577 42.092 15.9915C42.067 16.0252 42.0553 16.0671 42.0591 16.1091C42.0591 16.235 42.0591 16.3608 42.0591 16.4874C41.9521 16.317 41.9785 16.1269 41.9771 15.9401C41.9771 15.8663 42.0252 15.83 42.0841 15.7992C42.3726 15.6481 42.6583 15.4907 42.9488 15.343C43.1113 15.2609 43.1641 15.2869 43.2196 15.4627C43.2656 15.5961 43.2995 15.7329 43.3333 15.8656C43.3624 15.9493 43.3624 16.0405 43.3333 16.1241C43.2595 16.1467 43.2284 16.0797 43.1742 16.0687C43.0388 16.0427 42.9819 16.0954 43.0009 16.2363C43.0114 16.4206 42.9879 16.6052 42.9318 16.7808Z" fill="#9F9F9F"/>
<path d="M40.9121 16.5359C40.7699 16.5359 40.6284 16.4497 40.5972 16.3396C40.5802 16.2969 40.5776 16.2496 40.5898 16.2052C40.6021 16.1608 40.6285 16.1217 40.6649 16.094C40.7199 16.0573 40.7839 16.0367 40.8497 16.0346C40.9156 16.0324 40.9808 16.0487 41.038 16.0817C41.0896 16.111 41.1312 16.1555 41.1571 16.2093C41.183 16.2631 41.192 16.3236 41.1829 16.3827C41.1579 16.4737 41.0455 16.5373 40.9121 16.5359Z" fill="#3B3B3B"/>
<path d="M42.099 16.5353C42.2482 16.5734 42.3871 16.645 42.5052 16.7446C42.3519 16.7184 42.2101 16.6453 42.099 16.5353Z" fill="#9F9F9F"/>
<path d="M42.6014 16.7822C42.6567 16.7797 42.7117 16.7922 42.7605 16.8185C42.7899 16.8293 42.8217 16.8314 42.8522 16.8245C42.8827 16.8175 42.9105 16.8019 42.9325 16.7795C42.9325 16.8643 42.9014 16.9163 42.812 16.8862C42.7375 16.8629 42.6563 16.8561 42.6014 16.7822Z" fill="#9F9F9F"/>
<path d="M8.46759 17.2146C8.4879 17.2474 8.52176 17.2488 8.55493 17.2501C8.64092 17.2871 8.6328 17.3685 8.6179 17.4314C8.55019 17.7016 8.58743 17.9752 8.57931 18.2468C8.57254 18.4732 8.48316 18.5553 8.26176 18.5033C7.81217 18.4007 7.46212 18.1271 7.16353 17.785C7.0728 17.6811 7.1141 17.5846 7.21499 17.519C7.46947 17.3482 7.73253 17.1909 8.00311 17.0476C8.21301 16.9396 8.3403 17.0805 8.46759 17.2146Z" fill="#363636"/>
<path d="M9.27605 17.2515C9.31058 17.192 9.37558 17.1646 9.37423 17.0654C9.37423 16.9423 9.59834 16.8328 9.72699 16.8602C10.0533 16.9286 10.3147 17.1393 10.6072 17.2761C10.6762 17.309 10.7423 17.3476 10.8049 17.3917C10.9525 17.4936 10.9877 17.6291 10.8841 17.7713C10.5564 18.2221 10.1454 18.5655 9.60985 18.742C9.55075 18.7626 9.48782 18.7697 9.42569 18.7625C9.39657 18.7586 9.36853 18.7488 9.34324 18.7337C9.31795 18.7186 9.29592 18.6986 9.27848 18.6747C9.26104 18.6508 9.24854 18.6236 9.24173 18.5948C9.23491 18.5659 9.23392 18.5359 9.23881 18.5067C9.26725 18.398 9.26725 18.2836 9.23881 18.1749C9.23141 18.1263 9.22847 18.077 9.23001 18.0278C9.2185 17.811 9.24829 17.5928 9.19886 17.3773C9.19392 17.364 9.19208 17.3497 9.19348 17.3355C9.19488 17.3213 9.19949 17.3076 9.20695 17.2955C9.21441 17.2834 9.22452 17.2732 9.2365 17.2657C9.24848 17.2582 9.26201 17.2536 9.27605 17.2521C9.34376 17.3377 9.32074 17.4396 9.32412 17.536C9.33225 17.7741 9.3099 18.0149 9.35865 18.2495C9.38642 18.3822 9.45142 18.4294 9.57938 18.3965C9.98022 18.2946 10.2849 18.0456 10.5551 17.744C10.6228 17.6756 10.5862 17.6154 10.5165 17.573C10.2842 17.4321 10.0567 17.2829 9.81569 17.1571C9.71277 17.1037 9.63084 17.1413 9.54147 17.1906C9.45209 17.2398 9.38235 17.3206 9.27605 17.2515Z" fill="#969696"/>
<path d="M8.46761 17.2146C8.42777 17.2033 8.39003 17.1855 8.35589 17.1619C8.20626 17.0162 8.06407 17.0559 7.90834 17.1557C7.69167 17.2925 7.4662 17.4191 7.24615 17.5538C7.17844 17.5935 7.10532 17.6393 7.18792 17.7324C7.49058 18.0744 7.83251 18.348 8.28412 18.4568C8.46423 18.4999 8.53329 18.4527 8.54683 18.2714C8.56917 17.9779 8.55089 17.6824 8.59219 17.3897C8.59628 17.341 8.58307 17.2925 8.55495 17.2529C8.63553 17.2529 8.63688 17.3062 8.64298 17.3657C8.65584 17.5025 8.60438 17.6284 8.60574 17.7632C8.60574 18.0019 8.60574 18.242 8.59964 18.48C8.59355 18.7181 8.47438 18.807 8.24688 18.74C7.9089 18.6504 7.60181 18.4687 7.35923 18.2146C7.25021 18.097 7.12834 17.9896 7.02068 17.8678C6.82162 17.6352 6.85548 17.4759 7.12631 17.3377C7.39714 17.1995 7.66798 17.0292 7.95777 16.9054C8.02141 16.8726 8.09248 16.8574 8.1638 16.8612C8.23512 16.8651 8.30418 16.8879 8.36402 16.9273C8.51094 17.008 8.46355 17.1106 8.46761 17.2146Z" fill="#959696"/>
<path d="M7.71875 16.5257C7.51417 16.6367 7.30271 16.7343 7.08568 16.8178C7.01797 16.8438 6.94146 16.8862 6.89406 16.7815C6.88255 16.5715 6.79859 16.3711 6.86292 16.1501C6.89135 16.0544 6.81687 15.9504 6.84599 15.8416C6.89068 15.6754 6.94958 15.631 7.11682 15.6788C7.30302 15.7336 7.48177 15.8109 7.66323 15.88C7.77359 15.9224 7.83318 16.0051 7.79864 16.1269C7.76411 16.2486 7.83724 16.4121 7.71875 16.5257Z" fill="#3D3D3D"/>
<path d="M10.9322 16.8212C10.8557 16.8732 10.7853 16.8287 10.7182 16.8007C10.5415 16.7268 10.3675 16.6461 10.1928 16.5674C10.1129 16.5408 10.0886 16.471 10.0655 16.3998C9.99782 16.0223 10.0466 15.921 10.3865 15.7979C10.4772 15.7644 10.5659 15.7247 10.6573 15.6953C10.8882 15.62 11.0006 15.6741 11.0067 15.9162C11.0128 16.1584 11.027 16.3909 10.9782 16.6228C10.9688 16.6906 10.9877 16.7665 10.9322 16.8212Z" fill="#3D3D3D"/>
<path d="M9.60309 15.2637L9.43382 15.1378C9.24559 15.001 9.34647 14.8019 9.34106 14.6323C9.34106 14.5413 9.3722 14.4428 9.37626 14.345C9.38236 14.2048 9.46632 14.1398 9.5997 14.1678C9.90491 14.245 10.1737 14.4277 10.3594 14.6843C10.3785 14.7097 10.3902 14.7401 10.3931 14.7719C10.3959 14.8037 10.3899 14.8357 10.3756 14.8642C10.2964 15.0489 9.82382 15.2931 9.60309 15.2637Z" fill="#3D3D3D"/>
<path d="M8.47301 14.4647C8.47707 14.5686 8.47301 14.6699 8.48655 14.7759C8.50551 14.9585 8.48655 15.1179 8.3078 15.2219C8.2103 15.2999 8.10468 15.2903 7.99567 15.252C7.79254 15.1781 7.64359 15.0345 7.49124 14.8929C7.46246 14.8662 7.44519 14.8292 7.44316 14.7898C7.44114 14.7504 7.45451 14.7117 7.48041 14.6822C7.66161 14.423 7.93118 14.2405 8.23739 14.1698C8.39583 14.1302 8.43103 14.1883 8.47301 14.4647Z" fill="#3D3D3D"/>
<path d="M9.60306 15.2636C9.81769 15.2677 9.98358 15.1474 10.1447 15.0311C10.4217 14.8313 10.4223 14.7629 10.1671 14.5427C10.0141 14.3993 9.83234 14.2908 9.6342 14.2246C9.48051 14.1801 9.41821 14.2136 9.39993 14.3648C9.37192 14.5445 9.35675 14.726 9.35457 14.9079C9.35311 14.9916 9.38119 15.0731 9.43379 15.1378C9.41652 15.138 9.39941 15.1345 9.38358 15.1275C9.36775 15.1205 9.35358 15.1102 9.34199 15.0973C9.3304 15.0843 9.32167 15.0691 9.31637 15.0525C9.31106 15.0359 9.30932 15.0183 9.31124 15.001C9.30206 14.8749 9.3041 14.7483 9.31733 14.6227C9.3616 14.3742 9.36662 14.1203 9.33222 13.8703C9.32004 13.7827 9.36676 13.7334 9.45139 13.7512C9.52486 13.7713 9.59645 13.7979 9.66535 13.8306C10.0533 13.9893 10.4101 14.1931 10.706 14.5023C10.7297 14.5276 10.7548 14.5522 10.7737 14.5789C10.7927 14.6056 10.8218 14.6514 10.79 14.6918C10.7582 14.7321 10.7284 14.7096 10.6945 14.6986C10.507 14.6391 10.5083 14.6398 10.4305 14.8354C10.4176 14.8675 10.3988 14.8968 10.3749 14.9216C10.2382 15.0613 10.0814 15.1794 9.90978 15.2718C9.81769 15.3225 9.70462 15.3478 9.60306 15.2636Z" fill="#A0A0A0"/>
<path d="M8.47302 14.4647C8.46342 14.4546 8.45583 14.4428 8.45067 14.4298C8.39312 14.1904 8.33354 14.1562 8.11213 14.2574C7.92082 14.3407 7.74655 14.4592 7.59823 14.607C7.44995 14.7616 7.45333 14.8019 7.59823 14.949C7.74312 15.0961 7.92593 15.1542 8.09114 15.2527C8.16833 15.2985 8.23604 15.2233 8.30984 15.2199C8.19474 15.3697 8.04578 15.3204 7.9151 15.2664C7.72687 15.1891 7.5989 15.0201 7.43708 14.9011C7.39442 14.8696 7.39849 14.8156 7.38901 14.7643C7.36125 14.6227 7.3213 14.6056 7.18588 14.6638C7.13713 14.6856 7.10666 14.7472 7.03015 14.7281C7.00172 14.6282 7.06333 14.5605 7.12427 14.4962C7.31062 14.3077 7.52321 14.1478 7.75531 14.0214C7.94026 13.91 8.13841 13.8227 8.34505 13.7615C8.49062 13.7211 8.53599 13.754 8.49942 13.8949C8.45 14.0912 8.49536 14.2773 8.47302 14.4647Z" fill="#A0A0A0"/>
<path d="M7.71874 16.5257C7.77629 16.3848 7.76275 16.2363 7.76343 16.0893C7.76527 16.0547 7.75502 16.0207 7.73446 15.993C7.71391 15.9654 7.68437 15.9459 7.65103 15.9381C7.46077 15.8697 7.27322 15.8013 7.08228 15.7329C6.95025 15.6877 6.92723 15.696 6.90692 15.843C6.88347 16.0234 6.8708 16.205 6.869 16.3868C6.869 16.5195 6.88458 16.6522 6.89405 16.7849C6.82529 16.6048 6.80044 16.4105 6.82161 16.2186C6.83109 16.0818 6.80265 16.0462 6.66723 16.0701C6.64 16.0749 6.61398 16.0851 6.59072 16.1002C6.50067 16.159 6.48307 16.1002 6.47426 16.0318C6.46847 15.9058 6.48877 15.78 6.53385 15.6624C6.55551 15.5892 6.58666 15.5195 6.60562 15.4449C6.63947 15.3081 6.71327 15.2766 6.84057 15.3327C6.92859 15.3724 7.00713 15.4319 7.09312 15.4771C7.29624 15.5824 7.49937 15.6898 7.70723 15.7862C7.75702 15.8021 7.79921 15.8361 7.82561 15.8816C7.85201 15.9271 7.86074 15.9809 7.8501 16.0325C7.82456 16.1626 7.80916 16.2946 7.80406 16.4272C7.8028 16.4509 7.79371 16.4735 7.77824 16.4913C7.76277 16.5092 7.74182 16.5213 7.71874 16.5257Z" fill="#9F9F9F"/>
<path d="M10.9322 16.8212C10.9803 16.5442 10.991 16.2618 10.964 15.9819C10.9349 15.6802 10.9119 15.6713 10.6356 15.7699C10.511 15.8143 10.3885 15.8642 10.2625 15.9067C10.2115 15.917 10.1656 15.945 10.1327 15.9858C10.0998 16.0266 10.0821 16.0777 10.0824 16.1303C10.0823 16.2218 10.0766 16.3132 10.0655 16.404C9.98155 16.2671 10.0235 16.1071 9.98832 15.96C9.97343 15.8964 10.0438 15.856 10.0946 15.817C10.2517 15.6973 10.4426 15.6454 10.6079 15.5434C10.7257 15.4696 10.8509 15.4066 10.9735 15.3437C11.096 15.2808 11.1692 15.2931 11.2233 15.421C11.3174 15.646 11.3973 15.8759 11.3418 16.1221C11.3276 16.1283 11.3121 16.1306 11.2968 16.1288C11.2815 16.127 11.2669 16.1212 11.2545 16.1119C11.0662 16.0264 11.0243 16.0537 11.0229 16.2624C11.0229 16.4299 11.0331 16.5989 10.9809 16.7631C10.9772 16.7757 10.971 16.7873 10.9626 16.7973C10.9542 16.8073 10.9439 16.8155 10.9322 16.8212Z" fill="#A0A0A0"/>
<path d="M9.0526 16.523L8.84947 16.5298C8.78579 16.5045 8.72587 16.4704 8.6714 16.4286C8.63712 16.3987 8.6127 16.359 8.60145 16.3147C8.59019 16.2705 8.59263 16.2238 8.60843 16.1809C8.61951 16.1399 8.64417 16.104 8.67829 16.0791C8.71242 16.0542 8.75395 16.0419 8.79598 16.0441C8.85088 16.0379 8.90629 16.0379 8.96119 16.0441C9.08916 16.0694 9.19885 16.1221 9.22255 16.2705C9.24421 16.4094 9.16567 16.4792 9.0526 16.523Z" fill="#3F3F3F"/>
<path d="M9.05259 16.5229C9.19681 16.3772 9.21509 16.3177 9.14941 16.2008C9.11382 16.1438 9.06137 16.0996 8.99951 16.0744C8.93765 16.0492 8.86952 16.0444 8.80478 16.0605C8.76811 16.0647 8.73336 16.0793 8.70462 16.1027C8.67587 16.1261 8.6543 16.1572 8.64244 16.1925C8.63058 16.2278 8.62891 16.2658 8.63764 16.302C8.64636 16.3383 8.66512 16.3712 8.6917 16.3971C8.74071 16.4455 8.79346 16.4899 8.84946 16.5298C8.79384 16.533 8.73839 16.5209 8.689 16.4949C8.63911 16.4807 8.59538 16.45 8.56481 16.4077C8.53425 16.3654 8.51861 16.314 8.5204 16.2616C8.52581 16.2024 8.55057 16.1467 8.59077 16.1032C8.63098 16.0597 8.68435 16.031 8.74249 16.0215C8.89483 15.9928 9.04176 16.0448 9.19342 16.0441C9.29702 16.0441 9.35322 16.2972 9.27738 16.4067C9.22525 16.4853 9.16025 16.5489 9.05259 16.5229Z" fill="#9E9E9E"/>
<path d="M10.0655 16.3998C10.1075 16.4559 10.1501 16.512 10.1928 16.5674C10.0784 16.5674 10.0533 16.4983 10.0655 16.3998Z" fill="#A0A0A0"/>
<path d="M40.5573 17.6783C40.5614 17.8835 40.5221 18.084 40.5113 18.2871C40.5018 18.4547 40.4435 18.5012 40.2838 18.4643C40.018 18.4052 39.7697 18.2841 39.5586 18.1106C39.4264 17.9968 39.3014 17.8748 39.1842 17.7454C39.1273 17.6859 39.1056 17.6277 39.1916 17.5744C39.4753 17.3979 39.7529 17.2077 40.0603 17.0757C40.2384 16.9998 40.3311 17.2125 40.4794 17.2515C40.5641 17.2741 40.5593 17.3541 40.558 17.4259C40.5573 17.5114 40.5573 17.5942 40.5573 17.6783Z" fill="#363636"/>
<path d="M9.27605 17.2515C9.40266 17.2515 9.49136 17.1591 9.58818 17.0969C9.61808 17.0742 9.65407 17.0612 9.69143 17.0596C9.72878 17.058 9.76573 17.0679 9.7974 17.088C10.0825 17.2337 10.3492 17.4102 10.6248 17.5723C10.7101 17.6222 10.6979 17.6776 10.6404 17.7412C10.3479 18.0675 10.0215 18.3418 9.58683 18.4533C9.37829 18.5067 9.32954 18.4725 9.30449 18.257C9.26738 17.9234 9.25764 17.5873 9.27537 17.2522L9.27605 17.2515Z" fill="#363636"/>
</g>
<defs>
<clipPath id="clip0_166_798">
<rect width="52" height="21" fill="white"/>
</clipPath>
</defs>
</svg>
