<svg width="52" height="21" viewBox="0 0 52 21" fill="none" xmlns="http://www.w3.org/2000/svg">
<path d="M1.65521 15.6572C1.65521 15.8296 2.28481 16.0003 3.50804 16.1596C4.73128 16.3189 6.52421 16.4636 8.78447 16.5855C11.0447 16.7074 13.728 16.8041 16.6812 16.8701C19.6343 16.9361 22.7995 16.97 25.996 16.97C29.1925 16.97 32.3577 16.9361 35.3108 16.8701C38.264 16.8041 40.9473 16.7074 43.2076 16.5855C45.4678 16.4636 47.2607 16.3189 48.484 16.1596C49.7072 16.0003 50.3368 15.8296 50.3368 15.6572C50.3368 15.4848 49.7072 15.3141 48.484 15.1548C47.2607 14.9955 45.4678 14.8508 43.2076 14.7289C40.9473 14.607 38.264 14.5103 35.3108 14.4443C32.3577 14.3783 29.1925 14.3444 25.996 14.3444C22.7995 14.3444 19.6343 14.3783 16.6812 14.4443C13.728 14.5103 11.0447 14.607 8.78447 14.7289C6.52421 14.8508 4.73128 14.9955 3.50804 15.1548C2.28481 15.3141 1.65521 15.4848 1.65521 15.6572Z" fill="#191919"/>
<path d="M49.9866 6.90086C50.0099 7.11628 49.9819 7.33102 49.9739 7.54576C49.9728 7.59449 49.969 7.64311 49.9626 7.69141C49.914 8.02673 49.9679 8.31192 50.2629 8.53208C50.396 8.63099 50.4813 8.79628 50.5884 8.93176C50.6296 8.97868 50.6532 9.0389 50.655 9.10179C50.6584 9.56786 50.6211 10.0319 50.5884 10.4959C50.5884 10.5081 50.5758 10.5196 50.5691 10.5318C50.4939 10.4593 50.5245 10.3631 50.5145 10.2764C50.5099 10.2358 50.5185 10.1857 50.4706 10.1694C50.4227 10.1531 50.3934 10.187 50.3621 10.2141C50.3028 10.2617 50.2551 10.3227 50.2229 10.3923C49.9999 10.9139 49.7768 11.4362 49.6363 11.9896C49.625 12.0323 49.5984 12.0791 49.643 12.136C49.7941 11.9903 49.8794 11.7972 50.0105 11.6414C50.1091 11.5242 50.2056 11.4077 50.3687 11.3854C50.3882 11.3789 50.409 11.3774 50.4292 11.3811C50.4495 11.3847 50.4685 11.3934 50.4846 11.4064C50.4786 11.7959 50.4426 12.1841 50.4526 12.5742C50.4573 12.7301 50.448 12.724 50.2908 12.6894C50.163 12.6616 50.0345 12.705 49.908 12.7185C49.1663 12.7991 48.4246 12.854 47.6788 12.8737C46.6402 12.8987 45.6015 12.9461 44.5628 12.9841C44.4197 12.9895 44.2765 12.9976 44.1334 13.0051C44.0948 12.9719 44.1221 12.9482 44.144 12.9238C44.2992 12.8676 44.3438 12.7558 44.3578 12.5885C44.4 12.0918 44.3455 11.5915 44.1972 11.1163C44.049 10.6412 43.81 10.2005 43.4939 9.8195C43.1779 9.43853 42.791 9.1248 42.3555 8.89632C41.92 8.66784 41.4445 8.52909 40.9561 8.48805C38.7523 8.28483 36.7848 9.99802 36.5218 12.0933C36.4865 12.3785 36.5012 12.6623 36.4925 12.9468C36.4879 13.0884 36.5524 13.1501 36.6923 13.1501C36.7816 13.1403 36.8719 13.1477 36.9586 13.1717C37.0192 13.1954 37.0585 13.232 36.9766 13.2842C36.9254 13.305 36.8704 13.314 36.8154 13.3106C36.4053 13.2977 35.9978 13.335 35.589 13.3533C35.4938 13.368 35.3964 13.3534 35.3094 13.3113C35.2681 13.1622 35.3893 13.2395 35.4319 13.2185C35.1762 13.186 34.9398 13.0755 34.7035 12.9699C34.6053 12.922 34.4986 12.895 34.3899 12.8906C33.2747 12.8716 32.1601 12.934 31.0455 12.9468C30.4789 12.9536 29.9136 12.9543 29.3437 12.9766C28.0387 13.0288 26.7324 13.0356 25.4274 13.0708C24.7915 13.0877 24.155 13.0776 23.5198 13.102C22.1735 13.1548 20.8266 13.1582 19.4803 13.1954C18.8651 13.2124 18.2492 13.2042 17.6347 13.2273C16.343 13.2767 15.0513 13.2903 13.759 13.3167C13.466 13.3221 13.1731 13.3567 12.8781 13.3506C12.6012 13.3451 12.5559 13.3059 12.5599 13.0186C12.5813 12.2284 12.4184 11.4442 12.0845 10.7303C11.4233 9.35312 10.42 8.37628 8.88459 8.13037C7.49703 7.90818 6.32121 8.38237 5.42236 9.46557C4.32976 10.7798 4.05145 12.3107 4.40899 13.9745C4.45027 14.1655 4.54215 14.2454 4.73591 14.2332C4.8218 14.2265 4.91634 14.219 4.98492 14.2969C4.6074 14.3524 4.22466 14.3613 3.84505 14.3233C3.19255 14.2556 2.54005 14.1838 1.89089 14.089C1.349 14.0152 0.811364 13.9121 0.280285 13.7801C0.14113 13.7435 0.110503 13.6297 0.0905285 13.5131C0.074549 13.4251 0.0785439 13.333 0.07122 13.2422C0.00463867 12.451 0.00463867 11.6584 0.00463867 10.8658C0.00463867 10.5833 0.125817 10.3408 0.246329 10.0983C0.308249 9.97363 0.375497 9.85238 0.441412 9.73044C0.574347 9.48529 0.639897 9.20822 0.631169 8.92838C0.615746 8.60844 0.641261 8.28782 0.707071 7.97457C0.736489 7.83166 0.790109 7.69504 0.865535 7.57083C0.904818 7.50986 0.948096 7.45363 1.03132 7.49563C1.08392 7.52273 1.12387 7.49157 1.16448 7.46989C1.9042 7.07902 2.69918 6.8426 3.49483 6.60415C4.9989 6.15231 6.53294 5.8346 8.07496 5.55483C9.12495 5.36583 10.1816 5.22357 11.2396 5.08944C12.0266 4.98918 12.8155 4.90044 13.6065 4.8625C14.2897 4.82999 14.9688 4.74328 15.6532 4.73244C15.7345 4.73244 15.8164 4.7216 15.8983 4.71618C15.9109 4.80086 15.853 4.78392 15.8144 4.78054C15.9895 4.89096 16.2032 4.87334 16.4003 4.92686C16.5261 4.96073 16.616 4.85437 16.7079 4.78596C17.2658 4.3707 17.8398 3.97779 18.4197 3.59776C19.0655 3.17505 19.7427 2.80992 20.4218 2.44615C20.9911 2.14334 21.5537 1.82834 22.1349 1.54654C22.5158 1.3616 22.5131 1.3555 22.31 0.997149C22.4911 0.898246 22.6935 0.856246 22.8813 0.775633C23.3234 0.5846 23.7948 0.550052 24.2622 0.495859C25.1011 0.406439 25.946 0.308213 26.789 0.221504C27.2098 0.178149 27.6332 0.142923 28.054 0.127342C28.8963 0.0955037 29.7365 0.0535037 30.5774 0.0277618C31.3225 0.00540692 32.0682 -0.0135608 32.8126 0.013536C33.7281 0.0467295 34.6456 0.0446973 35.5591 0.123278C35.6205 0.127652 35.6817 0.135796 35.7422 0.147665C36.2189 0.238707 36.6899 0.359056 37.1523 0.508052C37.5152 0.63473 37.8941 0.697052 38.2556 0.824407C38.2942 0.837955 38.3368 0.840665 38.3641 0.876568C38.3458 0.898211 38.3231 0.915546 38.2975 0.927375C38.2566 0.944899 38.2213 0.973606 38.1954 1.01031C38.1696 1.04702 38.1542 1.0903 38.1511 1.13534C38.1511 1.24576 38.2689 1.23357 38.3395 1.25999C39.5872 1.71521 40.803 2.25376 42.0301 2.75979C42.7891 3.07344 43.5428 3.39928 44.2939 3.72444C44.3192 3.73528 44.2879 3.72444 44.3132 3.73257C44.6068 3.86128 44.8984 3.92292 45.186 3.71563C45.2653 3.73528 45.3452 3.75289 45.4237 3.77457C45.7987 3.88101 46.1825 3.95244 46.5703 3.98796C46.9911 4.02521 47.4072 4.11734 47.826 4.17967C48.3866 4.26299 48.9486 4.33954 49.5098 4.42015C49.6676 4.4332 49.8182 4.49275 49.9433 4.59154C49.9693 4.60783 49.991 4.63037 50.0064 4.65718C50.0219 4.684 50.0306 4.71426 50.0318 4.74531C50.0272 4.94854 50.0278 5.15176 50.0258 5.34957C49.9839 5.38629 49.93 5.40563 49.8747 5.40376C49.2954 5.42544 48.7175 5.4715 48.1383 5.48708C47.8446 5.49521 47.5537 5.53112 47.2601 5.54399C46.9664 5.55686 46.8606 5.66863 46.8459 5.90438C46.818 6.3027 46.8985 6.45986 47.1908 6.53505C48.0111 6.74641 48.824 6.98892 49.6543 7.1576C49.7309 7.1725 49.8467 7.25583 49.888 7.09596C49.908 7.02347 49.8747 6.92525 49.9866 6.90086Z" fill="#797979"/>
<path d="M4.97829 14.2935C4.84913 14.261 4.71929 14.2888 4.59013 14.2847C4.42767 14.2807 4.42567 14.2847 4.37973 14.1215C4.31799 13.8796 4.27041 13.6341 4.23724 13.3865C4.19535 13.0973 4.18263 12.8044 4.19929 12.5126C4.22708 11.8308 4.38374 11.1608 4.6607 10.5393C4.9075 9.97869 5.26358 9.47491 5.70736 9.05844C6.26238 8.52502 6.96448 8.17707 7.71945 8.06128C8.24759 7.97311 8.7881 7.99998 9.30528 8.14011C9.82245 8.28024 10.3045 8.53044 10.7196 8.87418C11.731 9.68709 12.3229 10.7493 12.5399 12.0377C12.5985 12.3942 12.6237 12.7555 12.6152 13.1169C12.6152 13.2801 12.6152 13.2855 12.7696 13.2835C13.0839 13.2835 13.3982 13.2747 13.7124 13.2564C14.1286 13.232 14.5474 13.2611 14.9642 13.2374C15.6819 13.1968 16.4003 13.2286 17.1167 13.1921C17.7053 13.1616 18.2932 13.1839 18.8798 13.1555C19.6182 13.1202 20.3572 13.1419 21.0943 13.1081C21.7235 13.0782 22.3534 13.1081 22.9805 13.0694C23.685 13.0295 24.3901 13.0647 25.0925 13.0247C25.7284 12.9882 26.3649 13.0213 26.9994 12.9848C27.6339 12.9482 28.2578 12.9773 28.885 12.9407C29.3297 12.9143 29.7738 12.9265 30.2166 12.9089C31.0502 12.875 31.8851 12.8872 32.7187 12.8567C33.2927 12.8357 33.8666 12.8378 34.4405 12.8242C34.4905 12.8176 34.5413 12.822 34.5895 12.8372C34.6376 12.8524 34.682 12.878 34.7195 12.9123C34.7927 12.98 34.9192 12.9949 35.0191 13.0335L35.5038 13.2191C35.4313 13.2733 35.342 13.2191 35.2868 13.2869C35.2651 13.3095 35.2387 13.3269 35.2096 13.3377C35.1804 13.3485 35.1492 13.3524 35.1183 13.3492C34.8107 13.3492 34.5058 13.3973 34.1968 13.3987C33.1375 13.4034 32.0789 13.4664 31.0196 13.4881C30.2872 13.505 29.5581 13.5369 28.8271 13.5667C27.9322 13.6026 27.0373 13.6229 26.1425 13.6534C25.3295 13.6805 24.5159 13.7001 23.7036 13.7367C22.6996 13.7828 21.6949 13.7801 20.6915 13.8485C20.2967 13.8756 19.8985 13.8756 19.503 13.8851C18.8605 13.8993 18.218 13.925 17.5761 13.9474C16.5774 13.9826 15.5787 14.0117 14.584 14.0497C13.8676 14.0774 13.1492 14.1276 12.4314 14.1025C12.1345 14.0923 11.948 14.2001 11.7816 14.4649C11.3383 15.1867 10.652 15.7196 9.85071 15.9641C9.79164 15.9704 9.73326 15.9822 9.67627 15.9993C9.6543 16.0088 9.63233 16.0162 9.60969 16.0237C9.13281 16.1694 8.62767 16.1916 8.14024 16.088C8.06833 16.0718 7.9911 16.0663 7.9365 16.0047C7.89056 15.9593 7.82132 16.0094 7.77538 15.9634C7.74142 15.9268 7.68749 15.958 7.6522 15.9261C6.8362 15.6714 6.13503 15.1313 5.67274 14.4012C5.64975 14.3596 5.61475 14.3262 5.57247 14.3055C5.5302 14.2848 5.48269 14.2778 5.43637 14.2854C5.27791 14.2935 5.12677 14.2935 4.97829 14.2935Z" fill="#363636"/>
<path d="M39.6012 15.9593C39.4614 15.9106 39.3189 15.8686 39.1824 15.8117C38.8868 15.6891 38.6018 15.5454 38.3648 15.3199C38.3426 15.3054 38.3183 15.2944 38.2929 15.2873C38.0705 15.246 37.956 15.0577 37.8221 14.9087C37.4626 14.5067 37.1922 14.0308 37.0292 13.5132C37.0019 13.4312 36.9586 13.3438 37.0065 13.2524C36.9473 13.163 36.8574 13.2063 36.7821 13.207C36.4432 13.207 36.4492 13.2124 36.4353 12.873C36.3917 12.1044 36.5622 11.339 36.9273 10.6646C37.3911 9.79389 38.1351 9.11197 39.0346 8.73331C39.5013 8.53244 40.0008 8.42238 40.5074 8.40883C41.0704 8.38988 41.6304 8.50008 42.1459 8.73128C42.6013 8.9259 43.0138 9.21128 43.359 9.5706C43.8964 10.1333 44.2511 10.8502 44.3751 11.6245C44.4354 11.9941 44.4466 12.3703 44.4084 12.743C44.3931 12.9001 44.3944 12.9001 44.1607 12.9462C44.0615 12.785 44.1068 12.6075 44.1134 12.4374C44.1324 11.7937 43.9784 11.1568 43.668 10.5955C43.4165 10.1213 43.0441 9.72469 42.59 9.44731C42.4908 9.38499 42.3903 9.32605 42.2957 9.25628C41.6459 8.77192 40.9102 8.66354 40.1332 8.74754C39.2913 8.82904 38.5088 9.22423 37.936 9.85715C37.581 10.2394 37.31 10.694 37.141 11.191C37.5825 10.3835 38.2769 9.77721 39.2323 9.52454C40.6252 9.15602 41.8463 9.5137 42.883 10.5136C43.5617 11.149 43.9681 12.03 44.0149 12.9672C44.0195 13.0464 44.0149 13.1359 44.0781 13.2016C44.0749 13.3124 44.0502 13.4215 44.0056 13.5227C43.8048 14.1521 43.4439 14.7163 42.9596 15.158C42.7558 15.4289 42.4775 15.5983 42.1839 15.7514C42.0507 15.8191 41.9116 15.8313 41.7777 15.876C41.3488 16.0222 40.8984 16.0926 40.4461 16.084C40.161 16.0722 39.8779 16.0304 39.6012 15.9593Z" fill="#363636"/>
<path d="M44.0768 13.2036L44.0102 13.249C43.9223 13.0329 43.957 12.8005 43.9183 12.5783C43.8776 12.3323 43.8106 12.0915 43.7186 11.8603C43.4674 11.241 43.0644 10.6976 42.5481 10.2819C42.0508 9.8766 41.4608 9.60603 40.833 9.49541C40.0687 9.3486 39.278 9.46791 38.5885 9.83412C37.9721 10.1567 37.47 10.6671 37.1524 11.294C37.1302 11.3367 37.106 11.3783 37.0798 11.4186C37.0751 11.4254 37.0565 11.422 37.0412 11.4233C37.0159 11.3658 37.0518 11.3143 37.0685 11.2669C37.2025 10.8659 37.3958 10.4881 37.6417 10.1464C37.8981 9.78611 38.2199 9.47913 38.5898 9.24206C39.004 8.98328 39.4401 8.78006 39.9348 8.72451C40.0693 8.71386 40.2028 8.69303 40.3343 8.66219C40.4277 8.63961 40.5246 8.63662 40.6192 8.65338C40.9675 8.70893 41.3223 8.72112 41.6606 8.84644C41.7912 8.88561 41.9157 8.94306 42.0308 9.01715C42.2971 9.2109 42.5801 9.37348 42.8471 9.56451C43.2062 9.83048 43.502 10.1752 43.7126 10.5732C43.9403 10.9796 44.0615 11.4139 44.15 11.8603C44.1585 11.9152 44.1616 11.9707 44.1594 12.0262C44.1594 12.3324 44.1594 12.6359 44.1594 12.9448C44.1387 12.9584 44.1241 12.974 44.1354 13.0017C44.1148 13.0742 44.0968 13.1379 44.0768 13.2036Z" fill="#1B1B1B"/>
<path d="M22.3101 1.00189C22.4586 1.03712 22.4586 1.20105 22.5451 1.29115C22.5784 1.3257 22.5311 1.38192 22.4879 1.40902C22.4126 1.45644 22.3374 1.50521 22.2581 1.5445C21.9705 1.68812 21.6682 1.80734 21.3926 1.97602C20.9365 2.25715 20.4538 2.48612 19.9837 2.73947C19.0385 3.25085 18.1266 3.82378 17.2539 4.4547C17.0308 4.61457 16.8071 4.77309 16.5881 4.93702C16.5557 4.96741 16.515 4.98716 16.4715 4.99369C16.4279 5.00022 16.3834 4.99322 16.3437 4.9736C16.2607 4.94154 16.1729 4.92435 16.0841 4.92279C15.9775 4.91467 15.867 4.89909 15.8018 4.79341C15.8244 4.74938 15.8876 4.7697 15.8976 4.71754C16.3005 4.41609 16.7346 4.16409 17.158 3.89583C17.9244 3.41012 18.696 2.93254 19.483 2.48205C20.1631 2.09186 20.8539 1.7247 21.5557 1.38057C21.8081 1.25592 22.0584 1.12789 22.3101 1.00189Z" fill="#363636"/>
<path d="M49.9866 6.90089C49.9287 6.96118 49.9673 7.04179 49.9447 7.10886C49.8701 7.16982 49.7875 7.14476 49.709 7.12782C48.8587 6.94763 48.0231 6.70782 47.1829 6.48834C46.9552 6.42873 46.8759 6.26411 46.8952 5.95995C46.9099 5.72489 46.9851 5.64495 47.2381 5.59889C47.4684 5.56824 47.7004 5.5524 47.9326 5.55147C48.5391 5.52234 49.1457 5.48373 49.7523 5.45392C49.8455 5.44986 49.9453 5.43766 50.0252 5.51218C50.0359 5.73315 50.0346 5.95455 50.0212 6.17537C50.0186 6.41789 49.9986 6.65905 49.9866 6.90089Z" fill="#8E2B2B"/>
<path d="M45.1887 3.71565C45.1338 3.79573 45.0559 3.85659 44.9657 3.88994C44.8755 3.92328 44.7773 3.92747 44.6847 3.90194C44.3985 3.83461 44.1213 3.73249 43.8591 3.59778C43.16 3.26517 42.4356 2.99623 41.7252 2.69275C40.845 2.31678 39.9601 1.95301 39.0739 1.59059C38.7658 1.45877 38.4503 1.34567 38.1291 1.25188C38.0299 1.22478 38.0212 1.19904 38.0725 1.10759C38.0973 1.07414 38.1196 1.03881 38.1391 1.00191C38.1797 0.889459 38.2643 0.866426 38.3675 0.875233C39.3848 1.22749 40.3835 1.62785 41.369 2.06343C42.5987 2.60536 43.8325 3.13578 45.0675 3.67094C45.0982 3.71633 45.1561 3.67907 45.1894 3.71362L45.1887 3.71565Z" fill="#363636"/>
<path d="M50.0252 5.51215C49.6151 5.49453 49.2069 5.54941 48.7981 5.56566C48.3221 5.58463 47.846 5.62053 47.3693 5.64289C46.9951 5.6605 46.8879 5.79802 46.9578 6.17263C46.9652 6.23806 46.9935 6.29922 47.0384 6.3467C47.0833 6.39418 47.1422 6.42537 47.2062 6.43547C47.9279 6.61363 48.6457 6.80602 49.3667 6.98892C49.5578 7.03702 49.7536 7.06818 49.9473 7.10679C49.936 7.27682 49.936 7.27682 49.7909 7.24702C49.0025 7.08782 48.2289 6.86631 47.4512 6.66173L47.0564 6.55741C47.003 6.54441 46.9541 6.51704 46.9147 6.47819C46.8754 6.43933 46.847 6.39041 46.8326 6.33657C46.7785 6.15646 46.7671 5.96586 46.7994 5.78041C46.8082 5.71765 46.8354 5.65906 46.8774 5.61229C46.9195 5.56552 46.9744 5.53274 47.0351 5.51824C47.1059 5.49258 47.1803 5.47863 47.2554 5.47692C47.563 5.48573 47.8667 5.43018 48.1736 5.42273C48.7249 5.40918 49.2755 5.37328 49.8268 5.34753C49.8934 5.34753 49.96 5.34753 50.0312 5.34753C50.0439 5.40194 50.0419 5.45885 50.0252 5.51215Z" fill="#3A3737"/>
<path d="M50.4846 11.4064C50.2696 11.4261 50.1257 11.5514 50.0126 11.7289C49.9347 11.8508 49.8481 11.9666 49.7655 12.0859C49.7422 12.1197 49.7229 12.157 49.699 12.1888C49.6884 12.2071 49.6723 12.2213 49.653 12.2292C49.6338 12.2372 49.6125 12.2385 49.5924 12.2329C49.5325 12.2105 49.5405 12.1563 49.5518 12.1096C49.5981 11.9 49.6574 11.6936 49.7296 11.4918C49.8627 11.1499 49.9959 10.8087 50.1291 10.4682C50.1917 10.3104 50.2769 10.1688 50.4373 10.0963C50.5272 10.0556 50.5638 10.08 50.5705 10.1789C50.5758 10.2968 50.5465 10.414 50.5705 10.5319C50.5595 10.8249 50.5309 11.117 50.4846 11.4064Z" fill="#373737"/>
<path d="M7.76935 15.9613C7.79743 15.9535 7.82702 15.9532 7.85524 15.9605C7.88347 15.9677 7.90938 15.9822 7.93047 16.0027C7.90262 16.0128 7.87242 16.0143 7.84373 16.0069C7.81504 15.9996 7.78915 15.9837 7.76935 15.9613Z" fill="#A2A2A2"/>
<path d="M45.1867 3.71497C45.1647 3.72297 45.1406 3.72311 45.1184 3.71536C45.0963 3.7076 45.0774 3.69241 45.0649 3.67229C45.087 3.66575 45.1106 3.66634 45.1324 3.67398C45.1543 3.68162 45.1732 3.69594 45.1867 3.71497Z" fill="#797979"/>
<path d="M7.64288 15.9234C7.66469 15.916 7.68821 15.9156 7.71025 15.9223C7.7323 15.9289 7.75178 15.9423 7.76606 15.9607C7.74435 15.9691 7.72054 15.97 7.69828 15.9632C7.67602 15.9565 7.65656 15.9425 7.64288 15.9234Z" fill="#A2A2A2"/>
<path d="M15.6519 8.4C15.7025 7.79032 15.7391 7.18064 15.8204 6.57774C15.85 6.36317 15.936 6.16072 16.0694 5.99177C16.2784 5.72315 16.5513 5.51329 16.8624 5.3821C17.1633 5.25406 17.4117 5.05626 17.6793 4.88622C18.3238 4.47977 18.985 4.10177 19.6435 3.72106C20.4684 3.24687 21.2953 2.77268 22.1323 2.31406C22.5837 2.06884 23.0265 1.80464 23.5019 1.60481C23.7589 1.4971 24.0292 1.4639 24.2975 1.42732C24.7769 1.36229 25.2576 1.30877 25.7396 1.26677C26.0586 1.23968 26.3775 1.19903 26.6998 1.21122C26.8216 1.17329 26.9461 1.2031 27.0686 1.19361C27.1931 1.30945 27.05 1.34061 27.002 1.37448C26.769 1.533 26.5306 1.68339 26.2916 1.83106C24.7016 2.81061 23.1037 3.77661 21.4551 4.65048C21.1381 4.81455 20.8308 4.99755 20.535 5.19852C20.4468 5.25171 20.3505 5.28949 20.25 5.31029C19.5975 5.37803 18.9417 5.37803 18.2872 5.40648C17.933 5.42274 17.5801 5.46881 17.2219 5.45323C17.1806 5.44929 17.1391 5.45802 17.1027 5.47829C16.8297 5.65984 16.5208 5.78787 16.3037 6.0541C16.1592 6.23121 16.0668 6.44634 16.0374 6.67461C15.9549 7.25313 15.9349 7.83706 15.875 8.41693C15.865 8.51313 15.8683 8.61474 15.7678 8.67164C15.5321 8.67097 15.6612 8.50229 15.6519 8.4Z" fill="#363636"/>
<path d="M29.9483 1.00189C30.0576 1.0047 30.1669 0.994238 30.2739 0.970729C30.3138 0.96022 30.3554 0.957462 30.3964 0.9626C30.9004 1.02018 31.4058 0.9626 31.9078 0.944987C32.5982 0.917213 33.288 0.932116 33.9778 0.913148C34.1483 0.906998 34.3187 0.929894 34.4818 0.98089C34.7355 1.06083 35.0005 1.10418 35.2482 1.20715C35.3061 1.34263 35.1876 1.3765 35.115 1.42528C34.601 1.78024 34.0783 2.12234 33.5517 2.45766C32.4138 3.18386 31.2806 3.92021 30.136 4.63963C29.9736 4.75454 29.7992 4.85086 29.616 4.92686C29.4642 4.93431 29.4456 4.82795 29.4363 4.71279C29.4904 3.88995 29.5768 3.07095 29.6953 2.25579C29.7446 1.92047 29.7512 1.57837 29.8151 1.24576C29.8478 1.15702 29.8491 1.05202 29.9483 1.00189Z" fill="#363636"/>
<path d="M36.643 1.66915C37.3448 1.91776 38.0413 2.17654 38.733 2.45834C38.9867 2.56199 39.2364 2.67308 39.4814 2.79705C39.6985 2.90544 39.8223 3.08902 39.9075 3.30783C39.9307 3.35936 39.934 3.41786 39.9169 3.47176C39.837 3.67499 39.7777 3.89447 39.6192 4.05976C39.528 4.15392 39.4195 4.25283 39.3869 4.37273C39.2956 4.74667 39.0413 5.02644 38.8769 5.35702C38.6771 5.76347 38.4387 6.14079 38.211 6.52692C37.8408 7.15083 37.466 7.77202 37.0931 8.39457C37.0266 8.44334 36.96 8.45554 36.9127 8.3695C36.8974 8.26383 36.9553 8.18254 37.0059 8.09854C37.685 6.99502 38.3302 5.8705 38.9854 4.75276C39.0899 4.5746 39.0866 4.56037 38.8749 4.57054C37.9607 4.61525 37.0445 4.6227 36.131 4.68908C36.1037 4.68908 36.0764 4.68908 36.0491 4.69315C35.659 4.7067 35.639 4.66876 35.669 4.26908C35.7042 3.79489 35.7515 3.32747 35.7635 2.85463C35.7733 2.68808 35.7929 2.52227 35.8221 2.35808C35.8354 1.93266 36.2143 1.85476 36.4693 1.6617C36.4962 1.64674 36.5266 1.63953 36.5572 1.64084C36.5878 1.64215 36.6175 1.65194 36.643 1.66915Z" fill="#363636"/>
<path d="M36.643 1.66913C36.6028 1.66596 36.5623 1.67098 36.524 1.68389C36.4857 1.6968 36.4504 1.71734 36.42 1.74433C36.3022 1.83852 36.1781 1.92409 36.0484 2.00039C35.9539 2.05865 35.8846 2.123 35.9033 2.24765C35.9055 2.26502 35.9031 2.28267 35.8963 2.29876C35.8895 2.31485 35.8786 2.32879 35.8647 2.3391C35.7608 2.20362 35.8194 2.05933 35.8387 1.91842C35.862 1.74704 35.8087 1.63933 35.639 1.5892C35.4692 1.53907 35.4306 1.55533 35.4352 1.72807C35.4459 2.06678 35.3806 2.40549 35.3879 2.74826C35.3879 2.837 35.4019 2.93117 35.3327 3.005C35.2048 2.99417 35.2415 2.88646 35.2428 2.81939C35.2428 2.65884 35.2042 2.6392 35.0717 2.72591C34.4591 3.12897 33.8373 3.51781 33.2214 3.91546C32.8219 4.17626 32.4084 4.4242 31.9737 4.70059C32.1141 4.71752 32.2247 4.70059 32.3319 4.71549C32.3851 4.72362 32.4843 4.70465 32.4364 4.8232C32.376 4.85882 32.3061 4.87422 32.2367 4.86723C31.6894 4.84284 31.1447 4.92346 30.5981 4.90991C30.3178 4.90381 30.0408 4.98646 29.7592 4.94242C29.7195 4.9365 29.6834 4.91572 29.658 4.88417C29.9815 4.68049 30.3051 4.47726 30.6287 4.27449C31.0042 4.03559 31.3791 3.79578 31.7533 3.55507C32.4901 3.08178 33.2269 2.60781 33.9638 2.13317C34.3546 1.87981 34.7381 1.61629 35.1256 1.35955C35.1835 1.32094 35.2481 1.29181 35.2481 1.20781C35.3706 1.20307 35.4545 1.29926 35.5651 1.33042C35.9033 1.42526 36.2382 1.52959 36.5751 1.62849C36.6012 1.63476 36.6249 1.64893 36.643 1.66913Z" fill="#515050"/>
<path d="M36.9233 8.35529C36.9686 8.41694 37.0325 8.39526 37.0918 8.39323C36.7922 8.88097 36.4925 9.36804 36.1936 9.85781C35.878 10.3767 35.5657 10.899 35.2521 11.4159C35.119 11.6347 35.0098 11.867 34.8593 12.0743C34.8433 12.0967 34.8333 12.1238 34.8167 12.1455C34.6835 12.3155 34.5424 12.4273 34.302 12.4124C33.6189 12.3697 32.9378 12.4693 32.254 12.4496C31.8844 12.4395 31.5143 12.4361 31.1454 12.4496C30.0175 12.4957 28.889 12.4544 27.7631 12.4997C26.8735 12.5356 25.9847 12.4855 25.0998 12.537C24.0745 12.5966 23.0484 12.5248 22.0251 12.5804C21.0197 12.6346 20.0143 12.5668 19.0116 12.6217C18.0202 12.6759 17.0302 12.6346 16.0394 12.6562C15.9847 12.6596 15.9297 12.6596 15.875 12.6562C15.7132 12.6413 15.6579 12.5824 15.6559 12.4198C15.6526 12.2247 15.6559 12.0296 15.6559 11.8352C15.651 11.5178 15.6266 11.2011 15.5827 10.8868C15.5712 10.734 15.5688 10.5806 15.5754 10.4275C15.5754 10.1701 15.5567 9.91065 15.58 9.65526C15.6153 9.2671 15.6146 8.87894 15.6166 8.4901C15.6157 8.47276 15.6187 8.45543 15.6254 8.43945C15.6321 8.42347 15.6423 8.40928 15.6553 8.39797C15.6553 8.44471 15.6599 8.49213 15.6553 8.53888C15.6499 8.63236 15.7045 8.65268 15.7798 8.65065C15.8983 8.85387 15.8497 9.07268 15.8344 9.28133C15.7888 9.86389 15.7888 10.4492 15.8344 11.0318C15.8663 11.4125 15.8144 11.7973 15.871 12.178C15.9069 12.4191 15.9076 12.4252 16.1539 12.4259C16.9529 12.4259 17.7559 12.4584 18.5542 12.4178C19.5529 12.3676 20.5516 12.4286 21.5504 12.3778C22.583 12.325 23.6144 12.3859 24.6464 12.3345C25.4261 12.2958 26.2051 12.3162 26.9841 12.3013C27.2724 12.2958 27.2677 12.2965 27.305 12.0018C27.3303 11.7947 27.3409 11.586 27.3369 11.3773C27.323 10.3334 27.4315 9.29352 27.4215 8.25029C27.4128 8.17343 27.4317 8.09595 27.4748 8.03217C27.6113 8.03217 27.5713 8.14191 27.5793 8.21371C27.5933 8.33091 27.564 8.45894 27.6778 8.54429C27.7263 8.7193 27.735 8.90325 27.7031 9.08217C27.6406 9.53875 27.6665 9.99871 27.6426 10.456C27.6139 10.9891 27.57 11.5243 27.586 12.0601C27.5926 12.283 27.6206 12.3223 27.8383 12.3026C28.7185 12.224 29.6014 12.3026 30.4816 12.2606C31.3838 12.22 32.2859 12.243 33.1868 12.2152C33.5483 12.2044 33.9098 12.1773 34.2721 12.1827C34.4884 12.1827 34.6116 12.0526 34.7148 11.8935C34.9305 11.5629 35.1143 11.212 35.3214 10.8773C35.8028 10.101 36.2722 9.31926 36.7402 8.5321C36.7828 8.45623 36.8195 8.3641 36.9233 8.35529Z" fill="#616161"/>
<path d="M1.33164 9.48384C1.24908 9.48384 1.21446 9.48384 1.1805 9.48384C0.927494 9.46487 0.804318 9.28061 0.879555 9.03471C0.937389 8.87041 1.02962 8.72087 1.14988 8.59642C1.36136 8.35892 1.5973 8.14521 1.85364 7.95897C2.46352 7.50916 3.11003 7.13726 3.83044 6.90965C4.02449 6.84109 4.22895 6.80806 4.43433 6.8121C4.74793 6.82836 4.8771 7.02955 4.75525 7.32355C4.65465 7.53794 4.51136 7.72871 4.33446 7.88378C3.81248 8.37742 3.21783 8.78496 2.57205 9.09162C2.23915 9.25352 1.89958 9.4012 1.53072 9.46352C1.46485 9.4746 1.39836 9.48139 1.33164 9.48384Z" fill="#C7C7C7"/>
<path d="M1.19115 12.2152C1.19115 12.012 1.19648 11.8122 1.19115 11.611C1.18316 11.3827 1.1572 11.3617 0.939477 11.3603C0.789669 11.3603 0.639195 11.3603 0.488721 11.3603C0.448772 11.3603 0.400834 11.3651 0.38552 11.3149C0.370206 11.2648 0.409489 11.2262 0.452101 11.2005C0.463232 11.1928 0.475324 11.1866 0.488055 11.1822C0.8689 11.0778 1.24309 10.9512 1.64457 10.9369C1.8563 10.9295 1.97282 11.0209 2.06337 11.1978C2.19188 11.4514 2.26029 11.7321 2.26311 12.0174C2.26777 12.2816 2.26977 12.5458 2.26711 12.8093C2.26711 12.9516 2.24114 12.9692 2.10864 12.9333C1.88826 12.8737 1.6772 12.9631 1.46147 12.9678C1.42818 12.9678 1.39489 12.9861 1.3616 12.9888C1.23843 12.999 1.19914 12.9672 1.19648 12.8405C1.19249 12.6325 1.19648 12.4239 1.19648 12.2152H1.19115Z" fill="#363636"/>
<path d="M13.239 10.4532C13.4048 10.5047 13.6045 10.4776 13.8016 10.4858C13.8962 10.4891 13.9461 10.5623 13.9967 10.6246C14.2484 10.9356 14.4954 11.2492 14.7444 11.5629C14.8856 11.7408 15.0263 11.9192 15.1665 12.098C15.2194 12.1622 15.291 12.2075 15.3709 12.2274C15.3947 12.2335 15.4153 12.2485 15.4287 12.2693C15.4421 12.2901 15.4474 12.3153 15.4435 12.3399C15.4382 12.3988 15.3936 12.4191 15.347 12.4347C15.3252 12.4455 15.301 12.4505 15.2768 12.4492C15.2526 12.4479 15.2291 12.4403 15.2085 12.4272C15.1 12.3344 14.9908 12.3751 14.8802 12.4144C14.8083 12.4365 14.738 12.4637 14.6698 12.4957C14.5527 12.56 14.4661 12.5302 14.3815 12.4333C14.1949 12.2119 14.0225 11.9784 13.8655 11.7342C13.6377 11.3718 13.3889 11.0235 13.1205 10.691C13.097 10.6706 13.0801 10.6435 13.0719 10.6132C13.0637 10.5829 13.0646 10.5508 13.0745 10.521C13.0985 10.46 13.1518 10.4478 13.239 10.4532Z" fill="#363636"/>
<path d="M29.6566 4.88422L29.7445 4.89031C29.7252 4.99599 29.6353 4.98786 29.5681 4.98515C29.2352 4.97093 28.9023 5.04341 28.5694 5.02919C28.363 5.0197 28.2278 5.08609 28.1745 5.30015C28.1648 5.35498 28.1342 5.40367 28.0893 5.43564C27.9835 5.4187 27.9661 5.31167 27.9062 5.24799C27.9062 5.08067 27.8396 5.03257 27.6659 5.05154C27.3642 5.08406 27.058 5.11115 26.7564 5.03393C26.7524 5.02919 26.7437 5.0197 26.7437 5.01902C26.8622 4.91131 26.9468 4.76838 27.0799 4.6749C27.1212 4.69928 27.1465 4.7589 27.1951 4.75754C27.4675 4.75009 27.7404 4.75754 28.0114 4.72977C28.078 4.72299 28.1053 4.65322 28.1193 4.59428C28.349 3.59238 28.6579 2.61012 28.8377 1.5967C28.8843 1.33386 28.8657 1.32167 28.6073 1.3447C28.4861 1.35554 28.361 1.38128 28.2498 1.30135C28.2323 1.2761 28.2239 1.24556 28.2258 1.21476C28.2278 1.18397 28.24 1.15477 28.2604 1.13199C28.5461 1.12183 28.8284 1.07373 29.112 1.05612C29.3956 1.03851 29.6666 0.976863 29.9469 1.00532C29.8943 1.06493 29.927 1.15841 29.8657 1.21464C29.6928 1.25799 29.515 1.27758 29.3371 1.2729C29.2125 1.2729 29.156 1.32506 29.1373 1.45444C29.0148 2.32425 28.7884 3.17035 28.5601 4.01577C28.5128 4.19122 28.4755 4.36802 28.4389 4.54483C28.4023 4.72164 28.4342 4.75551 28.6173 4.73383C28.9085 4.69467 29.2033 4.69012 29.4955 4.72028C29.5035 4.87744 29.5035 4.87744 29.6566 4.88422Z" fill="#5C5C5C"/>
<path d="M28.2617 1.12856V1.29385C28.2439 1.54555 28.1709 1.78998 28.048 2.0092C28.0383 2.01275 28.0276 2.01316 28.0176 2.01037C28.0076 2.00758 27.9987 2.00174 27.9921 1.99362C27.9391 1.93902 27.9031 1.86976 27.8885 1.79447C27.874 1.71918 27.8815 1.64119 27.9102 1.57023C27.9648 1.42662 27.8929 1.38259 27.7611 1.38869C27.6793 1.38717 27.5975 1.39284 27.5167 1.40562C27.4372 1.43074 27.3513 1.42465 27.276 1.38853C27.2007 1.35242 27.1414 1.28891 27.1099 1.21052H26.6978C26.7097 1.19798 26.7241 1.18821 26.7401 1.1819C26.7561 1.17558 26.7732 1.17287 26.7903 1.17394C27.283 1.19562 27.771 1.11298 28.2617 1.12856Z" fill="#474747"/>
<path d="M8.57836 15.1837C7.21877 15.1898 6.0982 14.0761 6.09221 12.7131C6.09018 12.3921 6.15077 12.0739 6.27046 11.7768C6.39014 11.4798 6.56656 11.2099 6.78949 10.9827C7.01241 10.7555 7.27743 10.5755 7.56917 10.4533C7.86092 10.331 8.17361 10.2688 8.48914 10.2703C9.14011 10.2649 9.76674 10.5219 10.2321 10.985C10.6974 11.4482 10.9637 12.08 10.9726 12.7423C10.9806 14.1025 9.92596 15.1776 8.57836 15.1837Z" fill="#C3C3C3"/>
<path d="M12.1558 13.4583C12.1207 13.3727 12.1094 13.279 12.1231 13.1873C12.1418 12.3385 11.8568 11.5981 11.3508 10.9362C10.8647 10.2926 10.1895 9.8234 9.42327 9.59698C8.99304 9.4601 8.54101 9.40836 8.09164 9.44456C7.39054 9.50756 6.74337 9.73856 6.19674 10.1945C5.82907 10.4881 5.52966 10.8608 5.31986 11.2858C5.30124 11.3492 5.26145 11.4041 5.20734 11.4409C5.192 11.3723 5.20071 11.3004 5.23198 11.2377C5.38045 10.8665 5.51162 10.4891 5.78194 10.1768C5.91044 10.0271 6.02296 9.86049 6.16278 9.71824C6.64456 9.2304 7.2544 8.89428 7.9192 8.7502C8.15685 8.69018 8.40074 8.65948 8.6456 8.65875C9.11616 8.66035 9.58242 8.7499 10.0212 8.92295C10.0783 8.94607 10.1331 8.97465 10.185 9.0083C10.4573 9.19256 10.7229 9.3863 10.9999 9.56311C11.3701 9.79885 11.6224 10.1403 11.8408 10.5115C12.296 11.2972 12.4473 12.2272 12.265 13.1202C12.2397 13.2225 12.2463 13.339 12.1558 13.4583Z" fill="#1C1B1B"/>
<path d="M9.78144 15.9248C9.76833 15.9446 9.74892 15.9592 9.72649 15.9661C9.70405 15.973 9.67995 15.9718 9.65826 15.9627C9.67227 15.944 9.69171 15.9303 9.71382 15.9235C9.73593 15.9167 9.7596 15.9171 9.78144 15.9248Z" fill="#A2A2A2"/>
<path d="M40.3396 10.2703C40.9907 10.266 41.6168 10.5249 42.0804 10.9901C42.5439 11.4552 42.807 12.0886 42.8118 12.7511C42.8145 13.0722 42.7542 13.3907 42.6344 13.6878C42.5146 13.9849 42.3376 14.2547 42.1139 14.4813C41.8902 14.7079 41.6242 14.8868 41.3317 15.0074C41.0391 15.128 40.7258 15.1879 40.4102 15.1837C39.0493 15.1837 37.9353 14.0693 37.9327 12.7043C37.9321 12.3832 37.994 12.0652 38.1149 11.7687C38.2358 11.4721 38.4133 11.2029 38.6372 10.9765C38.861 10.7502 39.1267 10.5712 39.4189 10.45C39.7111 10.3288 40.024 10.2677 40.3396 10.2703Z" fill="#C3C3C3"/>
<path d="M26.7424 5.01288C27.0893 5.00339 27.4375 5.0481 27.7817 4.9763C27.809 4.97392 27.8364 4.97392 27.8636 4.9763C27.9555 4.9763 27.9895 5.02101 27.9662 5.10704C27.9458 5.15846 27.9359 5.21352 27.9369 5.26894C27.9895 5.35159 27.9508 5.4322 27.9242 5.50875C27.6978 6.15297 27.6492 6.82497 27.6233 7.50036C27.6166 7.6792 27.6233 7.86278 27.5221 8.024C27.4735 8.066 27.4834 8.12426 27.4828 8.17913C27.4828 8.339 27.4828 8.49888 27.4828 8.65942C27.4888 9.18713 27.4522 9.71417 27.4282 10.2405C27.4082 10.6775 27.4055 11.1144 27.4035 11.5513C27.4035 11.781 27.345 12.0052 27.3569 12.2348C27.3598 12.2525 27.3586 12.2706 27.3534 12.2878C27.3483 12.3049 27.3394 12.3206 27.3274 12.3337C27.3154 12.3468 27.3006 12.3569 27.2841 12.3632C27.2676 12.3696 27.25 12.372 27.2324 12.3703C27.1852 12.3703 27.1372 12.3703 27.0893 12.3703C26.4601 12.3703 25.8296 12.3439 25.2017 12.3785C24.1364 12.4367 23.0711 12.369 22.0058 12.4225C21.1402 12.4665 20.2707 12.4225 19.4045 12.4584C18.3052 12.5045 17.2073 12.4943 16.106 12.4977H16.0035C15.8231 12.4977 15.8377 12.4929 15.8137 12.3134C15.7578 11.8914 15.8137 11.4646 15.7685 11.046C15.7291 10.5754 15.7207 10.1026 15.7432 9.63084C15.7525 9.30568 15.7758 8.97984 15.7771 8.65401C15.8477 8.49007 15.835 8.31055 15.8437 8.1412C15.867 7.74626 15.9103 7.35336 15.9416 6.9591C15.9502 6.82071 15.9682 6.68308 15.9955 6.54723C16.0338 6.37747 16.1058 6.21745 16.207 6.07697C16.3082 5.93649 16.4365 5.81852 16.5841 5.73026C16.7279 5.63746 16.885 5.56497 17.0109 5.44439C17.038 5.42303 17.0691 5.40756 17.1023 5.39894C17.1355 5.39032 17.1701 5.38872 17.204 5.39426C17.696 5.40578 18.1867 5.36039 18.6774 5.33871C19.216 5.31568 19.7554 5.3123 20.2927 5.26555C20.6651 5.1889 21.0446 5.15302 21.4245 5.15852C21.9332 5.16191 22.4412 5.08671 22.9513 5.12397C23.0126 5.12327 23.0734 5.11298 23.1317 5.09349C23.4852 5.05217 23.8421 5.05826 24.197 5.04675C24.723 5.02913 25.2483 4.979 25.775 4.99255C26.0153 4.99933 26.251 4.93362 26.4914 4.95055C26.5786 4.95326 26.6712 4.93904 26.7424 5.01288Z" fill="#7E7E7E"/>
<path d="M23.1337 5.14162C23.0764 5.19446 23.0052 5.17684 22.9386 5.1782C22.7349 5.1782 22.5305 5.17142 22.3274 5.1843C21.8933 5.21207 21.4618 5.20936 21.0257 5.23239C20.782 5.24594 20.539 5.26017 20.2933 5.2622C20.5091 5.17752 20.6868 5.0251 20.8892 4.91536C21.2434 4.7223 21.5877 4.50891 21.9452 4.32126C22.5764 3.99136 23.1823 3.61607 23.8062 3.27262C24.3821 2.95559 24.9281 2.58775 25.4953 2.25649C26.0087 1.95639 26.504 1.62378 27.0081 1.3081C27.0487 1.28236 27.0926 1.26204 27.1106 1.21259C27.1679 1.21259 27.1872 1.26 27.2211 1.29252C27.253 1.32862 27.2947 1.35432 27.3409 1.36638C27.3871 1.37843 27.4358 1.3763 27.4808 1.36026C27.6259 1.31149 27.7771 1.34333 27.9256 1.33994C27.9975 1.33994 28.0194 1.38059 27.9995 1.45036C27.9922 1.49768 27.9813 1.54434 27.9668 1.58991C27.9136 1.70507 27.9002 1.80871 28.0008 1.90762C28.0194 1.92523 28.0101 1.97536 28.0134 2.0072C27.0207 2.64194 26.0087 3.25162 25.0013 3.86739C24.3162 4.28671 23.6104 4.6742 22.9086 5.06981C22.9792 5.11249 23.0778 5.06168 23.1337 5.14162Z" fill="#474747"/>
<path d="M29.4955 4.72023C29.4405 4.74804 29.3798 4.76242 29.3184 4.76223C29.0667 4.76765 28.8137 4.73988 28.5654 4.80085C28.5316 4.80627 28.4972 4.80627 28.4635 4.80085C28.3596 4.7934 28.3303 4.76088 28.3503 4.65588C28.3982 4.43301 28.4488 4.21081 28.5094 3.99201C28.7092 3.26039 28.8849 2.52201 29.0348 1.7782C29.0713 1.64461 29.0886 1.50633 29.086 1.36768C29.0794 1.28165 29.112 1.21662 29.2092 1.21188C29.399 1.20375 29.5907 1.22272 29.7778 1.17056C29.7948 1.16747 29.8123 1.16963 29.8281 1.17675C29.8439 1.18388 29.8572 1.19564 29.8664 1.21052C29.8064 1.76059 29.7678 2.31336 29.6773 2.86004C29.6287 3.15336 29.6067 3.45075 29.5781 3.74678C29.5481 4.07194 29.5235 4.39643 29.4955 4.72023Z" fill="#797979"/>
<path d="M28.0607 5.43291C28.1036 5.34062 28.1405 5.24558 28.1712 5.14839C28.2078 5.00545 28.2957 4.96549 28.4289 4.97158C28.8284 4.99055 29.2279 4.90384 29.632 4.92958C29.6524 4.93244 29.6732 4.93045 29.6927 4.92375C29.7123 4.91704 29.73 4.90583 29.7445 4.89097C30.2106 4.89097 30.6727 4.85574 31.1354 4.83474C31.5109 4.81781 31.8858 4.81849 32.2606 4.80358C32.3272 4.80358 32.3991 4.82187 32.4564 4.76633C32.4807 4.74168 32.5104 4.72311 32.5429 4.71206C32.5755 4.70102 32.6102 4.69779 32.6442 4.70265C32.9045 4.70265 33.1635 4.66404 33.4218 4.66471C33.9079 4.66471 34.3906 4.59697 34.8773 4.61323C35.135 4.62 35.1376 4.58545 35.1529 4.32533C35.1756 3.93039 35.1709 3.53274 35.2308 3.13984C35.233 3.09077 35.254 3.04454 35.2894 3.01113C35.3038 2.99621 35.3146 2.97812 35.3209 2.95826C35.3273 2.9384 35.329 2.91731 35.326 2.89665C35.3087 2.49562 35.3926 2.09797 35.37 1.69694C35.367 1.66246 35.367 1.62777 35.37 1.59329C35.3846 1.47678 35.4266 1.44833 35.5338 1.48558C35.5724 1.49845 35.6077 1.52081 35.6456 1.53571C35.918 1.64003 35.9499 1.68474 35.8893 1.96994C35.867 2.09208 35.8579 2.21633 35.862 2.34049C35.8094 2.85126 35.8028 3.36542 35.7462 3.87552C35.7235 4.07874 35.7322 4.27655 35.6969 4.47639C35.6729 4.61187 35.7056 4.62949 35.8407 4.63626C36.1217 4.64981 36.398 4.59155 36.679 4.59562C37.1983 4.60307 37.7163 4.55158 38.2357 4.54278C38.4733 4.53871 38.7124 4.51771 38.9514 4.51162C39.0214 4.50037 39.093 4.50593 39.1605 4.52787C39.1531 4.63829 39.0712 4.71281 39.0213 4.79884C38.3615 5.9281 37.713 7.06481 37.0239 8.1751C36.9873 8.23336 36.9573 8.29636 36.9233 8.35733C36.6477 8.80894 36.3723 9.26326 36.0971 9.72029C35.8241 10.1687 35.5498 10.6165 35.2788 11.0656C35.1356 11.3027 34.9985 11.5398 34.858 11.7803C34.8183 11.8539 34.7738 11.9248 34.7248 11.9924C34.5996 12.1543 34.4638 12.2735 34.2275 12.2511C33.7507 12.2051 33.274 12.2979 32.7953 12.287C32.6315 12.287 32.467 12.287 32.3026 12.287C30.929 12.304 29.5554 12.3466 28.1805 12.3311C28.0114 12.3311 27.8476 12.3866 27.6719 12.3704C27.53 12.3575 27.5181 12.3588 27.5227 12.2118C27.5327 11.886 27.4861 11.5581 27.56 11.2343C27.5617 11.2206 27.5617 11.2067 27.56 11.193C27.5334 10.6362 27.6006 10.0827 27.6113 9.52655C27.6179 9.19529 27.6366 8.862 27.6459 8.52871C27.5587 8.39865 27.6186 8.25774 27.6279 8.12226C27.6672 7.54307 27.6792 6.96116 27.7531 6.38468C27.7958 6.12581 27.8593 5.87092 27.9428 5.62258C27.9483 5.58433 27.9616 5.54767 27.9819 5.51499C28.0023 5.48232 28.0291 5.45435 28.0607 5.43291Z" fill="#797979"/>
<path d="M35.2881 3.00975C35.2568 3.39588 35.2568 3.78471 35.2115 4.17017C35.2017 4.25279 35.2048 4.33648 35.2209 4.4181C35.2562 4.60439 35.2002 4.66875 35.0091 4.67484C34.9066 4.67484 34.8047 4.67484 34.7022 4.67484C34.2521 4.67484 33.8027 4.71346 33.3533 4.72971C33.0543 4.74055 32.754 4.75207 32.4551 4.76155C32.2607 4.7453 32.0649 4.77578 31.8206 4.7392L35.2661 2.53894C35.3061 2.70965 35.2741 2.86207 35.2881 3.00975Z" fill="#363636"/>
<path d="M28.0607 5.43292C27.9382 5.80853 27.846 6.19367 27.785 6.58453C27.7782 6.62553 27.774 6.66694 27.7724 6.7085C27.7764 7.23553 27.6905 7.75714 27.6832 8.28418C27.677 8.36675 27.6659 8.44887 27.6499 8.53008C27.5593 8.56598 27.5234 8.52466 27.5227 8.43592C27.5227 8.30043 27.5227 8.16314 27.5227 8.02405C27.5513 7.54037 27.582 7.05737 27.6186 6.57505C27.6519 6.12659 27.7977 5.6944 27.9375 5.26898C28.046 5.26898 28.0607 5.34553 28.0607 5.43292Z" fill="#3A3A3A"/>
<path d="M23.1336 5.14164H22.7521C22.8221 5.0653 22.9048 5.00222 22.9965 4.95535C24.0678 4.3748 25.1111 3.74548 26.1484 3.10531C26.702 2.7639 27.2544 2.42044 27.8057 2.07496C27.8656 2.0285 27.9394 2.00456 28.0147 2.00722H28.0187C28.0853 2.08919 28.0354 2.16709 28.0061 2.24228C27.7118 2.99083 27.4794 3.76309 27.1785 4.50961C27.1532 4.57328 27.1378 4.64509 27.0706 4.68031C27.0659 4.68506 27.0586 4.68912 27.0566 4.69454C27.0352 4.77968 27.0046 4.86215 26.9654 4.94044C26.9188 5.01428 26.8036 4.93638 26.743 5.00819C26.2397 5.00819 25.737 5.04544 25.2343 5.06509C24.8741 5.07864 24.5119 5.06983 24.1537 5.1037C23.8128 5.13893 23.4739 5.13283 23.1336 5.14164Z" fill="#363636"/>
<path d="M27.0706 4.6742C27.1991 4.20611 27.4155 3.77188 27.562 3.30988C27.692 2.90343 27.8385 2.50104 28.0014 2.10272C28.0113 2.06971 28.0171 2.03558 28.0187 2.00111C28.072 1.84056 28.1319 1.68204 28.1759 1.51879C28.1971 1.43994 28.2266 1.36363 28.2638 1.29117C28.4275 1.2971 28.5913 1.28506 28.7525 1.25527C28.8856 1.22343 28.9229 1.26204 28.9196 1.40837C28.9102 1.5602 28.8868 1.71081 28.8497 1.85817C28.6872 2.6162 28.4908 3.36543 28.2917 4.11466C28.2445 4.29485 28.2092 4.47843 28.1659 4.65659C28.1452 4.7433 28.1106 4.8002 28.0008 4.80088C27.7424 4.80088 27.4828 4.77514 27.2251 4.83408C27.1106 4.86659 27.0666 4.78598 27.0706 4.6742Z" fill="#797979"/>
<path d="M8.75542 13.9115C8.77606 13.8132 8.69549 13.6866 8.83531 13.6229C9.13027 13.3709 9.13759 13.3716 9.47716 13.5687C9.61964 13.6513 9.76412 13.7299 9.90061 13.8214C10.0771 13.9386 10.1004 14.0158 9.9672 14.1729C9.72507 14.4785 9.38617 14.6889 9.00842 14.7684C8.84796 14.8029 8.78072 14.7413 8.7714 14.5726C8.76207 14.3525 8.79536 14.1309 8.75542 13.9115Z" fill="#363636"/>
<path d="M8.09694 13.6161C8.1795 13.6487 8.19482 13.7137 8.19016 13.7963C8.18084 13.9596 8.1795 14.1222 8.17418 14.2854C8.13623 14.3864 8.16486 14.4887 8.15687 14.5943C8.14555 14.7346 8.07231 14.7976 7.93781 14.7705C7.50304 14.6892 7.18744 14.4196 6.91513 14.0876C6.84854 14.0057 6.88117 13.9264 6.96107 13.8749C7.20045 13.7139 7.45126 13.5713 7.71144 13.4481C7.89454 13.3668 7.9771 13.5403 8.09694 13.6161Z" fill="#363636"/>
<path d="M8.75542 13.9115C8.80335 13.9792 8.78338 14.0585 8.78804 14.133C8.79603 14.2779 8.7927 14.4243 8.80335 14.5692C8.81401 14.7142 8.86994 14.7474 9.0031 14.7169C9.38439 14.6271 9.72408 14.4075 9.96586 14.0944C10.0258 14.0219 10.0398 13.9677 9.94656 13.9135C9.7153 13.778 9.48581 13.6425 9.2581 13.507C9.22743 13.485 9.19052 13.4738 9.153 13.4752C9.11549 13.4765 9.07944 13.4903 9.05037 13.5145C8.99062 13.5718 8.91559 13.61 8.83465 13.6242C8.8939 13.5667 8.83465 13.4799 8.89191 13.4142C8.93664 13.3528 9.00136 13.3096 9.07454 13.2922C9.14771 13.2748 9.22456 13.2845 9.2914 13.3194C9.43388 13.3871 9.56771 13.4698 9.7062 13.5436C9.82072 13.6053 9.9379 13.6615 10.0524 13.7225C10.2635 13.8349 10.2981 13.9582 10.1503 14.1553C9.97729 14.3969 9.76058 14.6027 9.51178 14.7616C9.38991 14.8373 9.25931 14.8974 9.12294 14.9405C9.06433 14.9586 9.00293 14.9654 8.94184 14.9608C8.816 14.9533 8.75475 14.893 8.75275 14.7657C8.75142 14.4798 8.75475 14.1953 8.75542 13.9115Z" fill="#969696"/>
<path d="M8.09693 13.6161C8.07984 13.6181 8.06252 13.6162 8.04627 13.6104C8.03002 13.6047 8.01525 13.5953 8.00305 13.5829C7.85924 13.4359 7.71942 13.4718 7.56628 13.5721C7.38252 13.6927 7.1901 13.7983 7.00034 13.9108C6.93376 13.9501 6.88515 13.9921 6.95506 14.0707C7.22472 14.3735 7.52167 14.6336 7.93248 14.7169C8.0703 14.7454 8.11624 14.7115 8.13755 14.572C8.15153 14.4771 8.11957 14.3762 8.17417 14.2874C8.17417 14.4466 8.18149 14.6065 8.17417 14.7657C8.16884 14.9012 8.10759 14.9554 7.96444 14.9621C7.88916 14.9637 7.81444 14.9487 7.74539 14.9181C7.3501 14.7594 7.01012 14.4847 6.76864 14.1289C6.65212 13.9602 6.67676 13.858 6.85186 13.753C7.08157 13.6175 7.31394 13.4867 7.5483 13.3607C7.62615 13.3165 7.71293 13.291 7.80198 13.2862C7.96843 13.2808 8.03834 13.3424 8.06364 13.5213C8.07201 13.5538 8.08315 13.5855 8.09693 13.6161Z" fill="#969696"/>
<path d="M10.2742 13.1622C10.2509 13.2252 10.2396 13.3147 10.141 13.2794C9.91264 13.1961 9.67494 13.1236 9.49118 12.9522C9.44724 12.8479 9.4752 12.7348 9.45523 12.6264C9.43791 12.5329 9.5025 12.4713 9.57907 12.4313C9.72397 12.354 9.87757 12.2948 10.0365 12.2552C10.2049 12.2152 10.3261 12.2938 10.3075 12.4625C10.2835 12.6962 10.3201 12.9312 10.2742 13.1622Z" fill="#373737"/>
<path d="M7.43047 12.9902C7.23429 13.1027 7.03074 13.2014 6.82125 13.2855C6.76199 13.3343 6.73203 13.2855 6.69741 13.2483C6.66012 13.1968 6.69741 13.1284 6.66212 13.0769V12.9963C6.62916 12.8875 6.62916 12.7711 6.66212 12.6623V12.621C6.63398 12.5725 6.62233 12.5158 6.62894 12.4599C6.63556 12.404 6.66009 12.3518 6.69874 12.3114C6.77863 12.2098 6.88516 12.2552 6.98371 12.2836C7.017 12.2931 7.05029 12.3046 7.08158 12.3155C7.52368 12.4645 7.54898 12.5133 7.43047 12.9902Z" fill="#373737"/>
<path d="M9.20221 11.9057C9.11403 11.9084 9.02803 11.8774 8.9613 11.8187C8.89457 11.7599 8.85199 11.6778 8.84201 11.5886C8.83136 11.4152 8.8713 11.2452 8.87596 11.0724C8.89727 10.9058 8.99448 10.8692 9.13563 10.9234C9.35595 11.0019 9.5519 11.1384 9.70357 11.319C9.79079 11.424 9.78214 11.5073 9.68826 11.6076C9.55043 11.7532 9.37666 11.8271 9.20221 11.9057Z" fill="#373737"/>
<path d="M8.09296 11.2451C8.09296 11.3352 8.09762 11.4253 8.09895 11.5161C8.09895 11.7613 7.98976 11.8812 7.73142 11.9056C7.57831 11.8521 7.4376 11.7673 7.31795 11.6563C7.15616 11.5209 7.14218 11.4084 7.28666 11.2634C7.42552 11.1192 7.59431 11.0083 7.78069 10.9389C7.99309 10.8624 8.065 10.9159 8.07432 11.1456C8.07017 11.1799 8.07669 11.2147 8.09296 11.2451Z" fill="#373737"/>
<path d="M9.2022 11.9057C9.2413 11.8479 9.30059 11.8074 9.36799 11.7925C9.48099 11.7435 9.58329 11.6721 9.66894 11.5825C9.74218 11.5148 9.75483 11.4471 9.68692 11.3664C9.5269 11.184 9.32523 11.0444 9.09967 10.96C8.98448 10.9153 8.92323 10.9769 8.87595 11.0711C8.88528 10.939 8.84266 10.8116 8.83667 10.6816C8.83001 10.5346 8.85265 10.5156 8.98382 10.5603C9.3591 10.6831 9.70482 10.8848 9.99852 11.1524C10.0385 11.1896 10.0738 11.2317 10.1037 11.2777C10.1237 11.3089 10.161 11.3454 10.1197 11.3874C10.0904 11.4166 10.0571 11.3962 10.0271 11.3793C10.0219 11.3748 10.0163 11.3707 10.0105 11.3671C9.88133 11.3089 9.86469 11.3156 9.82141 11.4437C9.7475 11.6618 9.43257 11.8962 9.2022 11.9057Z" fill="#959595"/>
<path d="M8.09296 11.2451C8.05435 11.2072 8.06167 11.1564 8.05368 11.1097C8.02705 10.9484 7.99109 10.9274 7.83263 10.9742C7.66522 11.0337 7.51077 11.1257 7.37788 11.2451C7.18746 11.3969 7.18413 11.4531 7.31796 11.6557C7.27086 11.65 7.22655 11.63 7.19088 11.5981C7.15522 11.5663 7.12988 11.5243 7.11821 11.4775C7.05962 11.3237 7.06162 11.323 6.91181 11.3854C6.88784 11.3955 6.86121 11.4016 6.82259 11.4145C6.80262 11.3183 6.86054 11.2695 6.90848 11.2167C7.16074 10.9506 7.47025 10.7477 7.81266 10.6239C7.89655 10.5908 7.98843 10.4885 8.07898 10.5562C8.16953 10.6239 8.08897 10.7357 8.09696 10.8272C8.10295 10.964 8.09363 11.1036 8.09296 11.2451Z" fill="#959595"/>
<path d="M10.2742 13.1623L10.2702 12.6203C10.2702 12.5858 10.2702 12.5526 10.2702 12.5167C10.2515 12.2749 10.2156 12.2498 9.99719 12.3263C9.86869 12.3717 9.74218 12.4219 9.61435 12.4693C9.57755 12.478 9.54508 12.4999 9.52293 12.531C9.50079 12.5621 9.49045 12.6004 9.49384 12.6386C9.49783 12.7423 9.49384 12.8459 9.49384 12.9496C9.43518 12.8045 9.40727 12.6484 9.41194 12.4916C9.41194 12.4185 9.45921 12.3832 9.51714 12.3561C9.77148 12.2207 10.0272 12.096 10.2755 11.9497C10.4173 11.8677 10.4719 11.8962 10.5152 12.0472C10.5551 12.1827 10.5944 12.3257 10.6264 12.4666C10.6583 12.6075 10.6324 12.6312 10.4985 12.5912C10.3647 12.5512 10.3241 12.5831 10.3141 12.7362C10.3048 12.8798 10.3534 13.0275 10.2742 13.1623Z" fill="#969595"/>
<path d="M7.43047 12.9902C7.4358 12.8798 7.43913 12.77 7.44712 12.6603C7.45167 12.638 7.45182 12.6151 7.44757 12.5928C7.44332 12.5704 7.43475 12.5492 7.42236 12.5303C7.40997 12.5114 7.394 12.4952 7.37539 12.4826C7.35678 12.47 7.3359 12.4613 7.31396 12.457C7.16548 12.4103 7.02033 12.3527 6.87252 12.3039C6.74469 12.2626 6.72804 12.2748 6.69475 12.4144C6.67877 12.4821 6.66812 12.5499 6.65547 12.6176C6.61072 12.5868 6.55634 12.574 6.50285 12.5816C6.44936 12.5893 6.40055 12.6168 6.36584 12.6589C6.34343 12.6231 6.32876 12.5828 6.32279 12.5408C6.31682 12.4987 6.3197 12.4559 6.33122 12.415C6.35761 12.2801 6.39411 12.1474 6.44041 12.0181C6.48169 11.9043 6.5536 11.8745 6.64748 11.9334C6.89649 12.0892 7.16149 12.2139 7.41649 12.3568C7.45977 12.3805 7.51037 12.4035 7.51237 12.4557C7.52369 12.6393 7.55032 12.8276 7.43047 12.9902Z" fill="#949494"/>
<path d="M8.4445 12.5715C8.51318 12.569 8.58014 12.5937 8.63139 12.6403C8.68264 12.6868 8.7142 12.7518 8.71948 12.8215C8.71948 12.94 8.61894 13.0159 8.4738 13.0085C8.32865 13.001 8.19416 12.8899 8.19416 12.7585C8.19349 12.6501 8.30335 12.5681 8.4445 12.5715Z" fill="#393939"/>
<path d="M7.31793 11.6516C7.45576 11.7349 7.61555 11.7803 7.7314 11.9009C7.53632 11.9185 7.41647 11.804 7.31793 11.6516Z" fill="#959595"/>
<path d="M6.65812 12.6603C6.66977 12.7713 6.66977 12.8832 6.65812 12.9942C6.62823 12.9439 6.61243 12.8861 6.61243 12.8273C6.61243 12.7684 6.62823 12.7107 6.65812 12.6603Z" fill="#949494"/>
<path d="M6.66146 13.0742C6.69354 13.125 6.70612 13.186 6.6968 13.2456C6.63945 13.1989 6.65079 13.1365 6.66146 13.0742Z" fill="#949494"/>
<path d="M6.69739 13.2483L6.82123 13.2855C6.75731 13.3506 6.71536 13.3411 6.69739 13.2483Z" fill="#949494"/>
<path d="M40.59 13.8261C40.56 13.7394 40.5593 13.6649 40.6632 13.6269C40.693 13.6122 40.7211 13.5943 40.7471 13.5734C40.9415 13.3939 40.9895 13.3851 41.2132 13.5104C41.3989 13.6134 41.5814 13.7231 41.7571 13.8417C41.9329 13.9602 41.9349 14.0449 41.7958 14.1953C41.5527 14.4607 41.2448 14.6558 40.9036 14.7609C40.7624 14.8043 40.6626 14.7874 40.6266 14.6255C40.5793 14.4358 40.6179 14.2427 40.6046 14.0517C40.602 13.9758 40.6226 13.8986 40.59 13.8261Z" fill="#363636"/>
<path d="M39.8822 13.5897C40.046 13.6798 40.0407 13.6798 40.028 13.8735C40.0154 14.0673 40.0154 14.2597 40.0101 14.4534C39.9615 14.8084 39.8989 14.8436 39.5586 14.7047C39.273 14.5841 39.0182 14.3988 38.8136 14.1628C38.6951 14.0273 38.6977 13.9596 38.8422 13.8573C39.0567 13.7083 39.2817 13.5756 39.5154 13.4603C39.6765 13.3838 39.7857 13.463 39.8822 13.5897Z" fill="#363636"/>
<path d="M39.8822 13.5897C39.8755 13.5897 39.8676 13.5897 39.8629 13.585C39.6958 13.4285 39.5366 13.484 39.3702 13.5931C39.2037 13.7022 39.0193 13.8044 38.8455 13.9128C38.7869 13.9494 38.7257 13.9934 38.7989 14.0754C39.0533 14.362 39.3409 14.5977 39.7144 14.7034C39.9188 14.761 39.9441 14.742 39.9807 14.5286C39.988 14.5025 39.9981 14.4773 40.0107 14.4534C40.0107 14.5503 40.018 14.6478 40.0107 14.7447C40.0034 14.9107 39.9441 14.9608 39.7783 14.9615C39.6892 14.9574 39.6018 14.9343 39.522 14.8937C39.1473 14.7212 38.8253 14.449 38.5899 14.1059C38.498 13.9779 38.5106 13.8674 38.6438 13.7848C38.9319 13.5985 39.2348 13.4369 39.5493 13.3018C39.5989 13.2763 39.6552 13.268 39.7099 13.278C39.7646 13.288 39.8145 13.3159 39.8522 13.3573C39.8802 13.3882 39.8981 13.4271 39.9035 13.4687C39.9088 13.5103 39.9014 13.5526 39.8822 13.5897Z" fill="#969696"/>
<path d="M40.6286 14.6234C40.6952 14.7379 40.7824 14.7454 40.9049 14.7081C41.2508 14.5978 41.5598 14.3922 41.7977 14.114C41.8883 14.0124 41.8843 13.9785 41.7671 13.9067C41.5674 13.78 41.3556 13.6635 41.1532 13.5355C41.042 13.4644 40.9428 13.4488 40.841 13.5463C40.8292 13.559 40.8142 13.5683 40.7977 13.5731C40.7812 13.5778 40.7637 13.578 40.7471 13.5734C40.7105 13.3831 40.7877 13.2882 40.9748 13.2849C41.0569 13.2865 41.1372 13.3098 41.2078 13.3526C41.4435 13.4799 41.6792 13.6053 41.9136 13.734C42.0914 13.8315 42.13 14.0009 41.9922 14.1648C41.8406 14.3535 41.6684 14.524 41.4788 14.6729C41.3438 14.7792 41.193 14.8629 41.0321 14.9208C40.9879 14.9391 40.9419 14.9523 40.8949 14.9601C40.6572 14.9825 40.6053 14.9317 40.6232 14.6858C40.6246 14.6648 40.6266 14.6438 40.6286 14.6234Z" fill="#959696"/>
<path d="M39.267 12.9922C39.0919 13.0967 38.9081 13.1851 38.7177 13.2564C38.6558 13.2788 38.5912 13.3187 38.5339 13.2449C38.478 13.1528 38.5439 13.0417 38.494 12.9496C38.4966 12.9368 38.4966 12.9237 38.494 12.9109C38.4799 12.8932 38.4722 12.8711 38.4722 12.8483C38.4722 12.8255 38.4799 12.8033 38.494 12.7856V12.705C38.5412 12.6291 38.486 12.5594 38.4813 12.4862C38.4707 12.3053 38.5745 12.2152 38.7476 12.2566C38.8522 12.2836 38.9521 12.329 39.0546 12.3649C39.3242 12.4605 39.3622 12.5296 39.3116 12.8269C39.2663 12.871 39.3189 12.9475 39.267 12.9922Z" fill="#373737"/>
<path d="M42.0954 13.1982C42.0587 13.2286 42.0587 13.3092 41.9822 13.2876C41.9482 13.2483 41.8943 13.2808 41.8583 13.2503C41.6826 13.1507 41.4835 13.0938 41.3317 12.9495C41.2757 12.8323 41.3037 12.7057 41.303 12.5851C41.303 12.4496 41.4282 12.411 41.5307 12.3819C41.7065 12.3338 41.8637 12.1719 42.0681 12.2809C42.0923 12.2951 42.112 12.316 42.1249 12.3412C42.1377 12.3664 42.1432 12.3949 42.1406 12.4232C42.1033 12.6813 42.1626 12.9434 42.0954 13.1982Z" fill="#373737"/>
<path d="M40.9561 11.9077L40.8509 11.8467C40.7877 11.8141 40.7368 11.7612 40.706 11.6962C40.6752 11.6312 40.6662 11.5577 40.6805 11.487C40.6985 11.3515 40.7031 11.2161 40.7138 11.0806C40.7477 10.9038 40.8596 10.8773 41.0027 10.9336C41.1997 11.0122 41.3792 11.1301 41.5307 11.2804C41.6279 11.3739 41.6453 11.4836 41.5387 11.5873C41.3743 11.7478 41.1985 11.8901 40.9561 11.9077Z" fill="#373737"/>
<path d="M39.9175 11.7342L39.6825 11.909C39.4055 11.9056 39.2244 11.7261 39.0566 11.5391C38.982 11.4572 39.0333 11.3542 39.1032 11.2776C39.2193 11.1583 39.3543 11.0598 39.5027 10.9864C39.789 10.8306 39.8829 10.8807 39.9282 11.2004C39.9692 11.3764 39.9655 11.5601 39.9175 11.7342Z" fill="#373737"/>
<path d="M39.9255 11.2005C39.9175 11.189 39.9055 11.1788 39.9028 11.1666C39.8489 10.9295 39.8049 10.901 39.5919 11C39.4231 11.0749 39.2697 11.1815 39.1398 11.3143C39.0319 11.4274 39.0339 11.4823 39.1398 11.5947C39.2896 11.7553 39.484 11.8359 39.6831 11.909C39.5719 11.9829 39.47 11.9185 39.3855 11.8657C39.2561 11.7769 39.132 11.6803 39.014 11.5764C38.9949 11.5618 38.9791 11.5433 38.9677 11.5221C38.9562 11.5008 38.9493 11.4773 38.9474 11.4531C38.9374 11.3373 38.8808 11.3122 38.7809 11.3637C38.7476 11.3813 38.7064 11.4227 38.6731 11.3752C38.6398 11.3278 38.6791 11.2851 38.711 11.2486C38.8681 11.0755 39.051 10.9287 39.253 10.8137C39.4302 10.7105 39.616 10.6234 39.8083 10.5535C39.9148 10.5129 39.9854 10.561 39.9568 10.6633C39.9048 10.8421 39.9488 11.0223 39.9255 11.2005Z" fill="#959595"/>
<path d="M40.9561 11.9077C41.1519 11.8298 41.347 11.7485 41.4968 11.5899C41.5967 11.4849 41.602 11.4267 41.5014 11.3258C41.3565 11.1798 41.1845 11.0647 40.9954 10.987C40.8356 10.9193 40.8196 10.9315 40.7138 11.0805C40.7085 10.9632 40.6969 10.8463 40.6792 10.7303C40.6405 10.5718 40.6991 10.5271 40.8483 10.5731C41.2114 10.694 41.5455 10.8911 41.829 11.1517C41.8608 11.1778 41.8888 11.2084 41.9122 11.2424C41.9402 11.2858 41.9975 11.3339 41.9555 11.3867C41.9136 11.4396 41.8723 11.382 41.831 11.3623C41.7278 11.3149 41.6772 11.3258 41.6639 11.424C41.6473 11.552 41.5574 11.613 41.4808 11.6875C41.3626 11.8022 41.2199 11.8878 41.064 11.9375C41.0221 11.949 40.9834 11.951 40.9561 11.9077Z" fill="#959595"/>
<path d="M42.0953 13.1982C42.1113 12.9899 42.1153 12.7809 42.1073 12.5722C42.1046 12.5034 42.0938 12.4352 42.0754 12.369C42.0742 12.3532 42.0691 12.338 42.0606 12.3247C42.052 12.3115 42.0403 12.3006 42.0266 12.2932C42.0128 12.2859 41.9974 12.2822 41.9818 12.2825C41.9662 12.2828 41.951 12.2872 41.9376 12.2952C41.7698 12.3554 41.6046 12.4191 41.4362 12.4801C41.403 12.4896 41.3741 12.5107 41.3547 12.5397C41.3352 12.5687 41.3263 12.6037 41.3297 12.6386C41.3297 12.7429 41.3297 12.8473 41.3297 12.9516C41.2431 12.8032 41.2731 12.6339 41.2491 12.4774C41.2385 12.4056 41.3157 12.3812 41.3683 12.3514C41.626 12.2112 41.8963 12.0953 42.1466 11.9395C42.2132 11.8995 42.2798 11.8934 42.3177 11.9788C42.4095 12.1838 42.4603 12.4053 42.4669 12.6305C42.4402 12.6393 42.4249 12.6508 42.4163 12.6474C42.1752 12.535 42.1499 12.5505 42.1499 12.8093C42.1499 12.9062 42.1499 13.0031 42.1499 13.0999C42.146 13.1379 42.142 13.1792 42.0953 13.1982Z" fill="#959595"/>
<path d="M39.3109 12.8269C39.3109 12.8059 39.3049 12.7856 39.3036 12.7646C39.2889 12.5092 39.2889 12.5099 39.0566 12.4259C38.96 12.392 38.8642 12.3582 38.7683 12.3195C38.5785 12.2518 38.5479 12.2715 38.5266 12.4815C38.5193 12.5553 38.5459 12.6359 38.494 12.703C38.4407 12.5438 38.4207 12.539 38.2043 12.64C38.1477 12.6129 38.1651 12.5594 38.1637 12.5146C38.1564 12.3297 38.2363 12.1658 38.2876 11.9957C38.292 11.9767 38.3009 11.959 38.3135 11.9442C38.3262 11.9294 38.3422 11.918 38.3602 11.9109C38.3781 11.9038 38.3975 11.9013 38.4167 11.9036C38.4358 11.9059 38.4541 11.9128 38.47 11.9239C38.7363 12.0648 38.9933 12.2145 39.257 12.3555C39.3475 12.4042 39.3902 12.4625 39.3582 12.5702C39.3336 12.6549 39.3882 12.7538 39.3109 12.8269Z" fill="#959494"/>
<path d="M40.267 12.5715C40.4295 12.5675 40.556 12.6772 40.5573 12.8235C40.5573 12.936 40.4734 13.0071 40.3349 13.0091C40.1745 13.0091 40.0387 12.896 40.042 12.7578C40.0447 12.6447 40.1285 12.5749 40.267 12.5715Z" fill="#393939"/>
<path d="M40.59 13.8261C40.6513 14.0896 40.6286 14.3572 40.6286 14.6241C40.6153 14.6132 40.6048 14.5992 40.598 14.5833C40.5911 14.5673 40.5882 14.55 40.5893 14.5327C40.5893 14.2969 40.59 14.0619 40.59 13.8261Z" fill="#959696"/>
<path d="M39.9175 11.7343C39.9201 11.5563 39.9226 11.3782 39.9248 11.1998C39.9921 11.3644 39.9887 11.6042 39.9175 11.7343Z" fill="#959595"/>
<path d="M38.494 12.9495C38.548 13.0423 38.52 13.1467 38.534 13.2449C38.4553 13.1555 38.4927 13.0505 38.494 12.9495Z" fill="#959494"/>
<path d="M39.267 12.9922C39.2819 12.9367 39.267 12.873 39.3118 12.8262C39.3159 12.8865 39.3404 12.9529 39.267 12.9922Z" fill="#959494"/>
<path d="M41.8583 13.2503C41.8803 13.2431 41.9038 13.2428 41.9259 13.2495C41.948 13.2561 41.9676 13.2694 41.9822 13.2876C41.9602 13.2939 41.9369 13.2938 41.9149 13.2872C41.893 13.2806 41.8734 13.2678 41.8583 13.2503Z" fill="#959595"/>
<path d="M38.4914 12.7856C38.5044 12.8263 38.5044 12.8702 38.4914 12.9109C38.4414 12.8709 38.4414 12.8283 38.4914 12.7856Z" fill="#959494"/>
<path d="M25.2343 7.31614C24.9554 7.31614 24.7017 7.1495 24.6198 6.90969C24.5691 6.77518 24.5612 6.62791 24.597 6.48855C24.6328 6.3492 24.7106 6.22476 24.8195 6.13269C25.0193 5.95656 25.253 5.85292 25.5366 5.92946C25.6265 5.95136 25.7106 5.99303 25.7829 6.05155C25.8553 6.11007 25.9142 6.18401 25.9554 6.26817C25.9713 6.30926 26.0003 6.34376 26.0377 6.36621C26.0751 6.38867 26.1187 6.39779 26.1618 6.39214C26.3053 6.39539 26.4474 6.42215 26.5826 6.4714C26.6154 6.48093 26.6474 6.49293 26.6785 6.5073C26.7451 6.54117 26.819 6.57979 26.8183 6.66921C26.8176 6.75863 26.7517 6.78505 26.6925 6.82027C26.5593 6.90021 26.4075 6.91037 26.2603 6.93747C26.1876 6.95487 26.1133 6.9653 26.0386 6.96863C25.9912 6.97067 25.9447 6.98282 25.9021 7.00429C25.8596 7.02576 25.8219 7.05607 25.7916 7.09327C25.7204 7.16968 25.6336 7.22924 25.5373 7.26775C25.441 7.30627 25.3376 7.32278 25.2343 7.31614Z" fill="#373737"/>
<path d="M35.7042 5.92877C35.9945 5.90641 36.1896 6.04122 36.3108 6.28306C36.324 6.31837 36.3485 6.3481 36.3805 6.36741C36.4124 6.38673 36.4498 6.39448 36.4866 6.38941C36.6117 6.38332 36.7289 6.42735 36.8501 6.44428C36.9105 6.45612 36.969 6.47641 37.0239 6.50457C37.0905 6.53641 37.167 6.57638 37.1657 6.66512C37.1644 6.75386 37.0918 6.79451 37.0219 6.82432C36.8845 6.88692 36.7373 6.92408 36.5871 6.93406C36.4033 6.93221 36.2258 7.00202 36.0911 7.12916C35.8421 7.36625 35.376 7.39403 35.1203 7.12916C35.0129 7.02518 34.9452 6.88573 34.9295 6.73571C34.9138 6.58569 34.951 6.43486 35.0344 6.31016C35.1889 6.0717 35.4006 5.89354 35.7042 5.92877Z" fill="#373737"/>
<path d="M26.6425 6.66646C26.3296 6.91914 25.0365 6.91643 24.7509 6.66172C25.0612 6.41311 26.3662 6.4165 26.6425 6.66646Z" fill="#777878"/>
<path d="M36.9999 6.66446C36.9774 6.69357 36.9493 6.71776 36.9174 6.73557C36.8855 6.75338 36.8504 6.76445 36.8142 6.76811C36.3078 6.88224 35.7831 6.88224 35.2768 6.76811C35.2502 6.76268 35.2241 6.75474 35.1989 6.7444C35.1623 6.72814 35.111 6.71865 35.1063 6.67259C35.101 6.60959 35.1623 6.60485 35.2035 6.5852C35.4033 6.50188 35.6184 6.50798 35.8261 6.48698C36.1518 6.46012 36.4797 6.48295 36.7988 6.55472C36.838 6.55764 36.8762 6.56892 36.9108 6.58783C36.9455 6.60674 36.9758 6.63284 36.9999 6.66446Z" fill="#777878"/>
</svg>
