<?xml version="1.0" standalone="no"?>
<!DOCTYPE svg PUBLIC "-//W3C//DTD SVG 20010904//EN"
 "http://www.w3.org/TR/2001/REC-SVG-20010904/DTD/svg10.dtd">
<svg version="1.0" xmlns="http://www.w3.org/2000/svg"
 width="512.000000pt" height="512.000000pt" viewBox="0 0 512.000000 512.000000"
 preserveAspectRatio="xMidYMid meet">

<g transform="translate(0.000000,512.000000) scale(0.100000,-0.100000)"
fill="#000000" stroke="none">
<path d="M1993 5106 c-102 -33 -180 -102 -225 -202 -19 -42 -23 -70 -26 -204
-3 -127 -1 -163 12 -194 14 -33 16 -88 16 -362 l0 -323 -232 -3 c-229 -3 -234
-3 -291 -30 -74 -35 -160 -121 -195 -195 l-27 -58 0 -1475 0 -1475 31 -65 c36
-75 96 -139 172 -182 l52 -30 0 -71 c0 -114 55 -197 149 -226 49 -14 173 -14
222 0 91 28 149 112 149 217 l0 62 760 0 760 0 0 -62 c0 -105 58 -189 149
-217 49 -14 173 -14 222 0 94 29 149 112 149 226 l0 71 53 30 c74 42 134 107
171 182 l31 65 0 1475 0 1475 -28 57 c-41 84 -107 152 -185 190 l-66 33 -233
3 -233 3 0 323 c0 265 3 330 15 359 20 47 20 281 1 352 -28 107 -87 180 -184
227 l-67 33 -540 2 c-427 2 -549 -1 -582 -11z m1145 -169 c67 -44 85 -91 90
-229 l4 -118 -86 0 -86 0 0 55 c0 31 -6 71 -14 90 -27 65 -29 65 -486 65 -457
0 -459 0 -486 -65 -8 -19 -14 -59 -14 -90 l0 -55 -85 0 -85 0 0 108 c0 92 4
114 24 158 24 52 65 89 114 104 15 5 261 8 548 7 l520 -2 42 -28z m-228 -349
c0 -36 6 -75 15 -92 12 -23 15 -84 15 -352 l0 -324 -380 0 -380 0 0 324 c0
268 3 329 15 352 9 17 15 56 15 92 l0 62 350 0 350 0 0 -62z m-882 -455 l-3
-308 -50 0 -50 0 -3 308 -2 307 55 0 55 0 -2 -307z m1170 0 l-3 -308 -50 0
-50 0 -3 308 -2 307 55 0 55 0 -2 -307z m618 -487 c54 -25 93 -68 119 -129 13
-32 15 -205 15 -1462 0 -1187 -2 -1431 -14 -1459 -19 -46 -72 -104 -120 -129
l-41 -22 -1215 0 -1215 0 -40 22 c-22 12 -54 36 -72 55 -68 70 -63 -41 -63
1535 l0 1428 24 50 c26 56 42 73 106 109 l45 26 1210 0 1210 0 51 -24z m-2166
-3406 c0 -73 -20 -90 -110 -90 -90 0 -110 17 -110 90 l0 50 110 0 110 0 0 -50z
m2040 0 c0 -73 -20 -90 -110 -90 -90 0 -110 17 -110 90 l0 50 110 0 110 0 0
-50z"/>
<path d="M1620 3310 c-56 -26 -95 -63 -123 -115 -22 -40 -22 -43 -25 -819 l-2
-779 22 -24 c30 -33 80 -31 107 3 21 26 21 33 21 776 0 803 -1 791 49 818 38
20 89 12 123 -19 l33 -29 3 -1096 c3 -1209 6 -1138 -59 -1172 -43 -22 -91 -11
-123 27 -26 30 -26 32 -26 214 0 200 -6 228 -50 243 -32 11 -84 -7 -94 -33 -3
-9 -6 -105 -6 -213 0 -176 3 -202 21 -242 77 -170 280 -210 409 -81 85 85 80
7 80 1235 0 595 -3 1098 -6 1119 -11 61 -63 138 -118 172 -66 40 -168 46 -236
15z"/>
<path d="M2464 3316 c-48 -21 -115 -86 -135 -131 -18 -38 -19 -98 -19 -1168 0
-1225 -3 -1157 54 -1232 13 -17 48 -44 77 -60 103 -56 247 -29 313 58 59 78
56 5 56 1234 0 1117 0 1127 -21 1169 -23 49 -86 110 -135 130 -42 18 -149 17
-190 0z m167 -165 l29 -29 0 -1109 0 -1109 -21 -23 c-45 -48 -107 -50 -153 -4
l-26 26 0 1109 0 1110 29 29 c23 23 38 29 71 29 33 0 48 -6 71 -29z"/>
<path d="M3282 3304 c-53 -26 -84 -59 -118 -124 -16 -30 -19 -64 -22 -227 l-4
-192 26 -26 c32 -32 75 -33 104 -2 19 20 21 35 24 205 l3 184 33 29 c34 31 85
39 123 19 51 -28 49 14 49 -1164 l0 -1094 -26 -31 c-32 -38 -80 -49 -123 -27
-64 33 -61 -2 -61 841 l0 766 -25 24 c-13 14 -31 25 -39 25 -28 0 -64 -22 -75
-47 -8 -17 -11 -248 -11 -782 0 -866 -3 -829 80 -912 129 -129 332 -89 409 81
20 44 21 60 21 1155 0 734 -4 1123 -10 1147 -41 145 -220 221 -358 152z"/>
</g>
</svg>
