<svg width="46" height="19" viewBox="0 0 46 19" fill="none" xmlns="http://www.w3.org/2000/svg">
<g clip-path="url(#clip0_1_481)">
<path d="M0 17.8652C0 18.1756 2.33795 18.4733 6.49951 18.6927C10.6611 18.9122 16.3054 19.0355 22.1907 19.0355C28.0761 19.0355 33.7204 18.9122 37.8819 18.6927C42.0435 18.4733 44.3815 18.1756 44.3815 17.8652C44.3815 17.5548 42.0435 17.2571 37.8819 17.0377C33.7204 16.8182 28.0761 16.6949 22.1907 16.6949C16.3054 16.6949 10.6611 16.8182 6.49951 17.0377C2.33795 17.2571 0 17.5548 0 17.8652Z" fill="#191919"/>
<path d="M16.8193 1.22426C17.0021 1.0764 17.2161 0.973641 17.4205 0.854614C17.6494 1.16142 18.0046 1.10524 18.3197 1.15921C18.4335 1.16859 18.5466 1.18463 18.6586 1.20726C18.8302 1.25827 18.8466 1.29893 18.7329 1.44236C18.5605 1.66415 18.3821 1.88594 18.2038 2.10107C17.0242 3.53679 15.849 4.97572 14.6783 6.41784C14.604 6.50656 14.5215 6.58493 14.4554 6.67808C14.3134 6.87769 14.39 7.0566 14.633 7.08617C14.793 7.10022 14.9538 7.10022 15.1138 7.08617C15.1669 7.07759 15.2214 7.08351 15.2714 7.1033C15.3214 7.12309 15.365 7.15601 15.3977 7.19854C15.686 7.60368 16.123 7.61625 16.5518 7.61329C16.8673 7.61942 17.1785 7.53966 17.4517 7.38263C17.5339 7.34101 17.6236 7.31589 17.7155 7.3087C17.8686 7.28504 18.0313 7.25177 18.1272 7.12979C18.3056 6.90356 18.5508 6.87103 18.8042 6.86364C19.7799 6.83333 20.7534 6.76014 21.7292 6.71578C22.6128 6.67586 23.4956 6.62707 24.3792 6.57975C25.4984 6.51987 26.6168 6.44742 27.7374 6.40232C27.8061 6.39864 27.8741 6.38748 27.9403 6.36905C28.2331 6.29068 28.3721 6.35131 28.4984 6.63372C28.6336 6.93535 28.6745 7.25917 28.7213 7.58446C28.87 8.69341 28.6797 9.7787 28.5668 10.8706C28.5519 11.0185 28.5668 11.139 28.6782 11.2403C28.7092 11.3099 28.722 11.3862 28.7154 11.4621C28.7152 11.5097 28.7095 11.557 28.6983 11.6033C28.6776 11.6668 28.6669 11.7332 28.6663 11.7999C28.665 11.8434 28.6588 11.8865 28.6478 11.9286C28.632 11.979 28.6225 12.0311 28.6195 12.0838C28.6175 12.1262 28.6112 12.1683 28.6009 12.2095C28.5829 12.2698 28.5737 12.3322 28.5734 12.3951C28.5724 12.437 28.5664 12.4787 28.5556 12.5193C28.5402 12.5674 28.5298 12.6169 28.5244 12.6671C28.5211 12.6979 28.5151 12.7283 28.5066 12.7581C28.4917 12.8061 28.483 12.8558 28.4806 12.9059C28.4787 12.9476 28.4728 12.9889 28.4627 13.0294C28.4449 13.0892 28.4359 13.1512 28.436 13.2135C28.4349 13.2554 28.4289 13.2971 28.4181 13.3377C28.4025 13.3873 28.3921 13.4383 28.3869 13.49C28.3835 13.5214 28.3777 13.5525 28.3698 13.5831C28.3549 13.6342 28.3462 13.6868 28.3438 13.7399C28.329 13.85 28.3022 13.958 28.2836 14.0674C28.2663 14.1225 28.257 14.1797 28.2561 14.2374C28.2538 14.2874 28.2458 14.337 28.2323 14.3853C28.2004 14.5501 28.0897 14.6026 27.9351 14.6026C26.6599 14.6026 25.3839 14.6241 24.1094 14.5886C23.7423 14.5782 23.3797 14.6041 23.0148 14.6034H13.0687C12.6042 14.6034 12.6102 14.6034 12.5864 14.1361C12.524 12.9008 12.1925 11.7548 11.4048 10.7731C10.4477 9.57983 9.21926 8.85088 7.68246 8.66975C6.18579 8.49306 4.83477 8.8701 3.63015 9.7617C2.90707 10.3043 2.32717 11.0134 1.94027 11.828C1.89271 11.9256 1.87636 12.0535 1.74334 12.0898C1.28408 12.0387 0.822593 12.0232 0.361107 12.0055C0.185727 11.9988 0.0229808 11.9781 0.000686754 11.7548C-0.021709 11.5524 0.00373849 11.3476 0.0750002 11.1568C0.102496 11.0784 0.125533 10.9875 0.192415 10.9416C0.375226 10.8152 0.407181 10.6259 0.436163 10.4315C0.442851 10.3864 0.453999 10.3428 0.462916 10.2984C0.496357 10.1957 0.542431 10.1543 0.611543 10.2718C0.655388 10.3457 0.668764 10.4382 0.733417 10.5025C0.896906 10.7132 1.12208 10.759 1.37028 10.7294C1.56835 10.7117 1.76216 10.6617 1.94398 10.5816C2.74954 10.2023 3.40275 9.64932 3.81073 8.84275C3.91574 8.65632 3.9734 8.4472 3.97868 8.23356C3.97868 7.86391 3.75574 7.64212 3.38418 7.62586C3.27791 7.62069 3.13523 7.69092 3.07652 7.52679C3.59934 7.24163 4.15748 7.02588 4.73668 6.88508C5.8172 6.6145 6.90366 6.36757 8.00127 6.17535C8.67754 6.05659 9.35973 5.97392 10.0449 5.92769C10.6074 5.88851 11.1715 5.86337 11.7355 5.83158C11.6612 5.93434 11.6917 5.99127 11.7942 6.07259C12.2334 6.42006 12.7499 6.5694 13.2805 6.68251C13.3282 6.69652 13.3789 6.69642 13.4266 6.68225C13.4742 6.66807 13.5166 6.64042 13.5488 6.60267C13.9991 6.10734 14.4353 5.60018 14.8805 5.09967C15.3813 4.53707 15.8755 3.96928 16.3749 3.4052C16.6811 3.05847 16.9434 2.67255 17.2934 2.36426C17.5015 2.15282 17.6858 1.92068 17.8827 1.69889C18.0105 1.55473 17.986 1.5015 17.7958 1.46675C17.5491 1.42092 17.2986 1.39726 17.0526 1.33812C16.9687 1.31889 16.8691 1.31668 16.8193 1.22426Z" fill="#797979"/>
<path d="M1.74711 12.089C1.87938 11.8428 1.98342 11.5819 2.13428 11.3438C2.45206 10.8268 2.84498 10.3595 3.30026 9.9569C3.85486 9.47934 4.49567 9.11104 5.18856 8.8716C5.56973 8.74294 5.96358 8.65496 6.36345 8.60915C6.71158 8.56405 7.06344 8.55464 7.4135 8.58106C8.07492 8.62475 8.72296 8.78705 9.32633 9.06013C10.0784 9.4021 10.7472 9.90197 11.2867 10.5254C11.7325 11.0362 12.0758 11.6272 12.2981 12.2665C12.4718 12.7589 12.5795 13.272 12.6184 13.7924C12.6411 13.9952 12.653 14.199 12.6541 14.403C12.6541 14.511 12.695 14.5568 12.8027 14.5509C12.848 14.5509 12.8941 14.5509 12.9402 14.5509C16.2937 14.5509 19.6475 14.5509 23.0015 14.5509C23.1692 14.5576 23.3371 14.5462 23.5024 14.5169C23.729 14.4681 23.9557 14.5516 24.1846 14.5516H27.9195C28.1165 14.5516 28.1165 14.5516 28.193 14.3668C28.2207 14.367 28.2481 14.3727 28.2736 14.3835C28.2991 14.3943 28.3223 14.41 28.3416 14.4297C28.4122 14.4755 28.4963 14.4961 28.5802 14.4881H32.1272C32.1803 14.4937 32.2341 14.4848 32.2825 14.4622C32.3746 14.3395 32.3271 14.185 32.3754 14.0526C32.3986 13.9672 32.4079 13.8785 32.4029 13.7902C32.4042 13.746 32.4104 13.7021 32.4215 13.6593C32.4371 13.6082 32.4481 13.5557 32.4542 13.5026C32.4579 13.4704 32.4638 13.4385 32.472 13.4072C32.4874 13.3549 32.4952 13.3006 32.495 13.246C32.6076 12.5999 32.8454 11.9818 33.1951 11.4259C33.8188 10.3376 34.7414 9.44879 35.8547 8.86347C36.5849 8.47901 37.3878 8.25061 38.212 8.19293C38.9889 8.1319 39.7699 8.23962 40.5008 8.50861C41.5877 8.90002 42.5061 9.65157 43.1018 10.6371C43.3109 10.9817 43.4801 11.3488 43.6064 11.7312C43.7278 12.0591 43.8072 12.4009 43.8427 12.7485C43.8575 12.9215 43.9244 13.0346 44.082 13.0982C44.2514 13.1662 44.3123 13.2837 44.2514 13.459C44.2536 13.4726 44.2515 13.4865 44.2455 13.4989C44.1994 13.5551 44.2455 13.6305 44.2068 13.6881C44.2084 13.7017 44.2058 13.7153 44.1994 13.7273C44.1533 13.7835 44.1994 13.8582 44.1607 13.9158C44.0404 14.4156 43.6978 14.6781 43.2132 14.7786C42.9903 14.8244 42.9242 14.7609 42.916 14.5354C42.8996 14.1953 42.8996 14.1953 42.5548 14.1835C42.5496 14.1606 42.5548 14.128 42.5719 14.1243C42.8328 14.0844 42.7889 13.9173 42.7473 13.7369C42.3965 12.2029 41.539 11.0851 40.0475 10.4995C39.2605 10.1913 38.4453 10.1595 37.6212 10.3443C36.5436 10.5735 35.6794 11.1575 34.9273 11.9353C34.3023 12.611 33.8958 13.405 33.6342 14.2803C33.5971 14.4038 33.7257 14.5132 33.6342 14.6271C33.5243 14.8119 33.5191 15.0181 33.5049 15.2229C33.4782 15.6066 33.4135 15.6746 33.0308 15.6665C30.7093 15.6369 28.3892 15.716 26.0677 15.7227C24.3116 15.7271 22.5549 15.7227 20.8003 15.7715C19.2576 15.8129 17.7141 15.7545 16.1736 15.8129C14.7616 15.8661 13.3497 15.8321 11.9377 15.8506C11.746 15.8506 11.5594 15.9016 11.367 15.8957C11.0697 15.8868 11.0073 15.8218 11.0043 15.526C11.3989 14.0511 11.153 12.6812 10.2218 11.4784C9.03279 9.94359 7.0568 9.46231 5.3357 10.3021C3.84943 11.0252 3.03198 12.2458 2.77932 13.8545C2.7128 14.2827 2.7128 14.7186 2.77932 15.1468C2.82614 15.4676 2.84471 15.4906 3.15089 15.5763C3.23783 15.6 3.35971 15.5911 3.35302 15.736L2.83282 15.6244C2.83728 15.7249 2.84026 15.7959 2.93761 15.8173C2.98665 15.8284 3.0253 15.855 3.01192 15.9105C2.99854 15.9659 2.94429 15.9652 2.89896 15.9644C2.64853 15.9585 2.39735 15.9763 2.15063 15.9083C1.32426 15.6798 0.738673 15.1904 0.465942 14.3661C0.472631 14.2426 0.567009 14.2759 0.634634 14.2796C0.763196 14.2862 0.888786 14.3217 1.01735 14.3328C1.23286 14.3513 1.27224 14.3165 1.27819 14.1021C1.29349 13.4967 1.40666 12.8976 1.61334 12.3278C1.63489 12.245 1.64976 12.143 1.74711 12.089Z" fill="#565656"/>
<path d="M43.5536 11.7238C43.4793 11.6403 43.4733 11.5294 43.434 11.4325C43.1217 10.6471 42.6161 9.95228 41.9636 9.41182C41.3112 8.87136 40.5327 8.50258 39.6997 8.3393C39.3278 8.26119 38.9487 8.22204 38.5687 8.22249C38.1286 8.22707 37.6906 8.28315 37.2637 8.38958C36.3882 8.603 35.5712 9.007 34.8716 9.57245C34.231 10.0951 33.6714 10.6888 33.2709 11.4207C33.2613 11.4324 33.25 11.4427 33.2374 11.451C33.1332 11.4736 33.0266 11.4825 32.9201 11.4776H30.2225C29.7766 11.4776 29.3263 11.4148 28.8767 11.4244C28.7964 11.3963 28.7875 11.3276 28.7808 11.2573C28.78 11.2195 28.784 11.1817 28.7927 11.1449C28.8174 11.0673 28.8282 10.986 28.8247 10.9047C28.8262 10.8589 28.8322 10.8133 28.8425 10.7686C28.8647 10.6928 28.874 10.6139 28.87 10.535C28.8715 10.4885 28.8774 10.4422 28.8878 10.3968C28.9127 10.294 28.9218 10.188 28.9146 10.0826C28.915 10.0328 28.921 9.98319 28.9324 9.93471C28.9726 9.81421 28.9547 9.69074 28.9562 9.56506C28.9519 9.47442 28.9583 9.38359 28.9755 9.29448C29.0276 9.09782 28.9934 8.89821 29.0001 8.70304C29.0067 8.50786 29.0001 8.2979 29.0001 8.09533C29.0001 7.94156 29.0209 7.78631 28.98 7.63401C28.9671 7.58447 28.9602 7.53361 28.9592 7.48245C28.9639 7.39363 28.9492 7.30484 28.9161 7.22222C28.8373 6.85257 28.7422 6.48292 28.4836 6.1872C28.4413 6.13259 28.4204 6.06452 28.4249 5.99572C28.4145 5.1995 28.465 4.40475 28.4843 3.60926C28.4903 3.34459 28.4999 3.07919 28.5081 2.81452C28.5252 2.27187 28.5193 1.72775 28.5475 1.42316C28.4888 2.5321 28.494 3.88133 28.4264 5.22759C28.4122 5.50039 28.4264 5.77393 28.4204 6.04747C28.418 6.06988 28.4201 6.09253 28.4266 6.11412C28.4331 6.1357 28.4439 6.15577 28.4583 6.17316C28.8225 6.56646 28.8849 7.06401 28.9473 7.5623C28.954 7.73677 28.9235 7.91273 28.9785 8.08424C29.0045 8.28945 29.0045 8.49709 28.9785 8.7023C28.9146 8.92409 28.9577 9.15253 28.9458 9.37802C28.9497 9.45553 28.9442 9.53321 28.9295 9.60942C28.8996 9.71588 28.8888 9.82674 28.8975 9.93693C28.8987 9.99755 28.8927 10.0581 28.8797 10.1173C28.854 10.2069 28.8437 10.3001 28.8492 10.3931C28.8481 10.4394 28.8421 10.4855 28.8314 10.5306C28.8087 10.6061 28.799 10.6848 28.8024 10.7635C28.8009 10.8085 28.795 10.8534 28.7846 10.8973C28.7625 10.9726 28.7524 11.051 28.7548 11.1294C28.7551 11.1763 28.7417 11.2223 28.7162 11.2618C28.7088 11.2708 28.698 11.2766 28.6863 11.2779C28.6747 11.2791 28.6629 11.2757 28.6538 11.2684C28.4494 11.1546 28.4665 11.1568 28.4932 10.9328C28.5334 10.603 28.5988 10.277 28.6062 9.94432C28.601 9.85332 28.6137 9.76218 28.6434 9.67596C28.664 9.63501 28.6732 9.58932 28.6701 9.54362C28.6166 9.22351 28.7088 8.91374 28.7266 8.5988C28.7422 8.37633 28.7297 8.1528 28.6894 7.93343C28.6448 7.71681 28.6597 7.49798 28.6151 7.28136C28.5715 7.07462 28.5162 6.8705 28.4494 6.66996C28.4192 6.60017 28.3747 6.53746 28.3186 6.48588C28.2354 6.39421 28.1603 6.33802 28.028 6.41712C27.926 6.47103 27.8099 6.49294 27.6951 6.47996C27.2611 6.45335 26.8294 6.52358 26.3961 6.53689C26.1167 6.54576 25.8336 6.54872 25.5541 6.57312C24.9596 6.62413 24.3703 6.64039 23.7788 6.67144C23.5061 6.68623 23.2267 6.66627 22.9614 6.71506C22.5838 6.78308 22.1989 6.69658 21.8258 6.79565C21.8108 6.79787 21.7955 6.79787 21.7805 6.79565C21.3346 6.76459 20.8962 6.82004 20.4585 6.85553C20.0728 6.88658 19.6826 6.84 19.2999 6.92946C19.1712 6.9494 19.0401 6.9494 18.9113 6.92946C18.7404 6.91319 18.5813 6.98047 18.4134 6.98121C18.3819 6.98308 18.3515 6.99333 18.3253 7.01089C18.2992 7.02844 18.2783 7.05266 18.2647 7.08102C18.134 7.3028 17.9125 7.35751 17.6829 7.38487C17.6005 7.39187 17.5208 7.41713 17.4495 7.4588C17.2385 7.58744 17.0036 7.63253 16.7577 7.67024C16.548 7.69098 16.3365 7.68801 16.1275 7.66137C15.8184 7.64066 15.5449 7.5379 15.3665 7.2688C15.3465 7.22516 15.3118 7.18985 15.2683 7.16893C15.2249 7.14802 15.1756 7.14281 15.1287 7.15421C14.9614 7.16901 14.7933 7.17123 14.6256 7.16086C14.5644 7.16546 14.5031 7.15138 14.4501 7.12052C14.3971 7.08965 14.3548 7.04345 14.3288 6.98806C14.3028 6.93268 14.2944 6.87073 14.3047 6.81047C14.315 6.75022 14.3434 6.6945 14.3863 6.65074C14.6605 6.37572 14.8761 6.05413 15.1295 5.76358C15.4267 5.42055 15.7054 5.06051 15.993 4.70934C16.3041 4.32885 16.616 3.94836 16.9286 3.56786C17.211 3.22286 17.4931 2.87785 17.775 2.53284C18.0094 2.24501 18.2427 1.95693 18.4751 1.6686C18.5694 1.55179 18.6653 1.43572 18.7686 1.31004C18.5167 1.21837 18.2566 1.24424 18.0084 1.19619C17.9132 1.17771 17.8144 1.16884 17.7171 1.15331C17.5432 1.12448 17.4391 1.03946 17.4153 0.864245C17.4219 0.847508 17.4343 0.833704 17.4503 0.825406C17.4663 0.817107 17.4848 0.814883 17.5023 0.819147C17.9541 0.939653 18.4186 0.960354 18.8815 0.984751C19.6745 1.02689 20.4667 0.960354 21.2596 0.930782C21.9589 0.904906 22.6596 0.878291 23.3574 0.838369C23.9683 0.803622 24.5784 0.847241 25.1856 0.799186C26.0699 0.725256 26.955 0.799186 27.8378 0.755568C29.7908 0.663895 31.7437 0.718603 33.6967 0.723778C34.578 0.723778 35.4616 0.771093 36.3437 0.811754C36.9434 0.839108 37.5431 0.893077 38.1443 0.895295C38.293 0.895295 38.4416 0.977358 38.5962 0.928564C38.7039 1.02985 38.6928 1.16366 38.6705 1.28491C38.6599 1.31609 38.6583 1.34959 38.666 1.3816C38.6736 1.41362 38.6901 1.44287 38.7136 1.46603C39.8075 2.60012 40.6256 3.9279 41.4089 5.27934C41.4696 5.39204 41.5624 5.48438 41.6757 5.54475C41.8376 5.63459 41.9759 5.76125 42.0792 5.9144C42.1119 5.96421 42.1544 6.00696 42.204 6.0401C42.2537 6.07325 42.3096 6.09613 42.3683 6.10736C42.2457 6.21825 42.08 6.17685 41.938 6.23008C41.611 6.35428 41.4981 6.47479 41.5115 6.81561C41.5352 7.38561 41.6222 7.95043 41.8607 8.47238C42.0755 8.94183 42.4367 9.2479 42.9792 9.293C43.0095 9.2905 43.0401 9.29463 43.0687 9.3051C43.0974 9.31557 43.1234 9.33213 43.1449 9.35362C43.1429 9.40246 43.1541 9.45094 43.1774 9.49399C43.2006 9.53703 43.2351 9.57307 43.2772 9.59833C43.7052 9.84895 43.9534 10.2437 44.1184 10.6947C44.2086 10.9202 44.2668 11.1571 44.2915 11.3985C44.3599 11.5811 44.2678 11.6432 44.1013 11.6514C43.9192 11.658 43.7267 11.6292 43.5536 11.7238Z" fill="#797979"/>
<path d="M3.34411 15.7427C3.32033 15.6732 3.25568 15.6643 3.19548 15.6488C3.15164 15.6377 3.10482 15.6399 3.06023 15.6296C2.79791 15.5682 2.74663 15.5031 2.70427 15.234C2.64816 14.8743 2.63494 14.5093 2.66489 14.1465C2.70902 13.5875 2.84823 13.0401 3.07658 12.5274C3.37081 11.874 3.80951 11.295 4.35997 10.8337C4.8863 10.3899 5.51528 10.0833 6.19031 9.94138C7.26266 9.70702 8.2644 9.8948 9.18589 10.4744C9.94097 10.9445 10.5263 11.6412 10.8572 12.4639C11.026 12.8916 11.1406 13.3387 11.1983 13.7946C11.2726 14.284 11.2035 14.7557 11.1388 15.2377C11.1357 15.3206 11.1021 15.3995 11.0445 15.4595C11.0164 15.4854 10.98 15.5005 10.9417 15.5022C10.9034 15.5038 10.8658 15.4918 10.8356 15.4684C11.04 15.0108 11.0541 14.5236 11.0333 14.0378C10.9958 13.1116 10.6377 12.2268 10.0197 11.5331C9.97147 11.4633 9.90146 11.4114 9.82052 11.3852C9.43038 11.3046 9.15691 11.0222 8.83141 10.83C8.8176 10.8234 8.80562 10.8135 8.79649 10.8012C8.49106 10.3155 7.97384 10.2903 7.48857 10.2341C6.27875 10.0959 5.20195 10.4352 4.31018 11.2544C3.73421 11.7729 3.32128 12.4461 3.12117 13.1928C3.11339 13.2083 3.10933 13.2254 3.10933 13.2427C3.10933 13.26 3.11339 13.2771 3.12117 13.2926C3.19548 13.246 3.21703 13.164 3.2527 13.0952C3.85167 11.9308 4.8222 11.2536 6.10634 11.0903C7.52647 10.9099 8.75115 11.3594 9.7477 12.4062C10.3058 12.9865 10.6729 13.7223 10.8 14.5154C10.8527 14.8245 10.9107 15.1424 10.8178 15.458C10.8921 15.6059 10.8015 15.7257 10.7502 15.8439C10.4089 16.6578 9.80348 17.3344 9.03057 17.7661C7.78731 18.4404 6.52621 18.4832 5.24728 17.8689C5.16009 17.8395 5.08528 17.782 5.03474 17.7055L4.79174 17.5384C4.13994 17.0969 3.6358 16.4715 3.34411 15.7427Z" fill="#363636"/>
<path d="M40.2607 17.7055C39.9139 17.8948 39.5433 18.0375 39.1587 18.1299C38.2808 18.3332 37.3595 18.2312 36.548 17.8408C36.4514 17.7957 36.3808 17.7055 36.2686 17.6929C36.172 17.7299 36.1089 17.6604 36.0457 17.619C35.0922 16.9647 34.4851 16.0827 34.28 14.9413C34.222 14.6197 34.2258 14.6204 33.8891 14.6086C33.8074 14.6086 33.7189 14.6212 33.6543 14.5494C33.545 14.5066 33.528 14.4356 33.5599 14.3277C33.7222 13.735 33.9726 13.1698 34.303 12.6509C34.439 12.4402 34.5891 12.2413 34.7422 12.044C34.7785 11.9866 34.8299 11.9404 34.8909 11.9101C34.9577 12.0314 34.8663 12.112 34.8113 12.197C34.6443 12.4602 34.5029 12.7387 34.3892 13.0287C34.3508 13.1093 34.3354 13.1988 34.3447 13.2875C34.413 13.2645 34.4242 13.2032 34.4487 13.1566C35.0491 11.9952 35.9922 11.2825 37.2919 11.0991C38.4809 10.9306 39.5659 11.2322 40.5119 11.9767C41.3237 12.6031 41.8659 13.5129 42.0287 14.5221C42.0468 14.6196 42.056 14.7186 42.0562 14.8178C42.0502 14.9053 42.0554 14.9933 42.0718 15.0795C42.0777 15.1113 42.0777 15.1439 42.0718 15.1756C42.0681 15.2215 42.0339 15.2666 42.0718 15.3124L42.0889 15.3331C41.9239 15.961 41.5997 16.5363 41.1473 17.0039C40.8835 17.2749 40.5855 17.5108 40.2607 17.7055Z" fill="#363636"/>
<path d="M17.83 0.813241C18.1116 0.686821 18.4163 0.650595 18.7158 0.599584C19.9738 0.396214 21.2433 0.270048 22.5169 0.221802C23.5469 0.172515 24.5774 0.141218 25.6083 0.127911C26.7022 0.111646 27.7932 0.0584165 28.8841 0.0147978C29.9601 -0.0288208 31.0392 0.0340196 32.1137 0.0739418C32.686 0.0953815 33.2589 0.110167 33.8304 0.147872C35.2631 0.233631 36.6937 0.351918 38.1041 0.634331C38.2773 0.669078 38.4475 0.708261 38.55 0.872385C38.4467 0.967755 38.3323 0.894564 38.2223 0.892347C37.9028 0.886432 37.5825 0.863514 37.2644 0.856121C36.7085 0.843553 36.1497 0.820634 35.5975 0.791062C33.2269 0.664642 30.8549 0.703825 28.4835 0.717133C27.5175 0.723786 26.5454 0.717133 25.5794 0.762969C24.9536 0.794759 24.3287 0.762969 23.7059 0.802152C22.9836 0.850206 22.2598 0.839856 21.5389 0.891607C20.6345 0.956666 19.7287 0.988455 18.822 0.978845C18.5553 0.978845 18.2914 0.931529 18.0254 0.912308C17.9868 0.915284 17.9482 0.90761 17.9137 0.890131C17.8792 0.872652 17.8502 0.846046 17.83 0.813241Z" fill="#797979"/>
<path d="M41.9974 14.8215C41.9737 14.3905 41.8694 13.9678 41.6898 13.575C41.4883 13.0986 41.1911 12.6682 40.8166 12.3101C40.1916 11.7186 39.4611 11.3083 38.5991 11.1745C37.7549 11.0429 36.9285 11.1094 36.1549 11.5042C35.4143 11.8763 34.8209 12.4853 34.4702 13.2334C34.4383 13.2992 34.4427 13.4323 34.3216 13.3953C34.1856 13.3532 34.2733 13.2475 34.2904 13.1676C34.3647 12.8194 34.555 12.5252 34.7236 12.2206C34.7816 12.1156 34.8797 12.0313 34.8916 11.902C35.2498 11.5024 35.6649 11.1572 36.1237 10.8773C36.5733 10.5952 37.0726 10.4006 37.5951 10.3036C38.0705 10.2 38.5623 10.195 39.0398 10.2888C39.395 10.3568 39.7361 10.4551 40.0333 10.674C40.4376 10.9697 40.9028 11.1863 41.2543 11.5545C41.8607 12.1895 42.1788 12.9592 42.2813 13.8197C42.3229 14.1716 42.1587 14.5132 42.1832 14.8688C42.1178 14.9427 42.1788 15.0344 42.1386 15.1105C42.1407 15.1127 42.1422 15.1153 42.143 15.1181C42.1438 15.1209 42.1439 15.1239 42.1433 15.1268C42.1428 15.1297 42.1415 15.1324 42.1396 15.1348C42.1378 15.1371 42.1354 15.1389 42.1327 15.1401C42.1134 15.1564 42.1067 15.1837 42.0859 15.1985C42.0776 15.2004 42.069 15.2003 42.0609 15.1981C42.0527 15.1959 42.0452 15.1917 42.0391 15.1859V15.0943C41.987 15.0115 42.0547 14.9065 41.9974 14.8215Z" fill="#1B1B1B"/>
<path d="M17.3247 2.40863C17.0696 2.65796 16.8353 2.92746 16.6239 3.21447C16.4962 3.37509 16.3603 3.52907 16.2167 3.67579C15.7225 4.24357 15.2157 4.80544 14.7141 5.36509C14.3611 5.76431 14.0215 6.17388 13.6536 6.5598C13.6484 6.56497 13.6403 6.56941 13.638 6.57606C13.557 6.79785 13.3876 6.77272 13.2107 6.72984C12.7507 6.6182 12.2922 6.50213 11.8998 6.21972C11.7735 6.12878 11.6479 6.03637 11.5231 5.94544C11.5639 5.83824 11.6985 5.93065 11.7319 5.83159C11.8805 5.66598 12.0069 5.47524 12.1778 5.33034C12.4587 5.0154 12.8533 4.86902 13.2055 4.66497C14.457 3.94046 15.703 3.20707 16.9435 2.46482C17.0306 2.39918 17.1328 2.35601 17.2407 2.33914C17.2809 2.33692 17.3366 2.33766 17.3247 2.40863Z" fill="#363636"/>
<path d="M17.3247 2.40866C17.2504 2.32956 17.1805 2.39979 17.1211 2.43232C16.9479 2.52695 16.78 2.62971 16.6106 2.72804C16.1164 3.02376 15.6259 3.32687 15.1288 3.6152C14.5201 3.97228 13.9063 4.31975 13.2947 4.67092C12.9922 4.84392 12.7002 5.04057 12.3821 5.17956C12.3078 5.21135 12.2751 5.30967 12.1837 5.32742C12.4547 4.99037 12.7437 4.66806 13.0495 4.36189C14.1344 3.23002 15.3458 2.24528 16.6232 1.33964C16.6849 1.29602 16.754 1.26201 16.8194 1.2243C17.1464 1.32337 17.4882 1.35516 17.8204 1.41061C17.8575 1.41726 17.8947 1.41061 17.9326 1.42318C18.0686 1.45866 18.0968 1.51928 18.0106 1.63018C17.8665 1.81353 17.7134 1.98948 17.5573 2.16543C17.4837 2.24971 17.4027 2.32808 17.3247 2.40866Z" fill="#474747"/>
<path d="M0.686685 10.5395C0.590078 10.4892 0.604197 10.3842 0.570756 10.3029C0.525425 10.1935 0.496443 10.297 0.463745 10.3095C0.616831 9.75875 0.817477 9.23459 1.21357 8.80506C1.60966 8.37552 2.07114 7.98591 2.62552 7.74786C2.71618 7.70868 2.78307 7.62513 2.88785 7.61626C3.1229 7.5889 3.36002 7.5837 3.59606 7.60074C3.4556 7.7863 3.49796 7.98148 3.49871 8.17074C3.49035 8.3919 3.42093 8.60651 3.29806 8.79101C2.90568 9.45638 2.3461 9.95541 1.68769 10.3384C1.39266 10.5121 1.05156 10.6215 0.686685 10.5395Z" fill="#C7C7C7"/>
<path d="M1.74708 12.089C1.61183 12.5038 1.46618 12.9155 1.40375 13.3502C1.35636 13.6399 1.33151 13.9328 1.32944 14.2263C1.32944 14.4111 1.32424 14.4089 1.13399 14.4134C0.952388 14.4058 0.77183 14.382 0.594479 14.3424C0.538001 14.3328 0.490441 14.3246 0.451798 14.3749C0.261303 13.9202 0.171331 13.4301 0.187985 12.9377C0.191404 12.787 0.168265 12.6369 0.119617 12.4941C0.0369136 12.2603 -0.00359114 12.0138 -2.79342e-05 11.7659C0.024655 11.8292 0.0704798 11.8821 0.129751 11.9158C0.189021 11.9495 0.258128 11.9618 0.325465 11.9508C0.749051 11.9278 1.16967 12.0247 1.59399 11.9951C1.66682 11.9899 1.73445 11.9966 1.74708 12.089Z" fill="#878787"/>
<path d="M17.83 0.81321C18.1034 0.891576 18.3881 0.88714 18.6667 0.901187C19.1698 0.922627 19.6752 0.924845 20.1775 0.901187C20.8241 0.870136 21.4713 0.848697 22.1164 0.805817C22.4597 0.783638 22.8023 0.79251 23.1441 0.768852C23.8442 0.720059 24.5472 0.754066 25.2464 0.714884C26.0022 0.672004 26.7565 0.703794 27.5108 0.677179C29.5395 0.603249 31.569 0.628386 33.5985 0.647607C34.1537 0.652782 34.7132 0.658697 35.2661 0.694183C35.6013 0.714884 35.9349 0.711187 36.2701 0.732627C36.9166 0.774767 37.5624 0.812471 38.2097 0.825039C38.3233 0.833138 38.4365 0.847453 38.5485 0.867919L38.5998 0.920409C38.5827 1.02391 38.5002 1.00025 38.4378 0.994339C37.8381 0.941109 37.2362 0.931498 36.6365 0.897491C36.2783 0.87753 35.9186 0.889358 35.5634 0.85535C35.0759 0.81321 34.5876 0.836868 34.1009 0.81321C32.3003 0.726712 30.4989 0.77181 28.6983 0.784378C27.6765 0.791031 26.6539 0.796207 25.6329 0.833172C24.9849 0.856829 24.3361 0.833172 23.6896 0.876051C23.2437 0.906362 22.7896 0.888619 22.3423 0.91967C21.6957 0.964767 21.0485 0.976596 20.4027 1.01578C19.8684 1.04831 19.3356 1.05053 18.8027 1.0387C18.4298 1.0359 18.0582 0.996024 17.6932 0.91967C17.6189 0.902666 17.5409 0.896751 17.5074 0.811732C17.5191 0.797979 17.5337 0.78699 17.5501 0.779571C17.5666 0.772151 17.5845 0.768489 17.6026 0.768852C17.6642 0.745195 17.6992 0.798424 17.746 0.817646L17.83 0.81321Z" fill="#3E3C3C"/>
<path d="M42.1833 14.8717C42.1712 14.63 42.1822 14.3877 42.216 14.148C42.2405 13.9829 42.2342 13.8147 42.1974 13.6519C42.1405 13.3166 42.045 12.9889 41.9128 12.6753C41.6586 12.0964 41.3183 11.587 40.7676 11.2403C40.5105 11.0784 40.2578 10.9098 40.0111 10.7324C39.6143 10.4463 39.1558 10.3628 38.6846 10.3051C38.4743 10.2734 38.2619 10.2583 38.0492 10.26C37.8969 10.2659 37.752 10.3339 37.5974 10.3066C37.6872 10.2496 37.7927 10.2219 37.8991 10.2275C38.2707 10.1994 38.6341 10.1624 39.0138 10.2001C39.6829 10.2644 40.3263 10.4886 40.8895 10.8537C41.6088 11.3214 42.1711 11.9923 42.5043 12.7803C42.6642 13.1483 42.7776 13.5348 42.8417 13.9306C42.8737 14.1191 42.8789 14.1184 42.6975 14.1369C42.6455 14.1421 42.589 14.1369 42.5489 14.1835C42.2569 14.236 42.2598 14.2359 42.2361 14.5398C42.2256 14.6514 42.242 14.7682 42.1833 14.8717Z" fill="#282828"/>
<path d="M0.686646 10.5395C0.873172 10.5091 1.05821 10.4936 1.24623 10.45C1.59624 10.3672 1.88383 10.172 2.15805 9.95541C2.56331 9.64699 2.91481 9.27433 3.19844 8.85237C3.39017 8.55665 3.48677 8.25058 3.43624 7.90755C3.41841 7.78556 3.41469 7.69463 3.54845 7.63031C3.35004 7.61996 3.16946 7.59039 2.99185 7.65101C2.97341 7.65782 2.95315 7.65792 2.93465 7.65129C2.91615 7.64466 2.90061 7.63173 2.89078 7.61479C2.95023 7.58004 2.99854 7.52311 3.07582 7.52533C3.14419 7.59926 3.23411 7.56673 3.31288 7.56525C3.91259 7.55269 4.13033 7.97556 4.01514 8.46276C3.92151 8.8509 3.70972 9.18136 3.46077 9.49778C3.15385 9.8837 2.77188 10.1779 2.3639 10.4433C2.0714 10.6369 1.73756 10.7599 1.38891 10.8026C1.11841 10.833 0.853108 10.8063 0.686646 10.5395Z" fill="#A3A3A3"/>
<path d="M42.4069 6.39197C42.8125 7.14424 43.061 7.97032 43.1374 8.82057C43.1441 8.8945 43.1278 8.97508 43.2036 9.02683C42.9598 9.17469 42.7406 9.05345 42.5451 8.93368C42.2476 8.75953 42.0292 8.47767 41.9358 8.14706C41.8191 7.75643 41.7417 7.35524 41.7047 6.9494C41.6645 6.53169 41.967 6.38679 42.2412 6.34465C42.2705 6.33585 42.3017 6.33564 42.3311 6.34403C42.3605 6.35242 42.3868 6.36906 42.4069 6.39197Z" fill="#8E2B2B"/>
<path d="M43.5536 11.7238C43.5536 11.6351 43.5811 11.5804 43.6836 11.5834C43.8204 11.5878 43.9571 11.5834 44.0931 11.5834C44.2663 11.5834 44.2663 11.5834 44.2915 11.3956C44.3796 11.7711 44.4048 12.1585 44.3658 12.5422C44.3465 12.8135 44.3131 13.0834 44.2833 13.3555C44.275 13.3917 44.2625 13.4269 44.2462 13.4604C44.2535 13.4273 44.2542 13.3931 44.2481 13.3597C44.2421 13.3264 44.2295 13.2945 44.2111 13.266C44.1927 13.2375 44.1687 13.2129 44.1407 13.1936C44.1127 13.1743 44.0811 13.1607 44.0478 13.1536C43.8605 13.0908 43.7825 12.9732 43.775 12.7633C43.7553 12.484 43.6986 12.2086 43.6063 11.9441C43.5736 11.8751 43.5556 11.8001 43.5536 11.7238Z" fill="#878787"/>
<path d="M43.1449 9.35064C42.43 9.39352 41.9076 8.90706 41.7025 8.24982C41.5632 7.80079 41.4774 7.33702 41.4469 6.86807C41.4142 6.39196 41.6163 6.2027 42.1863 6.11398C42.2467 6.10745 42.3075 6.10424 42.3683 6.10437V6.10807C42.3749 6.11737 42.3794 6.1279 42.3817 6.13901C42.3839 6.15012 42.3839 6.16158 42.3815 6.17267C42.3791 6.18376 42.3745 6.19424 42.3679 6.20348C42.3613 6.21272 42.3528 6.2205 42.3431 6.22636C42.2976 6.2543 42.2471 6.27337 42.1944 6.28255C41.6512 6.44741 41.5925 6.51173 41.652 7.06916C41.691 7.49103 41.7806 7.90674 41.9187 8.30749C42.0258 8.58493 42.2127 8.82483 42.456 8.99725C42.5903 9.09997 42.7556 9.15443 42.9249 9.15177C43.0305 9.15177 43.1397 9.14142 43.2311 9.21313C43.2646 9.29741 43.1813 9.30924 43.1449 9.35064Z" fill="#3D3D3D"/>
<path d="M42.4069 6.39199C42.2048 6.39199 42.0146 6.42599 41.8644 6.58051C41.8304 6.61074 41.8036 6.64827 41.7863 6.69028C41.7689 6.73228 41.7613 6.77766 41.7641 6.823C41.7931 7.21335 41.8072 7.60666 41.9536 7.97852C41.975 8.02623 41.9922 8.07571 42.0049 8.12638C42.0606 8.41693 42.2234 8.62171 42.4627 8.80062C42.6724 8.96711 42.9386 9.04657 43.2058 9.02241C43.2652 9.06012 43.2415 9.09117 43.1976 9.12C42.9576 9.21685 42.7302 9.1651 42.5236 9.03794C42.3491 8.93472 42.1976 8.79717 42.0784 8.63369C41.9592 8.47022 41.8747 8.28426 41.8303 8.0872C41.7356 7.73798 41.6663 7.38245 41.6229 7.02335C41.5709 6.46961 41.8459 6.19533 42.4233 6.23969C42.5125 6.30031 42.4753 6.34763 42.4069 6.39199Z" fill="#413838"/>
<path d="M42.4233 6.23896C42.2716 6.25195 42.123 6.2894 41.9833 6.34985C41.7277 6.44374 41.6118 6.62413 41.6356 6.89176C41.6788 7.36507 41.7801 7.83135 41.9373 8.28016C42.0175 8.52953 42.1766 8.7464 42.3909 8.89843C42.6052 9.05045 42.8632 9.12947 43.1263 9.1237C43.1493 9.1237 43.1724 9.1237 43.1946 9.1237L43.2303 9.21242C43.0564 9.20355 42.881 9.23903 42.7101 9.18137C42.2791 9.03351 42.0227 8.72005 41.8607 8.31787C41.7351 8.00736 41.6965 7.67468 41.6304 7.34864C41.591 7.14035 41.5753 6.92832 41.5835 6.71654C41.5807 6.63256 41.6051 6.54989 41.6531 6.48079C41.7012 6.41168 41.7703 6.3598 41.8503 6.33285C41.9835 6.27757 42.1216 6.23475 42.2628 6.20495C42.323 6.19312 42.3623 6.17094 42.3683 6.10736C42.4508 6.12436 42.4136 6.19164 42.4233 6.23896Z" fill="#606161"/>
<path d="M42.1417 15.1121C42.1365 15.0278 42.1008 14.9383 42.1863 14.8703C42.1989 14.9536 42.1832 15.0387 42.1417 15.1121Z" fill="#363636"/>
<path d="M42.0851 15.1852L42.1356 15.1416C42.1453 15.2065 42.1296 15.2727 42.0918 15.3264L42.0777 15.3168C42.0631 15.2975 42.0558 15.2738 42.0572 15.2497C42.0585 15.2256 42.0684 15.2027 42.0851 15.1852Z" fill="#363636"/>
<path d="M17.7461 0.818378C17.6874 0.832425 17.6472 0.79546 17.6027 0.769585C17.6762 0.71118 17.7074 0.775499 17.7461 0.818378Z" fill="#797979"/>
<path d="M44.1563 13.9158C44.1466 13.8485 44.1332 13.7798 44.1949 13.7273C44.2028 13.7596 44.2034 13.7933 44.1968 13.8258C44.1901 13.8584 44.1763 13.8892 44.1563 13.9158Z" fill="#878787"/>
<path d="M44.2024 13.6882C44.192 13.6201 44.1793 13.5521 44.241 13.4989C44.2482 13.5314 44.2485 13.565 44.2419 13.5976C44.2352 13.6302 44.2218 13.6611 44.2024 13.6882Z" fill="#878787"/>
<path d="M25.6337 8.61877C25.2829 8.64094 24.9233 8.30382 24.8802 7.95857C24.8333 7.59336 25.0162 7.36713 25.2465 7.16234C25.3581 7.06215 25.495 6.99403 25.6425 6.96525C25.7901 6.93647 25.9427 6.94812 26.084 6.99896C26.1694 7.02239 26.2487 7.06347 26.317 7.11953C26.3853 7.17559 26.4408 7.24535 26.4801 7.32425C26.4999 7.37284 26.5348 7.41382 26.5798 7.44112C26.6248 7.46841 26.6774 7.48058 26.7298 7.47581C26.9511 7.48614 27.1693 7.5313 27.3764 7.60962C27.42 7.62315 27.4623 7.64072 27.5027 7.66211C27.6476 7.74861 27.6513 7.90312 27.5027 7.98445C27.3592 8.05632 27.2029 8.09952 27.0427 8.11161C26.9072 8.13158 26.7708 8.14466 26.634 8.15079C26.5743 8.15173 26.5157 8.16628 26.4626 8.19333C26.4095 8.22037 26.3634 8.25919 26.3278 8.30678C26.1469 8.49783 25.8974 8.60998 25.6337 8.61877Z" fill="#373636"/>
<path d="M28.7437 10.8973L28.7512 10.7642C28.798 10.6903 28.7445 10.6045 28.7898 10.532L28.7965 10.399C28.847 10.3117 28.7876 10.2097 28.8351 10.1217L28.8418 9.94282C28.8953 9.84006 28.8314 9.72103 28.8812 9.61974L28.8879 9.39795C28.9459 9.17099 28.873 8.93737 28.9265 8.71041V8.07683C28.873 7.91196 28.9444 7.73675 28.8857 7.57189C28.8426 7.19484 28.7905 6.81928 28.61 6.47624C28.5875 6.41117 28.5483 6.35307 28.4963 6.30768C28.3684 6.2271 28.3209 6.12434 28.3736 5.97943C28.377 5.95689 28.377 5.93396 28.3736 5.91142C28.3536 4.99247 28.4175 4.075 28.4353 3.15679C28.445 2.62671 28.4532 2.09515 28.4807 1.56508C28.4918 1.34329 28.5067 1.1215 28.526 0.894531C28.6189 0.907839 28.604 0.963286 28.6003 1.00247C28.5906 1.30558 28.6092 1.60722 28.5713 1.91181C28.5371 2.18904 28.5602 2.47294 28.5594 2.75461C28.5594 3.50574 28.5082 4.25613 28.4992 5.00799C28.4955 5.31702 28.4747 5.62827 28.468 5.93877C28.4617 5.97618 28.4632 6.01449 28.4726 6.05128C28.4819 6.08806 28.4988 6.12251 28.5223 6.15243C28.8069 6.46368 28.9094 6.85033 28.9734 7.25177C29.0217 7.3257 28.9644 7.41146 29.015 7.48243C29.015 7.52679 29.0187 7.57115 29.0209 7.6155C29.0737 7.76336 29.0038 7.92601 29.0596 8.07535V8.71188C29.0031 8.9078 29.0737 9.11259 29.0209 9.3085C29.0209 9.39869 29.0165 9.48889 29.0135 9.57834C28.96 9.69737 29.0261 9.82823 28.9748 9.94799C28.9748 9.99309 28.9704 10.0374 28.9689 10.0818C28.9147 10.1846 28.9793 10.3036 28.9288 10.4041L28.9221 10.538C28.8745 10.6119 28.928 10.6976 28.8834 10.7694C28.8834 10.8137 28.8782 10.8581 28.876 10.9024C28.8284 10.9764 28.8827 11.0621 28.8366 11.1338L28.8314 11.2218C28.7935 11.2743 28.8151 11.3327 28.8136 11.3889C28.8277 11.4246 28.8323 11.4633 28.827 11.5013C28.8238 11.5196 28.8191 11.5377 28.8128 11.5552C28.7975 11.5979 28.7902 11.643 28.7913 11.6883C28.7926 11.7343 28.7893 11.7804 28.7816 11.8258C28.7778 11.8436 28.7728 11.8611 28.7668 11.8783C28.7498 11.9295 28.7422 11.9834 28.7445 12.0373C28.7447 12.0747 28.7412 12.1121 28.7341 12.1489C28.73 12.1672 28.7248 12.1852 28.7185 12.2029C28.7072 12.2383 28.7007 12.2751 28.6991 12.3123C28.6986 12.35 28.6946 12.3876 28.6873 12.4246C28.6835 12.443 28.6783 12.4611 28.6716 12.4786C28.6614 12.5138 28.6551 12.55 28.6531 12.5866C28.6527 12.6235 28.649 12.6604 28.6419 12.6967C28.6382 12.7151 28.633 12.7331 28.6263 12.7507C28.6132 12.7951 28.6059 12.8411 28.6048 12.8874C28.6022 12.9167 28.5969 12.9456 28.5892 12.9739C28.5723 13.0419 28.5643 13.1117 28.5654 13.1817C28.5629 13.2127 28.5574 13.2434 28.549 13.2734C28.5313 13.3322 28.5213 13.3931 28.5193 13.4545C28.5167 13.4852 28.5113 13.5157 28.503 13.5454C28.4854 13.6033 28.4737 13.6627 28.468 13.7229C28.4651 13.7426 28.4606 13.7622 28.4547 13.7813C28.4371 13.8378 28.4276 13.8966 28.4264 13.9557C28.4239 13.9853 28.4184 14.0145 28.4101 14.043C28.3947 14.0883 28.3844 14.1351 28.3796 14.1827C28.377 14.2113 28.3716 14.2395 28.3632 14.267C28.3496 14.3128 28.3304 14.3567 28.306 14.3978L28.2837 14.4156C28.2648 14.4172 28.2457 14.4134 28.2288 14.4048C28.2118 14.3962 28.1977 14.383 28.1879 14.3668L28.1968 14.2345C28.2317 14.1931 28.2005 14.1346 28.2339 14.0932C28.2258 13.969 28.2711 13.853 28.2904 13.7332C28.3224 13.6911 28.2904 13.6334 28.3261 13.592L28.3335 13.5048C28.3692 13.4634 28.3387 13.405 28.3707 13.3628L28.3796 13.2305C28.422 13.175 28.3796 13.1011 28.4182 13.0449L28.4279 12.9118C28.4599 12.8704 28.4279 12.812 28.4643 12.7714L28.471 12.6834C28.5074 12.6427 28.4755 12.5843 28.5082 12.5422L28.5171 12.4099C28.5594 12.3537 28.5171 12.2797 28.5557 12.2243C28.5594 12.1799 28.5631 12.1356 28.5661 12.0912C28.5958 12.0483 28.5661 11.9914 28.601 11.95L28.61 11.8169C28.6501 11.7608 28.6063 11.6876 28.6471 11.6306L28.6546 11.4976C28.7014 11.4236 28.6479 11.3371 28.6917 11.2639L28.6991 11.1324C28.7534 11.0577 28.6984 10.969 28.7437 10.8973Z" fill="#3E3C3C"/>
<path d="M28.6968 11.2603C28.6968 11.3394 28.7273 11.4244 28.6597 11.4939C28.6597 11.4199 28.6597 11.3416 28.6597 11.2654C28.6721 11.2643 28.6845 11.2626 28.6968 11.2603Z" fill="#565656"/>
<path d="M28.6523 11.627C28.6523 11.692 28.6723 11.76 28.6151 11.8133C28.6106 11.7482 28.5958 11.6809 28.6523 11.627Z" fill="#565656"/>
<path d="M28.5609 12.2206C28.5609 12.285 28.581 12.3537 28.5223 12.4062C28.5223 12.3419 28.5037 12.2724 28.5609 12.2206Z" fill="#565656"/>
<path d="M28.4234 13.0413C28.4234 13.1056 28.4442 13.1751 28.3848 13.2268C28.3877 13.1595 28.3662 13.0938 28.4234 13.0413Z" fill="#565656"/>
<path d="M28.6062 11.9464C28.6131 11.9709 28.6135 11.9968 28.6074 12.0215C28.6012 12.0463 28.5888 12.069 28.5712 12.0876C28.5636 12.0631 28.5628 12.037 28.5689 12.0121C28.5751 11.9872 28.588 11.9645 28.6062 11.9464Z" fill="#565656"/>
<path d="M28.3313 13.5883C28.3381 13.6129 28.3384 13.6388 28.3321 13.6636C28.3259 13.6883 28.3133 13.711 28.2956 13.7295C28.2882 13.705 28.2876 13.6789 28.2939 13.654C28.3001 13.6292 28.3131 13.6065 28.3313 13.5883Z" fill="#565656"/>
<path d="M28.5133 12.5385C28.5186 12.5903 28.5245 12.642 28.4762 12.6797C28.4696 12.655 28.4695 12.629 28.476 12.6042C28.4825 12.5795 28.4954 12.5568 28.5133 12.5385Z" fill="#565656"/>
<path d="M28.2391 14.0896C28.2435 14.1414 28.2495 14.1931 28.2019 14.2308C28.1953 14.2061 28.1952 14.1801 28.2017 14.1553C28.2083 14.1306 28.2211 14.1079 28.2391 14.0896Z" fill="#565656"/>
<path d="M28.3758 13.3591C28.381 13.4109 28.387 13.4626 28.3387 13.5011C28.3319 13.4762 28.3318 13.4501 28.3383 13.4252C28.3448 13.4003 28.3577 13.3775 28.3758 13.3591Z" fill="#565656"/>
<path d="M28.4695 12.7677C28.4759 12.7923 28.4759 12.8182 28.4694 12.8428C28.4629 12.8674 28.4501 12.8899 28.4323 12.9082C28.4252 12.8836 28.4249 12.8576 28.4315 12.8328C28.438 12.8081 28.4511 12.7856 28.4695 12.7677Z" fill="#565656"/>
<path d="M28.3305 14.2744L28.3394 14.1887C28.3728 14.1465 28.3438 14.0881 28.3758 14.046L28.3855 13.9602C28.4263 13.9033 28.381 13.8294 28.4241 13.7732C28.427 13.7591 28.4285 13.7447 28.4286 13.7303C28.4739 13.6749 28.4286 13.6009 28.4672 13.5447L28.4761 13.4582C28.5185 13.4013 28.4761 13.3274 28.514 13.2712L28.5214 13.184C28.5698 13.11 28.5133 13.0228 28.5623 12.9518L28.5698 12.8668C28.601 12.8232 28.5742 12.7663 28.6047 12.7226H28.6114C28.6493 12.6761 28.627 12.6213 28.6337 12.5711C28.6277 12.5289 28.6336 12.4859 28.6508 12.4469H28.6574C28.6946 12.4003 28.6731 12.3456 28.679 12.299C28.6736 12.2568 28.6798 12.2139 28.6968 12.1748H28.7028C28.7414 12.1268 28.7184 12.0698 28.7251 12.0173C28.7318 11.9649 28.7124 11.9057 28.7429 11.854H28.7496C28.7897 11.7933 28.763 11.7261 28.7711 11.6617C28.7646 11.618 28.771 11.5732 28.7897 11.5331H28.7964C28.8254 11.4991 28.8128 11.4592 28.8194 11.4185L28.8373 11.3941C29.1212 11.312 29.4095 11.3446 29.6949 11.3727C29.7848 11.3815 29.8747 11.3949 29.9661 11.3949C30.9708 11.3949 31.9755 11.3949 32.9803 11.3949C33.0672 11.3949 33.1646 11.3608 33.2396 11.4392C32.9089 12.0092 32.6496 12.6066 32.5492 13.2631C32.5106 13.3022 32.5492 13.3629 32.5076 13.4013L32.5032 13.4915C32.4653 13.5307 32.4994 13.5913 32.463 13.6312C32.463 13.6756 32.463 13.7207 32.4578 13.765C32.4051 13.8515 32.469 13.9543 32.417 14.0408C32.4214 14.1924 32.3687 14.3424 32.4132 14.494C32.3577 14.5201 32.2952 14.5278 32.2349 14.5162C30.9963 14.5162 29.7593 14.5162 28.5237 14.5162C28.4494 14.5162 28.3476 14.5672 28.3141 14.4422C28.3069 14.3858 28.3125 14.3284 28.3305 14.2744Z" fill="#878787"/>
<path d="M28.332 14.4082C28.3416 14.4555 28.3602 14.4962 28.4167 14.4991C28.4732 14.5021 28.5378 14.4991 28.5988 14.4991H32.4133C32.362 14.5649 32.2884 14.5442 32.2223 14.5442H28.4903C28.3936 14.5442 28.2785 14.5671 28.2889 14.4082C28.3015 14.3912 28.3134 14.3912 28.332 14.4082Z" fill="#797979"/>
<path d="M32.417 14.0467C32.4252 13.9543 32.3806 13.8537 32.4579 13.7709C32.4504 13.8663 32.4921 13.9661 32.417 14.0467Z" fill="#797979"/>
<path d="M32.463 13.6394C32.463 13.5883 32.4526 13.5351 32.5032 13.4996C32.5061 13.5506 32.5121 13.6031 32.463 13.6394Z" fill="#797979"/>
<path d="M32.5077 13.4094C32.5077 13.3592 32.4988 13.3067 32.5493 13.2712C32.5493 13.3222 32.5582 13.3739 32.5077 13.4094Z" fill="#797979"/>
<path d="M19.4411 6.65885C19.1929 6.71504 18.9402 6.69878 18.689 6.70839C18.6058 6.70839 18.5226 6.72022 18.4393 6.72539C18.3682 6.72512 18.2982 6.74367 18.2365 6.77913C18.1749 6.81459 18.1239 6.8657 18.0886 6.92722C18.0432 7.0077 17.9744 7.07266 17.8913 7.11356C17.8081 7.15446 17.7145 7.16939 17.6226 7.1564C17.5379 7.15311 17.4546 7.17925 17.3871 7.23033C17.1537 7.37707 16.8812 7.45025 16.6053 7.44029C16.3824 7.43216 16.1654 7.45434 15.9446 7.40185C15.8467 7.38429 15.7551 7.34125 15.6793 7.27711C15.6035 7.21296 15.5461 7.13 15.5129 7.03664C15.5086 7.0125 15.4995 6.98946 15.4862 6.96888C15.4728 6.94829 15.4554 6.93059 15.435 6.9168C15.4147 6.90302 15.3917 6.89344 15.3676 6.88862C15.3434 6.88381 15.3185 6.88386 15.2944 6.88878C15.1354 6.90356 14.9763 6.91613 14.8166 6.92796C14.7564 6.92796 14.6947 6.92796 14.6338 6.92796C14.5936 6.92796 14.5594 6.91613 14.5453 6.87251C14.5379 6.84146 14.5572 6.81928 14.578 6.79415C14.8257 6.49843 15.0734 6.20074 15.3212 5.90107C15.8924 5.2017 16.4634 4.50158 17.0341 3.80072C17.5295 3.19548 18.0249 2.59049 18.5203 1.98574C18.64 1.83788 18.7567 1.69002 18.8785 1.54216C18.9417 1.46823 19.0056 1.38395 19.1282 1.44975C19.1647 1.46122 19.2034 1.464 19.2412 1.45788C19.9048 1.45788 20.5699 1.47784 21.232 1.4431C22.1015 1.39726 22.971 1.42314 23.8397 1.40761C24.4342 1.36325 25.0287 1.40096 25.6232 1.38765C25.7503 1.38765 25.7481 1.44531 25.6931 1.52738C25.635 1.60782 25.5648 1.67889 25.485 1.73808C23.8546 3.0629 22.2776 4.43948 20.6591 5.76652C20.2711 6.08759 19.8644 6.38556 19.4411 6.65885Z" fill="#363636"/>
<path d="M19.4412 6.65888C19.5675 6.45927 19.7793 6.35503 19.9614 6.22639C20.4392 5.88853 20.8747 5.50188 21.3235 5.12927C21.6208 4.88235 21.9262 4.64725 22.2249 4.40254C22.3773 4.2776 22.5222 4.14305 22.6708 4.01441C22.9185 3.80297 23.1662 3.59202 23.414 3.38157C23.6681 3.16643 23.9245 2.95352 24.1801 2.73986C24.4179 2.54099 24.6595 2.34507 24.8935 2.14176C25.1276 1.93846 25.39 1.76694 25.6084 1.54515C25.6389 1.51484 25.6827 1.49266 25.6761 1.4106H23.8383C23.9126 1.34702 23.9988 1.37215 24.0798 1.37215C25.0124 1.37215 25.9443 1.36772 26.8762 1.36402C27.2181 1.36402 27.5599 1.35589 27.901 1.32853C28.1016 1.31227 28.1068 1.32853 28.1068 1.52815C28.1068 2.4397 28.1254 3.35274 28.0935 4.26355C28.0742 4.83873 28.06 5.41464 28.011 5.98908C27.9939 6.19534 27.95 6.24709 27.7464 6.24488C27.3005 6.23822 26.8628 6.28923 26.4214 6.30476C25.8507 6.32546 25.2807 6.3639 24.7122 6.39422C24.0964 6.42674 23.4803 6.45681 22.864 6.48441C22.2784 6.51028 21.6936 6.54725 21.108 6.57608C20.5507 6.60344 19.9978 6.6685 19.4412 6.65888Z" fill="#474747"/>
<path d="M37.5499 1.23019C37.6331 1.22205 37.6688 1.28711 37.7119 1.33812C38.2594 2.00021 38.7473 2.70898 39.1699 3.45622C39.4917 4.00773 39.8016 4.56517 40.0832 5.13886C40.1434 5.26085 40.1962 5.38727 40.2482 5.51369C40.2595 5.53399 40.2632 5.55766 40.2586 5.58042C40.254 5.60319 40.2413 5.62357 40.2229 5.63789C40.2064 5.64791 40.1869 5.65197 40.1677 5.64942C40.1485 5.64686 40.1307 5.63784 40.1174 5.62384C40.0104 5.53365 39.8818 5.55878 39.7666 5.57801C39.631 5.59704 39.4942 5.60693 39.3572 5.60758C38.6713 5.62828 37.9883 5.68151 37.3032 5.71182C36.7555 5.73474 36.2078 5.76653 35.6608 5.79906C35.0604 5.83356 34.4597 5.86559 33.8587 5.89517C33.5927 5.90921 33.3274 5.92622 33.0606 5.93139C32.8637 5.98684 32.6578 5.91291 32.4609 5.97205L32.238 5.97723C32.1116 6.01789 31.9816 5.98906 31.8538 5.99497C31.7579 6.00015 31.7542 5.94618 31.7921 5.8789C31.8433 5.80506 31.9084 5.74179 31.9838 5.6926C33.0294 4.87937 34.0727 4.06614 35.0916 3.22482C35.8109 2.62894 36.5293 2.03159 37.2467 1.43275C37.334 1.34688 37.4369 1.27815 37.5499 1.23019Z" fill="#363636"/>
<path d="M37.5498 1.23022C37.4755 1.36847 37.3268 1.435 37.2146 1.53185C36.8133 1.87784 36.3972 2.2024 35.987 2.54026C35.6555 2.81528 35.333 3.10508 35.0016 3.37714C34.6701 3.64921 34.3327 3.92201 33.9909 4.1852C33.6491 4.44839 33.3243 4.73154 32.9758 4.98808C32.6399 5.23279 32.3181 5.49745 31.9889 5.75177C31.9056 5.81332 31.8333 5.88828 31.7749 5.97356H32.2349C32.1606 6.03714 32.0744 6.0157 31.9934 6.01348C31.4895 5.99796 30.9872 6.05119 30.4855 6.07854C30.1534 6.09629 29.8167 6.06745 29.4845 6.1473C29.4238 6.15471 29.3624 6.15471 29.3017 6.1473C29.2887 6.14844 29.2756 6.14672 29.2633 6.14224C29.251 6.13777 29.2398 6.13066 29.2306 6.12142C29.2214 6.11217 29.2143 6.10102 29.2099 6.08876C29.2055 6.07649 29.2039 6.06341 29.2051 6.05045C29.2118 5.59504 29.1932 5.13889 29.223 4.68423C29.223 4.67092 29.2386 4.65909 29.2475 4.64652C29.3679 4.77072 29.2594 4.94224 29.3575 5.11598C30.9032 3.85917 32.4437 2.61123 34.0013 1.33298C33.687 1.33298 33.4068 1.33298 33.1259 1.33298C33.0367 1.33298 32.9401 1.35368 32.868 1.27384C32.9423 1.21173 33.0278 1.23613 33.1088 1.23539C34.0831 1.2317 35.0566 1.22726 36.0308 1.23022C36.4484 1.23022 36.8639 1.1622 37.2822 1.18734C37.3736 1.19251 37.4658 1.1829 37.5498 1.23022Z" fill="#474747"/>
<path d="M32.8688 1.27306H34.1098C33.9612 1.48377 33.7754 1.59022 33.6186 1.72478C33.3214 1.98131 33.0144 2.22824 32.7053 2.47073C32.3241 2.76645 31.9622 3.091 31.5794 3.38672C31.274 3.62256 30.9723 3.86283 30.6803 4.11567C30.2693 4.47275 29.8383 4.80618 29.4169 5.15069C29.3805 5.18026 29.3426 5.20762 29.2943 5.17952C29.246 5.15143 29.2579 5.11668 29.2572 5.07972C29.2572 4.93186 29.2572 4.79139 29.252 4.64723C29.252 3.62157 29.2539 2.59592 29.2579 1.57026C29.2579 1.51777 29.2579 1.46454 29.2579 1.41131C29.2575 1.39984 29.2594 1.3884 29.2636 1.3777C29.2678 1.36699 29.2741 1.35723 29.2821 1.34901C29.2902 1.34079 29.2998 1.33427 29.3105 1.32986C29.3211 1.32545 29.3326 1.32323 29.3441 1.32334C29.382 1.31964 29.4184 1.31964 29.4585 1.3189C30.595 1.28539 31.7318 1.27011 32.8688 1.27306Z" fill="#363636"/>
<path d="M34.711 6.6086C35.0239 6.59899 35.2446 6.72689 35.3746 6.98786C35.3922 7.02925 35.4227 7.06388 35.4617 7.08654C35.5007 7.10919 35.546 7.11867 35.5909 7.11354C35.7883 7.12664 35.9836 7.16109 36.1735 7.21631C36.2393 7.23566 36.3024 7.26297 36.3615 7.29763C36.4358 7.33755 36.5057 7.39152 36.4953 7.48985C36.4891 7.53136 36.4704 7.57002 36.4416 7.60067C36.4128 7.63131 36.3753 7.65249 36.334 7.66136C36.0814 7.74511 35.8171 7.78877 35.5508 7.79074C35.4879 7.78875 35.4253 7.80103 35.3679 7.82665C35.3105 7.85227 35.2597 7.89055 35.2193 7.9386C34.8983 8.28903 34.4576 8.35483 34.0853 8.12712C34.0031 8.07853 33.9334 8.01153 33.8818 7.93145C33.8302 7.85136 33.7981 7.7604 33.7881 7.6658C33.7892 7.65079 33.7892 7.63571 33.7881 7.6207C33.6885 7.33533 33.849 7.12537 34.011 6.92946C34.0918 6.82244 34.1981 6.73708 34.3203 6.68107C34.4425 6.62506 34.5768 6.60016 34.711 6.6086Z" fill="#373636"/>
<path d="M22.5206 1.15476C22.534 1.14833 22.5483 1.14385 22.563 1.14146C23.4169 1.14146 24.2722 1.10967 25.1231 1.08157C26.0765 1.04978 27.0285 1.06457 27.9819 1.04904C28.0501 1.04613 28.1178 1.03647 28.1841 1.02021C28.1935 1.0178 28.2033 1.01748 28.2128 1.01926C28.2223 1.02105 28.2314 1.0249 28.2392 1.03055C28.2471 1.03619 28.2536 1.04349 28.2584 1.05192C28.2631 1.06036 28.2659 1.06972 28.2665 1.07935C28.271 1.12815 28.2264 1.14515 28.1885 1.1348C27.9279 1.07256 27.6576 1.06126 27.3926 1.10153C26.8613 1.15994 26.3277 1.10967 25.7971 1.16363C25.6837 1.16234 25.5705 1.15345 25.4582 1.13702C24.695 1.10819 23.9348 1.18064 23.1731 1.19395C22.9539 1.19838 22.7399 1.16437 22.5206 1.15476Z" fill="#797979"/>
<path d="M20.6509 1.21172C20.6061 1.24553 20.5533 1.26725 20.4976 1.27476C20.4419 1.28227 20.3851 1.27533 20.3329 1.2546C20.4577 1.14148 20.4577 1.14148 20.6509 1.21172Z" fill="#797979"/>
<path d="M28.9265 8.70819C28.9265 8.88858 28.9265 9.06897 28.9265 9.24936C28.9317 9.27553 28.9306 9.30253 28.9234 9.3282C28.9161 9.35388 28.903 9.37752 28.8849 9.39722C28.8849 9.21683 28.8849 9.03644 28.8849 8.85605C28.8805 8.82988 28.882 8.80307 28.8892 8.77752C28.8964 8.75197 28.9091 8.7283 28.9265 8.70819Z" fill="#565656"/>
<path d="M32.4608 5.97205C32.5611 5.89073 32.6786 5.93878 32.7885 5.92991C32.8785 5.92252 32.9699 5.92991 33.0605 5.92991C32.8651 6.01493 32.6607 5.95948 32.4608 5.97205Z" fill="#474747"/>
<path d="M29.026 9.30633C29.0394 9.10746 28.977 8.90415 29.0647 8.70972C29.0565 8.90859 29.1122 9.1119 29.026 9.30633Z" fill="#565656"/>
<path d="M28.8863 7.5697C28.9748 7.73235 28.9146 7.90608 28.9272 8.07464C28.8447 7.91052 28.9012 7.73826 28.8863 7.5697Z" fill="#565656"/>
<path d="M29.0647 8.07318C28.9822 7.92532 29.0365 7.76711 29.0261 7.61407C29.1078 7.76267 29.0565 7.91941 29.0647 8.07318Z" fill="#565656"/>
<path d="M28.9823 9.9443C28.9919 9.82157 28.9399 9.69219 29.0216 9.57465C29.0105 9.69959 29.0566 9.83266 28.9823 9.9443Z" fill="#565656"/>
<path d="M28.8811 9.61975C28.8737 9.72843 28.9197 9.84154 28.8417 9.94283C28.8499 9.83267 28.806 9.7203 28.8811 9.61975Z" fill="#565656"/>
<path d="M28.9339 10.4005C28.9421 10.2925 28.896 10.1787 28.974 10.0781C28.9659 10.1861 29.0097 10.3007 28.9339 10.4005Z" fill="#565656"/>
<path d="M28.8336 10.1218C28.8291 10.2157 28.8685 10.3155 28.7949 10.399C28.8009 10.3059 28.7637 10.206 28.8336 10.1218Z" fill="#565656"/>
<path d="M28.8418 11.1301C28.8455 11.051 28.8128 10.9668 28.8812 10.8987C28.8797 10.9778 28.9079 11.0621 28.8418 11.1301Z" fill="#565656"/>
<path d="M28.7898 10.532C28.7898 10.6111 28.8195 10.6962 28.7512 10.7642C28.7526 10.6851 28.7237 10.6008 28.7898 10.532Z" fill="#565656"/>
<path d="M28.8886 10.7657C28.8886 10.6866 28.8582 10.6023 28.9273 10.5343C28.9251 10.6134 28.9548 10.6977 28.8886 10.7657Z" fill="#565656"/>
<path d="M28.7437 10.8973C28.7437 10.9764 28.7734 11.0607 28.7043 11.1287C28.7073 11.0496 28.6776 10.9653 28.7437 10.8973Z" fill="#565656"/>
<path d="M29.0201 7.48023C28.9503 7.41296 28.9837 7.32794 28.9785 7.24957C29.0469 7.31907 29.0164 7.40113 29.0201 7.48023Z" fill="#565656"/>
<path d="M28.7972 11.4052C28.7972 11.3401 28.7742 11.2706 28.8366 11.2181C28.8366 11.2788 28.8366 11.3394 28.8366 11.4C28.8262 11.4207 28.8129 11.4222 28.7972 11.4052Z" fill="#565656"/>
<path d="M4.17494 14.5938C4.17451 14.249 4.24302 13.9077 4.37647 13.5896C4.50993 13.2715 4.70567 12.983 4.9523 12.7409C5.19893 12.4987 5.49151 12.3079 5.81301 12.1793C6.13451 12.0508 6.4785 11.9872 6.82495 11.9922C8.31122 11.9922 9.53814 13.209 9.52476 14.6751C9.51287 16.0664 8.42641 17.2715 6.88366 17.2626C6.52891 17.267 6.17682 17.2012 5.84788 17.069C5.51894 16.9367 5.21972 16.7407 4.96765 16.4924C4.71557 16.244 4.51567 15.9482 4.37958 15.6223C4.24349 15.2963 4.17392 14.9467 4.17494 14.5938Z" fill="#C3C3C3"/>
<path d="M10.8297 15.4736C10.8139 15.4625 10.8012 15.4477 10.7926 15.4306C10.7841 15.4134 10.7799 15.3944 10.7806 15.3752C10.8356 14.9317 10.7643 14.5058 10.6431 14.0837C10.4839 13.4962 10.1826 12.9563 9.76549 12.5112C9.49739 12.2124 9.18904 11.9519 8.84921 11.7371C8.22423 11.3675 7.56507 11.1213 6.82342 11.1243C6.39612 11.1243 5.97402 11.1368 5.56009 11.261C5.04788 11.4125 4.57375 11.6703 4.16895 12.0173C3.76937 12.3582 3.45104 12.7832 3.23706 13.2616C3.20585 13.3296 3.17984 13.4538 3.07654 13.4094C2.98959 13.3725 3.02749 13.2616 3.04979 13.1832C3.20999 12.629 3.47954 12.112 3.84271 11.6625C4.38743 10.9668 5.10084 10.5291 5.93835 10.28C6.08137 10.2299 6.23274 10.2075 6.38423 10.2142C6.42215 10.2206 6.46103 10.2183 6.49793 10.2075C6.79518 10.0915 7.09244 10.1277 7.39638 10.161C7.75892 10.1983 8.11582 10.2777 8.4598 10.3975C8.57796 10.4389 8.68274 10.4877 8.71916 10.6267C8.75193 10.7047 8.81218 10.768 8.88859 10.8049C9.11153 10.9527 9.33001 11.1006 9.55295 11.2485C9.59528 11.2826 9.64722 11.3027 9.70158 11.3061C9.91486 11.2832 10.0226 11.4355 10.1296 11.5656C10.6074 12.1389 10.9248 12.8275 11.0496 13.5617C11.1212 13.9725 11.1237 14.3922 11.0571 14.8038C11.0377 14.9228 11.0288 15.044 11.0169 15.1631C11.0116 15.2254 10.992 15.2857 10.9597 15.3394C10.9274 15.3931 10.8831 15.4387 10.8304 15.4728L10.8297 15.4736Z" fill="#1B1B1B"/>
<path d="M38.0351 11.9922C39.5214 11.9922 40.7483 13.1921 40.752 14.6589C40.752 15.9763 39.7332 17.2582 38.1258 17.2634C37.7711 17.269 37.4188 17.2046 37.0893 17.0739C36.7598 16.9432 36.4596 16.7488 36.2061 16.502C35.9526 16.2552 35.7507 15.9609 35.6122 15.636C35.4737 15.3112 35.4013 14.9622 35.3992 14.6093C35.3973 14.2647 35.4643 13.9231 35.5961 13.6044C35.728 13.2857 35.9222 12.9962 36.1674 12.7527C36.4126 12.5093 36.704 12.3167 37.0246 12.1861C37.3452 12.0556 37.6887 11.9896 38.0351 11.9922Z" fill="#C3C3C3"/>
<path d="M42.0852 15.1852C42.0852 15.2289 42.0807 15.2732 42.0777 15.3168C42.0539 15.3309 42.022 15.3575 42.0034 15.322C41.9908 15.2993 41.9874 15.2727 41.9941 15.2476C42.0007 15.2225 42.0168 15.201 42.0391 15.1875C42.0545 15.1876 42.0698 15.1868 42.0852 15.1852Z" fill="#282828"/>
<path d="M41.9975 14.8215C42.0785 14.9028 42.0294 15.0041 42.042 15.0958C41.9603 15.0152 42.0093 14.9139 41.9975 14.8215Z" fill="#282828"/>
<path d="M27.4455 7.82842C27.3496 7.94893 27.2017 7.95189 27.0739 7.97111C26.4787 8.062 25.8715 8.03689 25.2859 7.89718C25.193 7.875 25.0541 7.87352 25.0548 7.75745C25.0556 7.64138 25.2034 7.64212 25.2904 7.62881C25.9075 7.53301 26.5369 7.54904 27.1482 7.67613C27.2619 7.69164 27.3668 7.74538 27.4455 7.82842Z" fill="#787878"/>
<path d="M28.5624 12.9518C28.5587 13.0309 28.5854 13.1152 28.5215 13.1839C28.5245 13.1048 28.4903 13.0191 28.5624 12.9518Z" fill="#565656"/>
<path d="M28.4241 13.7731C28.4241 13.8382 28.4412 13.9069 28.3855 13.9602C28.3833 13.8944 28.361 13.8249 28.4241 13.7731Z" fill="#565656"/>
<path d="M28.743 11.8561V12.0365C28.7326 12.058 28.72 12.0609 28.7029 12.0439C28.7044 11.9766 28.685 11.9094 28.743 11.8561Z" fill="#565656"/>
<path d="M28.7927 11.6743C28.789 11.7379 28.8128 11.8081 28.7496 11.8584C28.7496 11.7992 28.7496 11.7401 28.7534 11.681C28.7593 11.6558 28.7756 11.6543 28.7927 11.6743Z" fill="#797979"/>
<path d="M28.5141 13.2712C28.5141 13.3362 28.5312 13.4043 28.4762 13.4575C28.4739 13.3924 28.4539 13.3237 28.5141 13.2712Z" fill="#565656"/>
<path d="M28.4672 13.5447C28.4672 13.6098 28.4858 13.6771 28.4286 13.7303C28.4286 13.6652 28.4078 13.5965 28.4672 13.5447Z" fill="#565656"/>
<path d="M28.6538 12.5851C28.6538 12.6361 28.6635 12.6893 28.6115 12.7248C28.6115 12.6805 28.6115 12.6361 28.6115 12.5917C28.6233 12.5681 28.6367 12.5681 28.6538 12.5851Z" fill="#797979"/>
<path d="M28.6537 12.5851C28.6405 12.5866 28.6273 12.5888 28.6143 12.5918C28.6091 12.54 28.6024 12.4875 28.6507 12.4491C28.6522 12.4942 28.653 12.5393 28.6537 12.5851Z" fill="#565656"/>
<path d="M28.3758 14.0467C28.3828 14.0716 28.3831 14.0978 28.3768 14.1229C28.3704 14.1479 28.3575 14.1708 28.3394 14.1894C28.3335 14.1361 28.3268 14.0844 28.3758 14.0467Z" fill="#565656"/>
<path d="M28.705 12.044L28.7451 12.0366C28.7451 12.0883 28.7555 12.1415 28.7028 12.177L28.705 12.044Z" fill="#797979"/>
<path d="M28.6968 12.1755V12.3108C28.6872 12.3315 28.6738 12.3337 28.6574 12.3175C28.6559 12.2665 28.6478 12.214 28.6968 12.1755Z" fill="#565656"/>
<path d="M28.7971 11.4052C28.8106 11.4027 28.8243 11.401 28.838 11.4C28.838 11.451 28.8469 11.5035 28.7964 11.539C28.7964 11.4947 28.7971 11.4503 28.7971 11.4052Z" fill="#797979"/>
<path d="M28.7927 11.6743C28.7795 11.6757 28.7663 11.678 28.7534 11.681C28.7474 11.6285 28.7392 11.5752 28.7898 11.5375C28.7905 11.5834 28.7913 11.6285 28.7927 11.6743Z" fill="#565656"/>
<path d="M28.332 14.4082C28.3177 14.4102 28.3033 14.4114 28.2889 14.4119C28.2889 14.3617 28.2822 14.3099 28.3305 14.2744C28.3312 14.3188 28.332 14.3639 28.332 14.4082Z" fill="#565656"/>
<path d="M28.6597 12.3174L28.6991 12.3108C28.6991 12.3625 28.7095 12.4158 28.6575 12.4513L28.6597 12.3174Z" fill="#797979"/>
<path d="M28.6048 12.7226C28.6122 12.7476 28.6129 12.774 28.6068 12.7993C28.6007 12.8247 28.5879 12.8479 28.5699 12.8668C28.5632 12.8143 28.5565 12.7618 28.6048 12.7226Z" fill="#565656"/>
<path d="M17.3151 7.11278C17.029 7.27689 16.6998 7.35135 16.3705 7.32644C16.2739 7.32644 16.1751 7.30574 16.0733 7.29613C15.9431 7.29181 15.8192 7.23905 15.7262 7.14827C15.5583 6.97305 15.5583 6.90873 15.7389 6.75126C15.8652 6.64111 15.9871 6.52947 16.1141 6.41784C16.1307 6.40832 16.1447 6.39494 16.155 6.37885C16.1652 6.36275 16.1714 6.34442 16.1729 6.32544C16.1744 6.30645 16.1713 6.28738 16.1638 6.26987C16.1563 6.25235 16.1446 6.23691 16.1298 6.22488C16.0153 6.10212 15.9311 5.95457 15.8838 5.79387C15.8529 5.69112 15.8578 5.58103 15.8975 5.48136C15.9373 5.38169 16.0097 5.29827 16.103 5.24457C16.4395 5.03768 16.8405 4.96037 17.2303 5.02722C17.5276 5.07305 17.732 5.27858 17.8635 5.53881C17.9925 5.8139 18.0732 6.10897 18.102 6.41119C18.1177 6.50129 18.1146 6.59362 18.0931 6.68251C18.0188 6.94052 17.8278 7.06768 17.5506 7.01519C17.1836 6.94752 16.8315 6.81614 16.5102 6.62706C16.4716 6.6034 16.4359 6.57605 16.3951 6.55313C16.3542 6.53021 16.3074 6.52282 16.2836 6.58196C16.2356 6.68512 16.1728 6.78076 16.0971 6.86586C16.0651 6.90504 16.0488 6.95014 16.0971 6.98414C16.1454 7.01815 16.1662 6.97601 16.1914 6.94866C16.2598 6.87473 16.2828 6.72687 16.3951 6.72687C16.4917 6.72687 16.5883 6.80893 16.6819 6.85994C16.864 6.96344 17.072 7.01372 17.3151 7.11278Z" fill="#797979"/>
<path d="M35.362 7.66211C34.9393 7.67455 34.5171 7.62473 34.1091 7.51425C34.0444 7.49576 33.9352 7.50094 33.9367 7.39818C33.9381 7.29541 34.0355 7.30429 34.1098 7.28876C34.5494 7.19574 35.0015 7.17675 35.4475 7.23257C35.5991 7.24264 35.75 7.2619 35.8993 7.29024C35.9979 7.31039 36.0952 7.33656 36.1906 7.3686C36.25 7.39152 36.3459 7.38857 36.3392 7.48024C36.3318 7.54678 36.2515 7.55417 36.1906 7.56822C35.9204 7.63903 35.6413 7.67065 35.362 7.66211Z" fill="#787878"/>
<path d="M7.11399 16.4575C7.10879 16.2483 7.11399 16.0369 7.09319 15.8284C7.07832 15.6887 7.11251 15.5992 7.24627 15.5526C7.44246 15.353 7.49745 15.3434 7.74269 15.4602C7.95593 15.5606 8.16092 15.6776 8.35577 15.8099C8.54973 15.943 8.5579 16.0236 8.40407 16.1914C8.16355 16.4652 7.85313 16.6693 7.50563 16.7821C7.20243 16.8752 7.15041 16.8397 7.13406 16.5204C7.13161 16.4983 7.12479 16.4769 7.11399 16.4575Z" fill="#363636"/>
<path d="M6.3204 15.5623C6.34688 15.5685 6.37186 15.5799 6.3939 15.5958C6.41594 15.6117 6.43461 15.6317 6.44883 15.6548C6.46306 15.6779 6.47256 15.7035 6.47679 15.7303C6.48102 15.757 6.47989 15.7843 6.47348 15.8107C6.46243 15.9503 6.45847 16.0905 6.46159 16.2306C6.42146 16.3489 6.45193 16.4701 6.44301 16.5899C6.43038 16.771 6.35309 16.8479 6.18143 16.8117C5.71103 16.7156 5.35952 16.4361 5.06673 16.0724C4.99687 15.9844 5.04592 15.9142 5.12469 15.8646C5.37513 15.7072 5.62482 15.5467 5.89012 15.4137C6.07739 15.3205 6.21041 15.4188 6.3204 15.5623Z" fill="#363636"/>
<path d="M6.3203 15.5623C6.09067 15.3693 5.88483 15.4529 5.66932 15.6007C5.47685 15.733 5.26877 15.8425 5.05103 15.9704C5.36166 16.3629 5.71985 16.652 6.19917 16.7614C6.33368 16.7925 6.39164 16.7466 6.41542 16.6069C6.43772 16.4812 6.39313 16.3481 6.4615 16.2284C6.4615 16.4176 6.47116 16.6076 6.4615 16.7962C6.45332 17.0143 6.36935 17.0704 6.15458 17.018C5.83726 16.94 5.54533 16.7825 5.30667 16.5603C5.15811 16.4411 5.02813 16.3005 4.92098 16.1434C4.81397 15.9674 4.83329 15.8188 5.00867 15.7183C5.27174 15.5704 5.54298 15.4285 5.81497 15.2932C5.88317 15.2553 5.95981 15.235 6.03791 15.234C6.11966 15.234 6.20586 15.2185 6.26903 15.2976C6.33219 15.3767 6.36935 15.4595 6.3203 15.5623Z" fill="#969696"/>
<path d="M7.11399 16.4575C7.16007 16.5085 7.14223 16.5729 7.15189 16.6313C7.17419 16.7614 7.22621 16.7983 7.35849 16.7673C7.69451 16.6891 8.00154 16.5182 8.2443 16.2742C8.56608 15.9511 8.56459 16.0043 8.17668 15.7685C8.02062 15.6739 7.85416 15.5955 7.70033 15.4979C7.57474 15.4188 7.46401 15.4055 7.35031 15.512C7.33661 15.5254 7.32034 15.5359 7.30246 15.5428C7.28458 15.5498 7.26547 15.5532 7.24627 15.5526C7.26931 15.4898 7.14595 15.4609 7.20466 15.3959C7.26336 15.3308 7.3243 15.2384 7.43949 15.2303C7.5543 15.221 7.66942 15.244 7.77167 15.2968C8.03474 15.4336 8.29186 15.5778 8.5527 15.7227C8.73105 15.8232 8.77564 15.9548 8.65525 16.1167C8.33496 16.5603 7.92996 16.89 7.39193 17.0305C7.20243 17.08 7.1192 17.0164 7.11251 16.8213C7.10433 16.7008 7.11177 16.5788 7.11399 16.4575Z" fill="#969696"/>
<path d="M8.76159 15.0506C8.69545 15.2517 8.69248 15.2584 8.52081 15.1904C8.34915 15.1224 8.17526 15.0344 8.00062 14.956C7.9729 14.9431 7.94825 14.9245 7.92827 14.9014C7.90829 14.8784 7.89344 14.8514 7.88469 14.8222C7.83713 14.7143 7.87429 14.6004 7.85794 14.4873C7.84382 14.3875 7.91813 14.3394 7.99765 14.304C8.1566 14.2317 8.3205 14.1706 8.48811 14.1213C8.69099 14.0681 8.81361 14.1457 8.79429 14.3535C8.77496 14.5864 8.81138 14.8207 8.76159 15.0506Z" fill="#373737"/>
<path d="M5.63662 14.9109C5.43344 15.0278 5.22033 15.1268 4.99976 15.2066C4.91504 15.2377 4.85113 15.2333 4.81843 15.1386C4.75601 14.871 4.80728 14.5982 4.77459 14.3254C4.75229 14.1384 4.88977 14.0629 5.08299 14.1184C5.2004 14.1524 5.31262 14.2019 5.42706 14.2433C5.70425 14.3417 5.74066 14.4119 5.68418 14.7246C5.63737 14.7815 5.6931 14.8599 5.63662 14.9109Z" fill="#373737"/>
<path d="M7.4314 13.7251C7.2419 13.6201 7.15198 13.4693 7.1936 13.2482C7.2033 13.1666 7.20702 13.0843 7.20475 13.0021C7.22551 12.9612 7.2323 12.9148 7.22407 12.8697C7.22407 12.7219 7.30581 12.6553 7.44181 12.6856C7.7253 12.7537 7.97853 12.9124 8.16265 13.1374C8.18784 13.1665 8.20336 13.2027 8.20709 13.2409C8.21081 13.2792 8.20256 13.3176 8.18345 13.351C8.09279 13.5329 7.64022 13.7576 7.4314 13.7251Z" fill="#373737"/>
<path d="M6.36936 13.0945C6.36563 13.1397 6.36563 13.1852 6.36936 13.2305C6.40726 13.4478 6.34186 13.6157 6.13973 13.7206C5.91084 13.765 5.4553 13.5321 5.38173 13.3318C5.36796 13.2919 5.3659 13.249 5.37577 13.208C5.38564 13.167 5.40704 13.1297 5.43747 13.1004C5.60456 12.9106 5.81993 12.7691 6.06096 12.6908C6.18209 12.6487 6.2839 12.6708 6.32923 12.8143C6.38125 12.903 6.32254 13.0057 6.36936 13.0945Z" fill="#373737"/>
<path d="M7.43134 13.7251C7.70927 13.7037 7.92701 13.5625 8.11874 13.3754C8.13308 13.3625 8.14454 13.3468 8.15239 13.3292C8.16024 13.3116 8.16429 13.2926 8.16429 13.2734C8.16429 13.2542 8.16024 13.2352 8.15239 13.2176C8.14454 13.2 8.13308 13.1843 8.11874 13.1714C7.93251 12.96 7.68934 12.8061 7.41797 12.7278C7.31913 12.7019 7.25745 12.7485 7.24407 12.8513C7.24639 12.9038 7.23153 12.9557 7.20171 12.9991C7.17793 12.7973 7.22475 12.5925 7.17422 12.3892C7.15192 12.2997 7.22178 12.2487 7.31616 12.285C7.7442 12.4483 8.1507 12.648 8.48139 12.9747C8.54751 13.0265 8.59156 13.1012 8.60475 13.1839C8.53861 13.2453 8.49328 13.1766 8.44349 13.1573C8.34465 13.1174 8.27034 13.1374 8.25919 13.246C8.25268 13.2911 8.2365 13.3342 8.21175 13.3725C8.187 13.4107 8.15427 13.4433 8.11577 13.4678C7.99719 13.5611 7.87311 13.6473 7.7442 13.7259C7.64611 13.7857 7.53389 13.816 7.43134 13.7251Z" fill="#959595"/>
<path d="M6.33072 12.8143C6.30548 12.7714 6.26463 12.7398 6.21664 12.7261C6.16864 12.7123 6.11717 12.7174 6.07286 12.7404C5.84588 12.8277 5.64073 12.9632 5.47166 13.1374C5.40775 13.2046 5.37282 13.2852 5.44045 13.3592C5.62921 13.5625 5.85066 13.7088 6.14122 13.7185C6.04313 13.8175 5.92423 13.7887 5.82911 13.7369C5.66615 13.6547 5.5188 13.5448 5.39363 13.4124C5.35912 13.3739 5.33373 13.3281 5.31932 13.2786C5.26953 13.1167 5.23832 13.1063 5.07706 13.1758C5.0451 13.1899 5.01463 13.232 4.97896 13.1935C4.94329 13.1551 4.96782 13.1078 4.99828 13.073C5.21223 12.8377 5.46761 12.6433 5.75182 12.4993C5.90128 12.426 6.05487 12.3614 6.21182 12.3056C6.34707 12.2524 6.36862 12.2709 6.37977 12.4084C6.39092 12.5459 6.32404 12.6775 6.33072 12.8143Z" fill="#959494"/>
<path d="M8.76153 15.0507C8.76153 14.8769 8.75708 14.7039 8.7541 14.5332C8.75523 14.4801 8.753 14.427 8.74741 14.3742C8.71174 14.131 8.69317 14.1199 8.46279 14.1997C8.3268 14.247 8.19378 14.3069 8.05556 14.3476C8.0294 14.3517 8.00434 14.361 7.98184 14.3749C7.95934 14.3888 7.93987 14.407 7.92456 14.4285C7.90925 14.45 7.89843 14.4743 7.89272 14.5C7.88701 14.5257 7.88654 14.5523 7.89132 14.5783C7.89653 14.6603 7.89132 14.7439 7.88687 14.8267C7.80066 14.701 7.84674 14.5487 7.80586 14.4119C7.78208 14.3328 7.85491 14.2751 7.92551 14.2374C8.21459 14.0851 8.50441 13.9343 8.79275 13.782C8.88044 13.7355 8.95921 13.7281 8.99191 13.839C9.05804 14.0607 9.16803 14.2744 9.11675 14.5139C9.0952 14.5243 9.07885 14.5383 9.06994 14.5346C8.8195 14.4267 8.81058 14.4348 8.80315 14.7032C8.80018 14.8163 8.84328 14.9413 8.76153 15.0507Z" fill="#969595"/>
<path d="M5.68423 14.7291C5.68423 14.6995 5.67829 14.6699 5.67606 14.6396C5.66045 14.3971 5.65971 14.3979 5.439 14.321C5.29632 14.2707 5.15289 14.2241 5.01393 14.1657C4.90394 14.1199 4.8653 14.1657 4.84003 14.2626C4.81747 14.3657 4.80848 14.4713 4.81328 14.5768C4.81328 14.7646 4.81328 14.9524 4.81848 15.1409C4.72633 15.0359 4.78578 14.9087 4.76646 14.7927C4.7646 14.77 4.7646 14.7473 4.76646 14.7246C4.76646 14.423 4.75829 14.4178 4.46921 14.531C4.39489 14.2626 4.49596 14.0282 4.59851 13.7968C4.63418 13.717 4.70775 13.7584 4.75829 13.7791C4.86254 13.8233 4.96382 13.8742 5.06149 13.9314C5.23389 14.0282 5.41002 14.1162 5.58762 14.202C5.70132 14.2567 5.75186 14.3299 5.73625 14.4511C5.72213 14.5443 5.77118 14.6492 5.68423 14.7291Z" fill="#959595"/>
<path d="M6.80334 14.9338C6.63539 14.9338 6.4823 14.8156 6.47487 14.6773C6.46818 14.559 6.5908 14.4607 6.74463 14.4622C6.89846 14.4637 7.05972 14.5938 7.05972 14.7298C7.05972 14.8466 6.95494 14.9294 6.80334 14.9338Z" fill="#3A3939"/>
<path d="M6.36941 13.0945C6.32746 13.0076 6.31395 12.9099 6.33076 12.815C6.40433 12.9 6.37535 12.9991 6.36941 13.0945Z" fill="#959494"/>
<path d="M5.63672 14.9109C5.65307 14.8503 5.63672 14.7801 5.68428 14.7291C5.68874 14.7949 5.71549 14.8666 5.63672 14.9109Z" fill="#959595"/>
<path d="M37.5476 15.5548C37.601 15.5701 37.6464 15.6053 37.6741 15.6532C37.7018 15.7011 37.7098 15.7578 37.6963 15.8114C37.6799 15.9652 37.6858 16.1219 37.6814 16.2771C37.6398 16.3873 37.6688 16.4989 37.6628 16.615C37.6531 16.7769 37.5774 16.856 37.4109 16.819C36.9591 16.7192 36.6076 16.462 36.3222 16.1101C36.304 16.0925 36.2902 16.0709 36.2821 16.047C36.274 16.0231 36.2718 15.9977 36.2756 15.9727C36.2795 15.9478 36.2893 15.9242 36.3043 15.9038C36.3192 15.8835 36.3389 15.867 36.3616 15.8557C36.6142 15.6843 36.8801 15.533 37.1567 15.4033C37.3284 15.3234 37.4466 15.4299 37.5476 15.5548Z" fill="#363636"/>
<path d="M38.3338 16.2764C38.3293 16.1204 38.3338 15.9637 38.3174 15.8099C38.304 15.7565 38.3119 15.7 38.3397 15.6524C38.3675 15.6047 38.4128 15.5698 38.4661 15.5549C38.6563 15.3538 38.715 15.3427 38.9625 15.4595C39.1874 15.5701 39.4058 15.6935 39.6164 15.8291C39.7472 15.9097 39.7762 16.0095 39.6751 16.1293C39.4192 16.4542 39.066 16.6898 38.6667 16.8021C38.4274 16.8642 38.3598 16.8072 38.3494 16.5662C38.3457 16.4709 38.3724 16.3718 38.3338 16.2764Z" fill="#363636"/>
<path d="M38.3338 16.2764C38.3881 16.3747 38.3606 16.4841 38.3732 16.5884C38.394 16.7614 38.4431 16.7969 38.6117 16.7584C39.0472 16.6579 39.3779 16.3976 39.6648 16.0716C39.7391 15.9873 39.693 15.9393 39.6157 15.8957C39.3705 15.7574 39.1245 15.6192 38.8815 15.4765C38.8421 15.4464 38.7934 15.4311 38.7439 15.4331C38.6943 15.4351 38.647 15.4544 38.6103 15.4876C38.5727 15.5264 38.5223 15.5503 38.4683 15.5548C38.42 15.333 38.5055 15.2273 38.7314 15.2303C38.8464 15.2322 38.9588 15.2654 39.0561 15.3264C39.2843 15.4646 39.5258 15.5748 39.7606 15.696C39.9546 15.7988 39.9925 15.9711 39.8595 16.1485C39.5399 16.5729 39.1401 16.8878 38.6177 17.0246C38.4326 17.0741 38.3435 17.0127 38.3323 16.819C38.3219 16.6409 38.3323 16.4583 38.3338 16.2764Z" fill="#969696"/>
<path d="M37.5475 15.5549C37.5394 15.5549 37.529 15.5549 37.5245 15.5549C37.3283 15.3796 37.1448 15.4454 36.953 15.5719C36.7747 15.6887 36.5815 15.787 36.4024 15.8979C36.2872 15.9674 36.282 15.9955 36.3652 16.0894C36.6476 16.4088 36.9746 16.6623 37.4056 16.7607C37.5765 16.7998 37.6181 16.7681 37.6442 16.5906C37.659 16.4871 37.6226 16.3762 37.685 16.2794C37.685 16.4538 37.6947 16.6283 37.685 16.8028C37.6754 17.0209 37.5914 17.0786 37.3751 17.0246C36.8319 16.8841 36.4358 16.5403 36.1155 16.1012C36.0226 15.9748 36.0836 15.7974 36.2352 15.7153C36.4826 15.5815 36.7375 15.4632 36.9783 15.3205C37.0704 15.2655 37.1756 15.2359 37.283 15.2347C37.5104 15.2296 37.5966 15.3323 37.5475 15.5549Z" fill="#969696"/>
<path d="M36.9085 14.7313C36.9103 14.788 36.8935 14.8438 36.8606 14.8902C36.8278 14.9366 36.7807 14.9711 36.7264 14.9885C36.5666 15.0588 36.4106 15.1364 36.2478 15.2022C36.1274 15.2495 36.0591 15.2244 36.0338 15.0965C35.9855 14.8436 36.0241 14.5871 35.9952 14.332C35.9744 14.1539 36.1007 14.0725 36.2776 14.1147C36.4538 14.162 36.6256 14.2243 36.7911 14.301C37.0021 14.3934 36.9285 14.5716 36.9085 14.7313Z" fill="#373737"/>
<path d="M39.9807 15.0965C39.9562 15.2007 39.9108 15.2547 39.7882 15.2096C39.595 15.1357 39.4166 15.0455 39.2279 14.9567C39.1305 14.9102 39.1134 14.8244 39.103 14.735C39.0622 14.3956 39.0837 14.3579 39.3869 14.2396C39.499 14.1911 39.6145 14.1509 39.7325 14.1191C39.913 14.0777 40.0401 14.1531 40.0201 14.3313C39.9911 14.5849 40.0327 14.8429 39.9807 15.0965Z" fill="#373737"/>
<path d="M38.6526 13.7229C38.4661 13.6179 38.3755 13.4678 38.4171 13.2483C38.425 13.182 38.4277 13.1153 38.4252 13.0487C38.4338 13.036 38.4394 13.0216 38.4416 13.0065C38.4661 12.6465 38.5657 12.5925 38.8986 12.7588C39.049 12.8348 39.187 12.9327 39.3081 13.0494C39.4664 13.1973 39.4753 13.3141 39.3081 13.4501C39.123 13.6031 38.9402 13.8013 38.6526 13.7229Z" fill="#373737"/>
<path d="M37.5922 13.0472C37.5877 13.114 37.5892 13.181 37.5967 13.2475C37.6398 13.4693 37.5491 13.6172 37.3633 13.7229C37.1292 13.7635 36.6759 13.5299 36.6038 13.3296C36.5645 13.2209 36.6165 13.1366 36.6915 13.0649C36.8382 12.9199 37.0105 12.8031 37.1998 12.7204C37.4629 12.6102 37.5603 12.6738 37.5714 12.9607C37.5696 12.9909 37.5768 13.021 37.5922 13.0472Z" fill="#373737"/>
<path d="M38.6527 13.7229C38.7883 13.712 38.9203 13.6741 39.0409 13.6115C39.1616 13.5489 39.2683 13.4628 39.3549 13.3584C39.4211 13.2845 39.3809 13.2017 39.3163 13.1366C39.1519 12.9677 38.953 12.8358 38.7329 12.75C38.5494 12.6805 38.4959 12.7197 38.4646 12.9208C38.4642 12.9663 38.4505 13.0107 38.4253 13.0487C38.4253 12.8269 38.4208 12.6088 38.4193 12.3885C38.4193 12.3034 38.452 12.2539 38.5456 12.2901C38.9915 12.4587 39.4114 12.6664 39.7451 13.0169C39.7555 13.028 39.7666 13.0383 39.7763 13.0494C39.8127 13.0893 39.8617 13.1359 39.8253 13.1876C39.7815 13.2505 39.7309 13.1876 39.6856 13.1706C39.5429 13.1218 39.5206 13.127 39.4798 13.2749C39.4617 13.3322 39.4301 13.3845 39.3876 13.4272C39.2664 13.5538 39.1244 13.6591 38.9677 13.7384C38.8719 13.7909 38.753 13.8183 38.6527 13.7229Z" fill="#969595"/>
<path d="M37.5922 13.0472C37.5453 12.9984 37.558 12.9341 37.5468 12.8756C37.5208 12.733 37.4651 12.6908 37.3239 12.7359C37.0787 12.8203 36.8584 12.9638 36.6826 13.1536C36.6527 13.1781 36.6336 13.2131 36.6293 13.2514C36.625 13.2896 36.6358 13.328 36.6595 13.3584C36.746 13.4629 36.8528 13.549 36.9734 13.6117C37.0941 13.6743 37.2262 13.7121 37.3618 13.7229C37.323 13.7609 37.2722 13.7844 37.218 13.7892C37.1637 13.7941 37.1095 13.78 37.0645 13.7495C36.8801 13.6586 36.7151 13.533 36.5785 13.3798C36.5637 13.3626 36.5517 13.3431 36.5429 13.3222C36.4567 13.1241 36.4567 13.1248 36.2456 13.2076C36.2261 13.2105 36.2064 13.2105 36.1869 13.2076C36.1865 13.1635 36.1965 13.1199 36.2161 13.0804C36.2357 13.0408 36.2644 13.0064 36.2999 12.9799C36.5845 12.7057 36.9237 12.4939 37.2957 12.3581C37.5929 12.2413 37.5929 12.2443 37.5892 12.5703C37.5922 12.73 37.5929 12.889 37.5922 13.0472Z" fill="#969595"/>
<path d="M39.9806 15.0965C39.9806 14.9006 39.9806 14.7047 39.9806 14.5095C39.9817 14.4643 39.9802 14.4192 39.9761 14.3742C39.9494 14.1369 39.9189 14.1169 39.6945 14.1945C39.5734 14.2367 39.4559 14.2944 39.3318 14.3247C39.2681 14.3347 39.2106 14.3685 39.171 14.4192C39.1314 14.4698 39.1127 14.5336 39.1186 14.5975C39.1186 14.6426 39.1104 14.6869 39.1067 14.732C39.0271 14.6285 39.0695 14.4991 39.0323 14.3845C39.0115 14.3165 39.0866 14.2655 39.149 14.2367C39.4463 14.0822 39.7435 13.9291 40.0363 13.7731C40.124 13.7266 40.1812 13.7473 40.2154 13.8367C40.2994 14.0585 40.3811 14.2751 40.3395 14.5124C40.318 14.5228 40.3016 14.5376 40.2927 14.5331C40.0415 14.4259 40.0348 14.4333 40.0267 14.7032C40.0207 14.8318 40.0675 14.9723 39.9806 15.0965Z" fill="#969595"/>
<path d="M36.9086 14.7313C36.9368 14.4851 36.8491 14.3328 36.5853 14.2877C36.4595 14.2573 36.3372 14.214 36.2204 14.1583C36.1357 14.1243 36.0948 14.1517 36.0718 14.2359C36.0508 14.3081 36.0396 14.3826 36.0383 14.4577C36.0383 14.6692 36.0383 14.8813 36.0339 15.0928C35.9514 14.976 35.9938 14.8436 35.9908 14.7187C35.9826 14.423 35.9782 14.4148 35.6935 14.5265C35.6192 14.2574 35.7203 14.023 35.8258 13.7909C35.8585 13.7169 35.9202 13.7384 35.9826 13.7643C36.0848 13.8119 36.184 13.8655 36.2799 13.9247C36.459 14.026 36.6447 14.1132 36.8268 14.2078C36.9405 14.2662 37.0171 14.3276 36.9613 14.4703C36.9338 14.5553 36.9896 14.6581 36.9086 14.7313Z" fill="#959494"/>
<path d="M37.9674 14.4585C38.1354 14.4585 38.2803 14.5812 38.2832 14.7254C38.2832 14.8459 38.1837 14.9287 38.0313 14.9302C37.8515 14.9302 37.6917 14.7986 37.6999 14.6537C37.7058 14.545 37.8255 14.4578 37.9674 14.4585Z" fill="#3A3939"/>
</g>
<defs>
<clipPath id="clip0_1_481">
<rect width="46" height="19" fill="white"/>
</clipPath>
</defs>
</svg>
